<svg width="149" height="12" viewBox="0 0 149 12" fill="none" xmlns="http://www.w3.org/2000/svg">
<g clip-path="url(#clip0_10_21)">
<path d="M0 11.1862H2.83445L3.77443 8.93141H8.40209L9.35652 11.1862H12.2778L7.49103 0.556335H4.97474L0 11.1862ZM4.67105 6.77905L6.04488 3.49931L7.44764 6.77905H4.67105Z" fill="white"/>
<path d="M17.2322 0.556335H14.6001V11.1862H22.6262V9.00461H17.2322V0.556335Z" fill="white"/>
<path d="M25.6779 0.556335V11.1862H28.3098V6.92547H33.1969V4.74386H28.3098V2.73795H33.7465V0.556335H25.6779Z" fill="white"/>
<path d="M34.2845 11.1862H37.119L38.0589 8.93141H42.6866L43.641 11.1862H46.5623L41.7755 0.556335H39.2592L34.2845 11.1862ZM38.9555 6.77905L40.3294 3.49931L41.7321 6.77905H38.9555Z" fill="white"/>
<path d="M65.782 4.15824C65.5216 1.75701 63.2368 0 59.7805 0C55.9193 0 53.4898 2.22554 53.4898 5.59312C53.4898 8.96074 55.9193 11.1862 59.7805 11.1862C63.2368 11.1862 65.5506 9.39994 65.8254 6.7791H62.9476C62.774 8.17006 61.6316 9.00463 59.7805 9.00463C57.6836 9.00463 56.3821 7.71617 56.3821 5.59312C56.3821 3.47008 57.6836 2.18162 59.7805 2.18162C61.5159 2.18162 62.5715 2.85513 62.9186 4.15824H65.782Z" fill="white"/>
<path d="M67.5828 10.9081H70.4172L71.3572 8.65321H75.9849L76.9394 10.9081H79.8605L75.0738 0.278198H72.5575L67.5828 10.9081ZM72.2538 6.50091L73.6277 3.22118L75.0305 6.50091H72.2538Z" fill="white"/>
<path d="M80.1763 0.278198V2.45981H83.7772V10.9081H86.409V2.45981H90.0104V0.278198H80.1763Z" fill="white"/>
<path d="M90.3312 10.9081H93.1656L94.1053 8.65321H98.7337L99.6878 10.9081H102.609L97.8227 0.278198H95.3058L90.3312 10.9081ZM95.0027 6.50091L96.3759 3.22118L97.7787 6.50091H95.0027Z" fill="white"/>
<path d="M107.564 0.278198H104.932V10.9081H112.957V8.72649H107.564V0.278198Z" fill="white"/>
<path d="M112.275 0.278198L116.859 6.36914V10.9081H119.491V6.36914L124.162 0.278198H120.836L118.233 4.0704L115.616 0.278198H112.275Z" fill="white"/>
<path d="M136.603 3.54329C136.603 1.31775 134.722 0 131.367 0C128.2 0 126.305 1.53738 126.305 3.52865C126.305 5.32958 127.608 6.23736 130.283 6.51555L132.133 6.70589C133.551 6.85231 134.202 7.04265 134.202 7.86259C134.202 8.68252 133.363 9.16569 131.801 9.16569C129.776 9.16569 128.735 8.52147 128.75 7.233H126.06C126.06 9.88311 127.94 11.1862 131.483 11.1862C135.171 11.1862 137.065 9.89777 137.065 7.56975C137.065 5.69562 135.792 4.74391 133.16 4.45107L131.208 4.24609C129.705 4.08503 129.082 3.96789 129.082 3.17725C129.082 2.43052 129.892 1.96199 131.41 1.96199C133.016 1.96199 133.869 2.48909 133.985 3.54329H136.603Z" fill="white"/>
<path d="M139.166 0.278198V2.45981H142.767V10.9081H145.399V2.45981H149V0.278198H139.166Z" fill="white"/>
</g>
<defs>
<clipPath id="clip0_10_21">
<rect width="149" height="12" fill="white"/>
</clipPath>
</defs>
</svg>
