<svg width="32" height="32" viewBox="0 0 32 32" fill="none" xmlns="http://www.w3.org/2000/svg">
<g clip-path="url(#clip0_991_12650)">
<path fill-rule="evenodd" clip-rule="evenodd" d="M17.8067 22.6829V24.9022H19.2814C20.279 24.9022 21.088 25.7112 21.088 26.7088C21.088 27.7064 20.279 28.5155 19.2814 28.5155H17.8067V30.1933C17.8067 31.1909 16.9977 32 16.0001 32C15.0025 32 14.1935 31.191 14.1935 30.1933V28.5155H12.7183C11.721 28.5155 10.9117 27.7062 10.9117 26.7088C10.9117 25.7114 11.721 24.9022 12.7183 24.9022H14.1935V22.6829C8.71229 21.8091 4.58691 17.0459 4.58691 11.4132C4.58691 5.1195 9.70635 0 16.0001 0C22.2938 0 27.4135 5.11944 27.4135 11.4132C27.4135 17.046 23.2881 21.8091 17.8067 22.6829ZM8.19991 11.4132C8.19991 15.7135 11.6999 19.2131 16 19.2131C20.3004 19.2131 23.8002 15.7136 23.8002 11.4132C23.8002 7.11275 20.3004 3.61331 16 3.61331C11.6999 3.61331 8.19991 7.11287 8.19991 11.4132Z" fill="url(#paint0_linear_991_12650)"/>
</g>
<defs>
<linearGradient id="paint0_linear_991_12650" x1="16" y1="0" x2="16" y2="32" gradientUnits="userSpaceOnUse">
<stop stop-color="#375BE3"/>
<stop offset="1" stop-color="#0A84FF"/>
</linearGradient>
<clipPath id="clip0_991_12650">
<rect width="32" height="32" fill="white"/>
</clipPath>
</defs>
</svg>
