<svg width="20" height="23" viewBox="0 0 20 23" fill="none" xmlns="http://www.w3.org/2000/svg">
<path d="M0.757324 6.86059V15.711C0.757324 16.2743 1.05742 16.796 1.5468 17.0776L9.21069 21.5005C9.70008 21.7821 10.3003 21.7821 10.7896 21.5005L18.4535 17.0776C18.9429 16.796 19.243 16.2743 19.243 15.711V6.86059C19.243 6.29734 18.9429 5.77564 18.4535 5.49401L10.7896 1.07111C10.3003 0.789488 9.70008 0.789488 9.21069 1.07111L1.5468 5.49401C1.06203 5.77564 0.757324 6.29734 0.757324 6.86059Z" fill="#213147"/>
<path d="M11.676 13.0009L10.5819 15.9972C10.5495 16.0803 10.5495 16.1727 10.5819 16.2558L12.4609 21.4128L14.6354 20.157L12.0269 13.0009C11.9669 12.8347 11.7361 12.8347 11.676 13.0009Z" fill="#12AAFF"/>
<path d="M13.8643 7.95937C13.8043 7.79317 13.5735 7.79317 13.5134 7.95937L12.4193 10.9557C12.3869 11.0388 12.3869 11.1311 12.4193 11.2142L15.4987 19.6584L17.6732 18.4026L13.8643 7.95937Z" fill="#12AAFF"/>
<path d="M10 1.39889C10.0554 1.39889 10.1062 1.41274 10.157 1.44044L18.4488 6.22807C18.5457 6.28347 18.6057 6.38504 18.6057 6.49584V16.0711C18.6057 16.1819 18.5457 16.2835 18.4488 16.3389L10.157 21.1311C10.1108 21.1588 10.0554 21.1727 10 21.1727C9.9446 21.1727 9.89381 21.1588 9.84303 21.1311L1.55586 16.3435C1.45891 16.2881 1.39889 16.1865 1.39889 16.0757V6.49584C1.39889 6.38504 1.45891 6.28347 1.55586 6.22807L9.84765 1.44044C9.89381 1.41274 9.94922 1.39889 10 1.39889ZM10 0C9.70452 0 9.40905 0.0784857 9.14589 0.23084L0.854109 5.01847C0.327793 5.32318 0 5.88643 0 6.49584V16.0711C0 16.6805 0.327793 17.2484 0.854109 17.5531L9.14589 22.3407C9.40905 22.4931 9.70452 22.5716 10 22.5716C10.2955 22.5716 10.591 22.4931 10.8541 22.3407L19.1459 17.5531C19.6768 17.2484 20 16.6851 20 16.0711V6.49584C20 5.88643 19.6722 5.31856 19.1459 5.01385L10.8587 0.23084C10.591 0.0784857 10.2955 0 10 0Z" fill="#9DCCED"/>
<path d="M4.52002 19.6676L5.28179 17.5808L6.81457 18.855L5.38336 20.1662L4.52002 19.6676Z" fill="#213147"/>
<path d="M9.30274 5.81256H7.20209C7.04512 5.81256 6.902 5.90951 6.85122 6.05725L2.34521 18.4118L4.51973 19.6676L9.48279 6.06187C9.52435 5.94183 9.43663 5.81256 9.30274 5.81256Z" fill="white"/>
<path d="M12.9826 5.81256H10.8819C10.7249 5.81256 10.5818 5.90951 10.531 6.05725L5.3833 20.1662L7.55782 21.422L13.158 6.06648C13.2042 5.94183 13.1118 5.81256 12.9826 5.81256Z" fill="white"/>
</svg>
