<svg width="24" height="24" viewBox="0 0 24 24" fill="none" xmlns="http://www.w3.org/2000/svg">
<g clip-path="url(#clip0_810_4357)">
<path fill-rule="evenodd" clip-rule="evenodd" d="M12 3.05176e-05C18.6279 3.05176e-05 24 5.37215 24 12C24 18.6279 18.6279 24 12 24C5.37212 24 0 18.6279 0 12C0 5.37215 5.37212 3.05176e-05 12 3.05176e-05Z" fill="#F0B90B"/>
<path d="M6.5951 12L6.60375 15.1731L9.2999 16.7597V18.6173L5.02586 16.1106V11.0722L6.5951 12ZM6.5951 8.82696V10.676L5.0249 9.74715V7.89812L6.5951 6.96927L8.17298 7.89812L6.5951 8.82696ZM10.4259 7.89812L11.9961 6.96927L13.5739 7.89812L11.9961 8.82696L10.4259 7.89812Z" fill="black"/>
<path d="M7.72998 14.5154V12.6577L9.30017 13.5866V15.4356L7.72998 14.5154ZM10.4261 17.425L11.9963 18.3539L13.5742 17.425V19.2741L11.9963 20.2029L10.4261 19.2741V17.425ZM15.8261 7.89812L17.3963 6.96927L18.9742 7.89812V9.74715L17.3963 10.676V8.82696L15.8261 7.89812ZM17.3963 15.1731L17.405 12L18.9752 11.0712V16.1097L14.7011 18.6164V16.7587L17.3963 15.1731Z" fill="black"/>
<path d="M16.2704 14.5154L14.7002 15.4356V13.5866L16.2704 12.6577V14.5154Z" fill="black"/>
<path d="M16.2704 9.48465L16.279 11.3423L13.5752 12.9289V16.1096L12.005 17.0298L10.4348 16.1096V12.9289L7.73094 11.3423V9.48465L9.30786 8.5558L11.9954 10.15L14.6992 8.5558L16.2771 9.48465H16.2704ZM7.72998 6.31253L11.9963 3.79715L16.2704 6.31253L14.7002 7.24138L11.9963 5.64715L9.30017 7.24138L7.72998 6.31253Z" fill="black"/>
</g>
<defs>
<clipPath id="clip0_810_4357">
<rect width="24" height="24" fill="white"/>
</clipPath>
</defs>
</svg>
