<svg width="20" height="20" viewBox="0 0 20 20" fill="none" xmlns="http://www.w3.org/2000/svg">
<circle cx="10" cy="10" r="10" fill="#0093DD"/>
<path fill-rule="evenodd" clip-rule="evenodd" d="M8.51107 10L11.7509 13.3186L13.807 11.2523C14.1808 10.8766 14.7416 10.8766 15.0531 11.2523C15.427 11.628 15.427 12.2542 15.0531 12.6298L12.374 15.3849C12.0002 15.7606 11.4394 15.7606 11.0656 15.3849L7.20266 11.3775V13.7569C7.20266 14.2578 6.76652 14.6961 6.26808 14.6961C5.76963 14.6961 5.3335 14.2578 5.3335 13.7569V6.2431C5.3335 5.74218 5.76963 5.30388 6.26808 5.30388C6.76652 5.30388 7.20266 5.74218 7.20266 6.2431V8.62248L11.0656 4.61511C11.4394 4.23942 12.0002 4.23942 12.374 4.61511L15.0531 7.37018C15.427 7.74587 15.427 8.37202 15.0531 8.74771C14.6793 9.1234 14.1185 9.1234 13.807 8.74771L11.7509 6.61879L8.51107 10ZM11.7509 9.06078C12.2494 9.06078 12.6855 9.49909 12.6855 10C12.6855 10.5009 12.2494 10.9392 11.7509 10.9392C11.2525 10.9392 10.8164 10.5009 10.8164 10C10.8164 9.49909 11.2525 9.06078 11.7509 9.06078Z" fill="white"/>
</svg>
