<svg width="20" height="20" viewBox="0 0 20 20" fill="none" xmlns="http://www.w3.org/2000/svg">
<path d="M12.4093 7.22238H7.59452C7.38997 7.22238 7.22412 7.38816 7.22412 7.5927V12.4076C7.22412 12.6121 7.38997 12.778 7.59452 12.778H12.4093C12.6138 12.778 12.7797 12.6121 12.7797 12.4076V7.5927C12.7797 7.38816 12.6138 7.22238 12.4093 7.22238Z" fill="white"/>
<path d="M6.85169 1.66666H2.0369C1.83236 1.66666 1.6665 1.83243 1.6665 2.03705V6.85184C1.6665 7.05638 1.83236 7.22223 2.0369 7.22223H6.85169C7.0563 7.22223 7.22208 7.05638 7.22208 6.85184V2.03705C7.22208 1.83243 7.0563 1.66666 6.85169 1.66666Z" fill="white"/>
<path d="M17.9631 1.66666H13.1482C12.9437 1.66666 12.7778 1.83243 12.7778 2.03705V6.85184C12.7778 7.05638 12.9437 7.22223 13.1482 7.22223H17.9631C18.1676 7.22223 18.3334 7.05638 18.3334 6.85184V2.03705C18.3334 1.83243 18.1676 1.66666 17.9631 1.66666Z" fill="white"/>
<path d="M6.85169 12.7776H2.0369C1.83236 12.7776 1.6665 12.9434 1.6665 13.148V17.9628C1.6665 18.1674 1.83236 18.3332 2.0369 18.3332H6.85169C7.0563 18.3332 7.22208 18.1674 7.22208 17.9628V13.148C7.22208 12.9434 7.0563 12.7776 6.85169 12.7776Z" fill="white"/>
<path d="M17.9631 12.7776H13.1482C12.9437 12.7776 12.7778 12.9434 12.7778 13.148V17.9628C12.7778 18.1674 12.9437 18.3332 13.1482 18.3332H17.9631C18.1676 18.3332 18.3334 18.1674 18.3334 17.9628V13.148C18.3334 12.9434 18.1676 12.7776 17.9631 12.7776Z" fill="white"/>
</svg>
