<svg width="20" height="20" viewBox="0 0 20 20" fill="none" xmlns="http://www.w3.org/2000/svg">
<rect width="20" height="20" rx="10" fill="#8247E5"/>
<path d="M13.0553 8.36047C12.8339 8.22093 12.5461 8.22093 12.3026 8.36047L10.5756 9.43024L9.4022 10.1279L7.67527 11.1977C7.45387 11.3372 7.16605 11.3372 6.92251 11.1977L5.54982 10.3604C5.32841 10.2209 5.17343 9.96513 5.17343 9.68605V8.03489C5.17343 7.75582 5.30627 7.5 5.54982 7.36047L6.90036 6.54651C7.12177 6.40698 7.40959 6.40698 7.65313 6.54651L9.0037 7.36047C9.22508 7.5 9.38007 7.75582 9.38007 8.03489V9.10466L10.5535 8.38373V7.31396C10.5535 7.03488 10.4207 6.77907 10.1771 6.63954L7.67527 5.10465C7.45387 4.96512 7.16605 4.96512 6.92251 5.10465L4.37638 6.63954C4.13284 6.77907 4 7.03488 4 7.31396V10.407C4 10.686 4.13284 10.9419 4.37638 11.0814L6.92251 12.6163C7.14391 12.7558 7.43173 12.7558 7.67527 12.6163L9.4022 11.5698L10.5756 10.8489L12.3026 9.80233C12.524 9.6628 12.8118 9.6628 13.0553 9.80233L14.4059 10.6163C14.6273 10.7558 14.7823 11.0117 14.7823 11.2907V12.9419C14.7823 13.221 14.6494 13.4767 14.4059 13.6163L13.0553 14.4535C12.8339 14.593 12.5461 14.593 12.3026 14.4535L10.952 13.6396C10.7306 13.5 10.5756 13.2442 10.5756 12.9651V11.8954L9.4022 12.6163V13.686C9.4022 13.9651 9.53506 14.2209 9.77857 14.3605L12.3247 15.8954C12.5461 16.0349 12.8339 16.0349 13.0775 15.8954L15.6236 14.3605C15.845 14.2209 16 13.9651 16 13.686V10.593C16 10.314 15.8671 10.0582 15.6236 9.91863L13.0553 8.36047Z" fill="white"/>
</svg>
