<svg width="48" height="48" viewBox="0 0 48 48" fill="none" xmlns="http://www.w3.org/2000/svg">
<path fill-rule="evenodd" clip-rule="evenodd" d="M31.2041 10.5H16.796C14.4711 7.35964 17.6034 2.96455 21.4942 4.2197L23.3497 4.81828C23.7722 4.95457 24.2279 4.95457 24.6504 4.81828L26.5059 4.2197C30.3967 2.96455 33.529 7.35964 31.2041 10.5ZM17.0124 13.5H30.9877C33.6263 14.961 35.6876 17.4003 36.6315 20.4207L39.1315 28.4207C41.5463 36.1479 35.7734 44 27.6777 44H20.3223C12.2266 44 6.45383 36.1479 8.86857 28.4207L11.3686 20.4207C12.3125 17.4003 14.3738 14.961 17.0124 13.5ZM24 24C26.7614 24 29 26.2386 29 29C29 31.7614 26.7614 34 24 34C21.2386 34 19 31.7614 19 29C19 26.2386 21.2386 24 24 24Z" fill="#E7EAFC"/>
</svg>
