<svg width="22" height="18" viewBox="0 0 22 18" fill="none" xmlns="http://www.w3.org/2000/svg">
<g clip-path="url(#clip0_868_3319)">
<path d="M21.349 5.91595V14.7337C21.349 16.1885 20.1846 17.379 18.7618 17.379H3.23857C1.81569 17.379 0.651367 16.1885 0.651367 14.7337V5.91595C0.651367 4.4611 1.81569 3.27062 3.23857 3.27062H18.7618C20.1846 3.27062 21.349 4.4611 21.349 5.91595Z" fill="url(#paint0_linear_868_3319)"/>
<path d="M15.312 9.44304V11.2066C15.312 12.6614 14.1477 13.8519 12.7248 13.8519H9.27519C7.85231 13.8519 6.68799 12.6614 6.68799 11.2066V9.44304C6.68799 7.9882 7.85231 6.79772 9.27519 6.79772H12.7248C14.1477 6.79772 15.312 7.9882 15.312 9.44304Z" fill="white"/>
<path d="M14.446 2.385H7.55401C7.07572 2.385 6.68799 1.99071 6.68799 1.503C6.68799 1.01529 7.07572 0.621 7.55401 0.621H14.446C14.9242 0.621 15.312 1.01529 15.312 1.503C15.312 1.99071 14.9243 2.385 14.446 2.385Z" fill="white"/>
</g>
<defs>
<linearGradient id="paint0_linear_868_3319" x1="3.13698" y1="2.28292" x2="19.2167" y2="18.0053" gradientUnits="userSpaceOnUse">
<stop stop-color="#6EFFFC"/>
<stop offset="1" stop-color="#4975ED"/>
</linearGradient>
<clipPath id="clip0_868_3319">
<rect width="22" height="18" fill="white"/>
</clipPath>
</defs>
</svg>
