<svg width="22" height="23" viewBox="0 0 22 23" xmlns="http://www.w3.org/2000/svg">
<path d="M0.721268 22.207C0.790923 22.2797 0.873639 22.3373 0.964688 22.3766C1.05574 22.4159 1.15333 22.4362 1.25189 22.4362C1.35045 22.4362 1.44805 22.4159 1.5391 22.3766C1.63015 22.3373 1.71286 22.2797 1.78252 22.207L11 12.6055L20.2213 22.207C20.362 22.3536 20.5529 22.436 20.7519 22.436C20.9509 22.436 21.1418 22.3536 21.2825 22.207C21.4232 22.0604 21.5023 21.8616 21.5023 21.6543C21.5023 21.447 21.4232 21.2482 21.2825 21.1016L12.0613 11.5L21.2788 1.89454C21.4195 1.74794 21.4986 1.54912 21.4986 1.3418C21.4986 1.13449 21.4195 0.935664 21.2788 0.78907C21.138 0.642475 20.9472 0.56012 20.7481 0.56012C20.5491 0.56012 20.3582 0.642475 20.2175 0.78907L11 10.3945L1.77877 0.792976C1.63529 0.664987 1.45074 0.598107 1.26198 0.605702C1.07322 0.613296 0.894167 0.694806 0.760596 0.833942C0.627025 0.973078 0.548776 1.15959 0.541485 1.35622C0.534194 1.55284 0.598399 1.74508 0.721268 1.89454L9.93877 11.5L0.721268 21.1055C0.58158 21.2519 0.503174 21.4499 0.503174 21.6563C0.503174 21.8627 0.58158 22.0607 0.721268 22.207Z"/>
</svg>
