<svg width="16" height="22" viewBox="0 0 16 22" fill="none" xmlns="http://www.w3.org/2000/svg">
<path d="M11.5848 10.2643C11.6622 10.5035 11.7008 10.7518 11.701 11.0002H15.7196C15.7193 10.7671 15.6512 10.5341 15.5151 10.3321L8.99362 0.653999C8.79966 0.366085 8.51105 0.202252 8.20605 0.149536C8.24467 0.156247 8.28329 0.162665 8.32132 0.173179L11.5848 10.2643Z" fill="#0D81F3"/>
<path d="M4.41494 10.2643L7.67843 0.173218C7.41725 0.245407 7.17538 0.402877 7.00613 0.654039L0.484699 10.3322C0.348659 10.5341 0.280566 10.7671 0.280273 11.0002H4.29879C4.29894 10.7519 4.33755 10.5035 4.41494 10.2643Z" fill="#78CCFF"/>
<path d="M4.41508 11.7394C4.33726 11.4991 4.29865 11.2496 4.29879 11.0001H0.280275C0.279909 11.2344 0.348075 11.4686 0.484773 11.6715L7.00628 21.3464C7.20025 21.6343 7.48886 21.7981 7.79392 21.8508C7.75523 21.8441 7.71654 21.8377 7.67851 21.8271L4.41508 11.7394Z" fill="#55B4FB"/>
<path d="M11.7013 11.0001C11.7014 11.2496 11.6627 11.4991 11.585 11.7394L8.32154 21.8271C8.28344 21.8377 8.24475 21.8441 8.20605 21.8508C8.51112 21.7981 8.79973 21.6343 8.99377 21.3464L15.5153 11.6715C15.652 11.4686 15.7201 11.2344 15.7198 11.0001H11.7013Z" fill="#0850AC"/>
<path d="M8.7317 0.654044L15.1183 10.3322C15.2544 10.5341 15.3224 10.7671 15.3227 11.0002H15.7193C15.719 10.7671 15.6509 10.5341 15.5149 10.3322L8.9934 0.654044C8.82488 0.403942 8.58382 0.252744 8.32373 0.181396L8.36403 0.30599C8.50453 0.390375 8.63121 0.504784 8.7317 0.654044Z" fill="#006E87"/>
<path d="M15.3227 11.0002C15.323 11.2345 15.2549 11.4688 15.1182 11.6716L8.7317 21.3466C8.63106 21.4958 8.50453 21.6102 8.36403 21.6945L8.32373 21.8191C8.58374 21.7477 8.82481 21.5966 8.99333 21.3466L15.5148 11.6716C15.6515 11.4688 15.7196 11.2345 15.7193 11.0002H15.3227Z" fill="#003670"/>
<path d="M4.29883 11.0002H11.7011C11.7009 10.7518 11.6622 10.5035 11.5849 10.2643L8.32137 0.173169C8.12185 0.118014 7.86809 0.120736 7.67862 0.173133L4.41497 10.2643C4.33759 10.5035 4.29897 10.7518 4.29883 11.0002Z" fill="#55B4FB"/>
<path d="M7.86951 0.140625C7.75586 0.152368 7.72541 0.162468 7.67847 0.173172L4.41497 10.2643C4.33759 10.5035 4.29897 10.7518 4.29883 11.0002H5.04281C5.04295 10.7518 5.08157 10.5035 5.15895 10.2643L7.86951 0.140625Z" fill="#83E2FC"/>
<path d="M11.5849 11.7394C11.6625 11.4991 11.7012 11.2496 11.7011 11.0001H4.29883C4.29868 11.2496 4.3373 11.4991 4.41512 11.7394L7.67854 21.8271C7.87228 21.8808 8.12443 21.8816 8.32137 21.8271L11.5849 11.7394Z" fill="#0D81F3"/>
<path d="M7.86946 21.8553C7.7275 21.8406 7.72398 21.8309 7.67842 21.8227L4.41497 11.7316C4.33759 11.4924 4.29897 11.2441 4.29883 10.9957L5.0428 10.9957C5.04294 11.2441 5.08156 11.4924 5.15894 11.7316L7.86946 21.8553Z" fill="#33A3FF"/>
<path d="M8.32417 0.181525L8.32373 0.181396L11.5846 10.2643C11.662 10.5035 11.7006 10.7519 11.7008 11.0002H12.2086C12.2084 10.7519 12.1698 10.5035 12.0924 10.2643L8.32417 0.181525Z" fill="#00809E"/>
<path d="M7.30798 0.346436C7.19366 0.426231 7.09083 0.528407 7.00613 0.654043L0.484699 10.3322C0.348659 10.5341 0.280566 10.7671 0.280273 11.0002H0.969688C0.969981 10.7671 1.03807 10.5341 1.17411 10.3322L7.30798 0.346436Z" fill="#CFF8FF"/>
<path d="M8.32466 21.8188L8.32422 21.819L11.585 11.736C11.6624 11.4968 11.701 11.2485 11.7012 11.0001H12.209C12.2088 11.2485 12.1702 11.4968 12.0928 11.736L8.32466 21.8188Z" fill="#003670"/>
<path d="M7.30805 21.6539C7.19373 21.5741 7.09089 21.472 7.0062 21.3463L0.484703 11.6681C0.348662 11.4662 0.280567 11.2332 0.280273 11.0001H0.969688C0.969983 11.2332 1.03808 11.4662 1.17412 11.6681L7.30805 21.6539Z" fill="#85D1FF"/>
<g opacity="0.15">
<path d="M12.4821 5.82921L8.99442 0.653387C8.50743 -0.0514432 7.46704 -0.0312099 7.00649 0.653387L1.05322 9.48819C7.02379 9.85344 10.4833 8.07274 12.4821 5.82921Z" fill="white"/>
</g>
<path opacity="0.5" d="M7.02941 8.12327C8.18258 8.12327 9.11741 7.18844 9.11741 6.03527C9.11741 4.8821 8.18258 3.94727 7.02941 3.94727C5.87624 3.94727 4.94141 4.8821 4.94141 6.03527C4.94141 7.18844 5.87624 8.12327 7.02941 8.12327Z" fill="url(#paint0_radial_1020_5960)"/>
<path d="M7.34655 6.20054L7.95004 6.95529L7.19529 6.35129L7.02937 7.84865L6.86344 6.35129L6.10869 6.95529L6.71269 6.20054L5.21533 6.03462L6.71269 5.86819L6.10869 5.11394L6.86344 5.71744L7.02937 4.22058L7.19529 5.71795L7.95004 5.11394L7.34655 5.86819L8.8434 6.03462L7.34655 6.20054Z" fill="url(#paint1_radial_1020_5960)"/>
<path d="M4.25739 15.9818C4.77224 16.854 5.32617 17.7031 5.91319 18.5078C5.06894 16.7037 4.0139 14.9164 2.84229 13.3055C3.26319 14.2083 3.73893 15.1035 4.25739 15.9818Z" fill="url(#paint2_linear_1020_5960)"/>
<path opacity="0.3" d="M9.51949 17.6122C11.0561 17.6122 12.3017 16.3666 12.3017 14.83C12.3017 13.2935 11.0561 12.0479 9.51949 12.0479C7.98293 12.0479 6.7373 13.2935 6.7373 14.83C6.7373 16.3666 7.98293 17.6122 9.51949 17.6122Z" fill="url(#paint3_radial_1020_5960)"/>
<defs>
<radialGradient id="paint0_radial_1020_5960" cx="0" cy="0" r="1" gradientUnits="userSpaceOnUse" gradientTransform="translate(7.02895 6.03527) scale(2.088)">
<stop offset="0.306306" stop-color="white" stop-opacity="0.999"/>
<stop offset="1" stop-color="white" stop-opacity="0"/>
</radialGradient>
<radialGradient id="paint1_radial_1020_5960" cx="0" cy="0" r="1" gradientUnits="userSpaceOnUse" gradientTransform="translate(7.02914 6.03479) scale(1.81404)">
<stop offset="0.306306" stop-color="white"/>
<stop offset="1" stop-color="white" stop-opacity="0"/>
</radialGradient>
<linearGradient id="paint2_linear_1020_5960" x1="3.75869" y1="13.8816" x2="2.29966" y2="16.0876" gradientUnits="userSpaceOnUse">
<stop stop-color="white" stop-opacity="0"/>
<stop offset="0.442342" stop-color="white"/>
<stop offset="0.640541" stop-color="white" stop-opacity="0.999"/>
<stop offset="1" stop-color="white" stop-opacity="0"/>
</linearGradient>
<radialGradient id="paint3_radial_1020_5960" cx="0" cy="0" r="1" gradientUnits="userSpaceOnUse" gradientTransform="translate(9.51949 14.83) scale(2.78264)">
<stop offset="0.306306" stop-color="white" stop-opacity="0.999"/>
<stop offset="1" stop-color="white" stop-opacity="0"/>
</radialGradient>
</defs>
</svg>
