<svg width="18" height="12" viewBox="0 0 18 12" xmlns="http://www.w3.org/2000/svg">
<path fill-rule="evenodd" clip-rule="evenodd" d="M16.6087 7.7891C17.575 6.77238 17.575 5.22766 16.6087 4.21094C14.9788 2.49613 12.1797 0.166687 9.00008 0.166687C5.82048 0.166687 3.02132 2.49613 1.3915 4.21094C0.425163 5.22766 0.425163 6.77238 1.3915 7.7891C3.02133 9.50391 5.82049 11.8334 9.00008 11.8334C12.1797 11.8334 14.9788 9.50391 16.6087 7.7891ZM9.00008 8.50002C10.3808 8.50002 11.5001 7.38073 11.5001 6.00002C11.5001 4.61931 10.3808 3.50002 9.00008 3.50002C7.61937 3.50002 6.50008 4.61931 6.50008 6.00002C6.50008 7.38073 7.61937 8.50002 9.00008 8.50002Z"/>
</svg>
