<svg width="12" height="14" viewBox="0 0 12 14" fill="none" xmlns="http://www.w3.org/2000/svg">
<path d="M7.31249 0C4.32894 1.71906 4.68749 6.56249 4.68749 6.56249C4.68749 6.56249 3.375 6.12499 3.375 4.15626C1.80911 5.06425 0.75 6.80949 0.75 8.74999C0.75 11.6495 3.1005 14 6.00001 14C8.89951 14 11.25 11.6495 11.25 8.74999C11.25 4.48438 7.31249 3.60937 7.31249 0ZM6.46116 12.191C5.40619 12.454 4.33769 11.8121 4.07461 10.757C3.81158 9.70205 4.45357 8.63349 5.5086 8.37047C8.05563 7.73543 8.37483 6.30312 8.37483 6.30312C8.37483 6.30312 9.64495 11.3972 6.46116 12.191Z"/>
</svg>
