<svg width="24" height="24" viewBox="0 0 24 24" fill="none" xmlns="http://www.w3.org/2000/svg">
<path d="M16.7529 14.3596C17.065 14.5398 17.0666 14.8311 16.7566 15.0112L12.9071 17.2483C12.597 17.4285 12.0942 17.4285 11.7821 17.2483L1.89773 11.5416C1.58827 11.3629 1.58402 11.0701 1.89406 10.89L5.74359 8.65287C6.05361 8.47271 6.55906 8.47421 6.86851 8.65287L16.7529 14.3596Z" fill="url(#paint0_linear_1020_6019)"/>
<path d="M16.9516 14.8176C16.8593 14.9842 16.6666 15.0468 16.5128 15.1456C16.4292 15.1936 13.5581 16.8406 13.6058 16.8132L13.1204 17.0896C12.9554 17.1799 12.803 17.2846 12.6244 17.3148C12.448 17.3519 12.2626 17.3491 12.0878 17.311C11.9232 17.2814 11.9443 17.2998 9.68098 15.9355L5.84212 13.6479L1.98496 11.3919C1.7818 11.2737 1.79593 11.1431 1.97869 11.0364C2.0638 10.9863 5.63515 8.88182 5.58774 8.90976C5.77424 8.80745 5.84187 8.7317 6.04795 8.68184C6.2756 8.62668 6.56853 8.64116 6.7791 8.74562C6.8254 8.77144 9.11487 10.0476 8.96988 9.96677L12.8705 12.1474L16.7529 14.3596L6.86852 8.65288C6.55905 8.47421 6.05361 8.4727 5.74359 8.65288L1.89406 10.89C1.58402 11.0701 1.58828 11.3629 1.89772 11.5416L11.7821 17.2484C12.0942 17.4285 12.597 17.4285 12.9071 17.2483C17.0365 14.8326 16.856 15.0037 16.9516 14.8176Z" fill="url(#paint1_radial_1020_6019)"/>
<path d="M12.3336 17.3806L11.773 21.2192C11.1283 21.2192 11.6769 21.2805 1.31761 15.3785C1.16284 15.2889 1.08545 15.1668 1.08545 15.0486L1.66236 11.2141C1.66236 11.3322 1.74383 11.4504 1.8986 11.5399C12.3935 17.5287 11.7285 17.3806 12.3336 17.3806Z" fill="url(#paint2_linear_1020_6019)"/>
<path d="M16.989 14.6884L17.5292 17.8715C17.5292 17.9896 17.4519 18.1077 17.2971 18.1973C12.103 21.1434 12.3855 21.2069 11.7729 21.2192L12.3336 17.3806C12.5413 17.3847 12.749 17.3399 12.9078 17.2503L16.7568 15.0101C16.9116 14.9205 16.989 14.8065 16.989 14.6884Z" fill="url(#paint3_linear_1020_6019)"/>
<path d="M11.3071 20.3704L1.42195 14.6641C1.27153 14.5771 1.19565 14.4592 1.19141 14.3442L1.08545 15.0486C1.08545 15.1667 1.16284 15.2889 1.31761 15.3785C11.6549 21.2679 11.1317 21.2192 11.773 21.2192L11.8774 20.5048C11.7246 20.4882 11.5371 20.5002 11.3071 20.3704Z" fill="url(#paint4_linear_1020_6019)"/>
<path d="M17.4014 17.4829C12.2074 20.429 12.4898 20.4926 11.8773 20.5048L11.7729 21.2192C12.3862 21.2069 12.0979 21.1463 17.2971 18.1973C17.4518 18.1077 17.5292 17.9896 17.5292 17.8715L17.4566 17.4437C17.4384 17.4569 17.4224 17.4708 17.4014 17.4829Z" fill="url(#paint5_linear_1020_6019)"/>
<path d="M5.42472 8.83813L1.89406 10.8899C1.58403 11.0701 1.58827 11.3628 1.89772 11.5415L11.7821 17.2483C12.0942 17.4285 12.597 17.4285 12.9071 17.2483L15.5885 15.69C15.5885 15.69 7.31413 13.9806 5.42472 8.83813Z" fill="url(#paint6_radial_1020_6019)"/>
<path d="M3.43456 12.4272L3.00732 16.354L4.09497 16.9818L5.52358 13.6346L3.43456 12.4272Z" fill="url(#paint7_radial_1020_6019)"/>
<path d="M8.29588 15.2356L7.56055 18.9824L8.15956 19.3282L10.1822 16.3252L8.29588 15.2356Z" fill="url(#paint8_radial_1020_6019)"/>
<path d="M11.8773 20.5049C11.3885 20.5266 11.1823 20.2937 10.4991 19.9528L9.18729 19.2235L6.57768 17.7405L3.98805 16.2226C3.12736 15.7123 2.27231 15.1922 1.42188 14.6642C2.30442 15.1366 3.18235 15.6168 4.05464 16.1069L6.66395 17.5901L9.25328 19.1082L10.5409 19.8795C11.222 20.2696 11.3868 20.4962 11.8773 20.5049Z" fill="url(#paint9_radial_1020_6019)"/>
<path d="M17.4016 17.483C16.5262 18.0745 15.6173 18.608 14.7111 19.1463C12.3182 20.4955 12.3141 20.5255 11.8774 20.5049C12.2963 20.4651 12.4032 20.344 12.5952 20.2261L13.2665 19.8081C14.3579 19.1352 16.2066 18.0726 17.4016 17.483Z" fill="url(#paint10_radial_1020_6019)"/>
<path d="M4.12768 14.1519L4.23658 14.5147L4.05059 14.1845L3.7709 14.7048L3.92991 14.1359L3.56696 14.245L3.89717 14.059L3.37695 13.7793L3.94586 13.9381L3.8367 13.5754L4.02276 13.9054L4.30238 13.3854L4.14337 13.9542L4.50632 13.8451L4.17636 14.031L4.69633 14.3108L4.12768 14.1519Z" fill="url(#paint11_radial_1020_6019)"/>
<path d="M12.9301 15.195L13.1299 15.8608L12.7887 15.2549L12.2755 16.2094L12.5673 15.1658L11.9013 15.3659L12.5072 15.0247L11.5527 14.5115L12.5965 14.8029L12.3963 14.1373L12.7376 14.7428L13.2507 13.7887L12.9589 14.8324L13.6248 14.6322L13.0195 14.9733L13.9735 15.4866L12.9301 15.195Z" fill="url(#paint12_radial_1020_6019)"/>
<path d="M9.7818 2.80205C9.4331 2.71126 9.22743 2.91751 9.3217 3.26346L10.4923 7.55921C10.5866 7.90518 10.9446 8.25822 11.2933 8.34902L22.3386 11.225C22.6844 11.315 22.893 11.1095 22.7987 10.7636L21.6281 6.46783C21.5338 6.12188 21.1729 5.76808 20.8271 5.67804L9.7818 2.80205Z" fill="url(#paint13_linear_1020_6019)"/>
<path d="M9.31841 2.98862C9.26711 3.17203 9.36045 3.35194 9.40051 3.53028L9.70027 4.60643L10.2998 6.75872L10.4514 7.29631C10.5056 7.4765 10.5405 7.65799 10.6464 7.80494C10.7461 7.95516 10.88 8.08339 11.0313 8.17903C11.1805 8.28115 11.3565 8.31185 11.5406 8.35745C20.4619 10.5475 17.3849 9.79212 18.0506 9.95552C22.5273 11.0795 22.4285 11.1017 22.5616 11.0641C22.6641 11.0289 22.6635 10.913 22.6352 10.8084C22.6229 10.7623 22.2526 9.3723 22.2757 9.45921C22.2635 9.41315 21.5122 6.58671 21.5583 6.76013C21.4973 6.55633 21.5024 6.45491 21.3906 6.27472C21.2672 6.07561 21.0485 5.88026 20.8252 5.80681C20.7793 5.79411 18.2478 5.09401 18.4078 5.13826L14.0992 3.95245L9.78137 2.802L20.8266 5.67799C21.1724 5.76803 21.5334 6.12182 21.6277 6.46778L22.7983 10.7635C22.8926 11.1095 22.684 11.315 22.3382 11.225L11.2929 8.34898C10.9442 8.25818 10.5861 7.90512 10.4919 7.55915L9.32128 3.26343C9.30157 3.19106 9.29773 3.12655 9.30282 3.06785C9.30416 3.05177 9.30528 3.03571 9.30853 3.01955C9.31088 3.00854 9.31516 2.99898 9.31841 2.98862Z" fill="url(#paint14_radial_1020_6019)"/>
<path d="M10.8075 8.05615L8.51172 11.1832C8.9708 11.6358 8.53716 11.2943 20.0576 14.3647C20.2307 14.4096 20.3716 14.3769 20.4546 14.2928L22.7359 11.1572C22.653 11.2413 22.5121 11.2682 22.3389 11.2234C10.661 8.11956 11.2385 8.48105 10.8075 8.05615Z" fill="url(#paint15_linear_1020_6019)"/>
<path d="M9.38276 2.87048L6.7632 4.75789C6.68028 4.84199 6.65247 4.98043 6.69976 5.15291C8.33 10.8975 8.08429 10.7444 8.51184 11.1832L10.8077 8.05615C10.6569 7.91323 10.5405 7.73547 10.4902 7.56014L9.32218 3.26261C9.27488 3.09012 9.29984 2.95459 9.38276 2.87048Z" fill="url(#paint16_linear_1020_6019)"/>
<path d="M9.43943 10.9058L20.4849 13.7827C20.6531 13.8263 20.7899 13.7957 20.8736 13.7168L20.4546 14.2927C20.3716 14.3769 20.2307 14.4095 20.0576 14.3647C8.56166 11.3008 8.96843 11.6335 8.51172 11.1832L8.93899 10.6012C9.05941 10.6966 9.18452 10.8368 9.43943 10.9058Z" fill="url(#paint17_linear_1020_6019)"/>
<path d="M7.12703 4.57097C8.75725 10.3155 8.51153 10.1625 8.9391 10.6012L8.51183 11.1832C8.08376 10.7439 8.33161 10.9032 6.69976 5.15293C6.65246 4.98046 6.68029 4.84201 6.76321 4.75791L7.11523 4.50427C7.11894 4.5264 7.1206 4.54753 7.12703 4.57097Z" fill="url(#paint18_linear_1020_6019)"/>
<path d="M21.7249 6.82362L22.7986 10.7635C22.8928 11.1095 22.6843 11.315 22.3385 11.225L11.2932 8.34898C10.9445 8.25817 10.5864 7.90513 10.4921 7.55916L9.67676 4.56689C9.67676 4.56689 16.769 9.159 21.7249 6.82362Z" fill="url(#paint19_radial_1020_6019)"/>
<path d="M20.6226 10.7769L18.1699 13.873L16.9546 13.5565L18.2874 10.1699L20.6226 10.7769Z" fill="url(#paint20_radial_1020_6019)"/>
<path d="M15.1889 9.3635L13.0819 12.5479L12.4126 12.3736L13.0807 8.81506L15.1889 9.3635Z" fill="url(#paint21_radial_1020_6019)"/>
<path d="M8.93896 10.6013C9.27178 10.96 9.58216 10.9389 10.308 11.1758L11.7541 11.5775L14.6536 12.3536C16.3852 12.7845 17.731 13.1592 20.4849 13.7828C17.7857 12.9865 16.4355 12.6589 14.6977 12.186L11.7881 11.449C11.7417 11.438 9.45292 10.8908 9.59806 10.9255C9.34962 10.8875 9.12187 10.7754 8.93896 10.6013Z" fill="url(#paint22_radial_1020_6019)"/>
<path d="M7.12695 4.57104C7.33504 5.6068 7.60772 6.62481 7.87505 7.64433C8.64573 10.3339 8.61668 10.3121 8.93903 10.6013C8.6687 10.2789 8.67758 10.1176 8.62365 9.89883L8.43908 9.12985C8.13436 7.88446 7.5639 5.82986 7.12695 4.57104Z" fill="url(#paint23_radial_1020_6019)"/>
<path d="M19.2499 10.3943L18.7869 10.6478L19.2945 10.5021L19.0631 11.2918L19.4617 10.5719L19.7151 11.0352L19.5695 10.5276L20.3592 10.759L19.6394 10.3601L20.1025 10.1069L19.5951 10.2524L19.8264 9.46289L19.4277 10.1828L19.1743 9.71953L19.3199 10.2267L18.5303 9.99569L19.2499 10.3943Z" fill="url(#paint24_radial_1020_6019)"/>
<path d="M10.1776 6.35487L9.33732 6.81491L10.2584 6.55053L9.83847 7.9837L10.562 6.67723L11.0218 7.51796L10.7574 6.59688L12.1906 7.0168L10.8843 6.29284L11.7249 5.83346L10.804 6.09738L11.2237 4.66467L10.5002 5.97114L10.0404 5.13041L10.3045 6.05083L8.87158 5.63157L10.1776 6.35487Z" fill="url(#paint25_radial_1020_6019)"/>
<defs>
<linearGradient id="paint0_linear_1020_6019" x1="14.1808" y1="15.9106" x2="2.74642" y2="8.94019" gradientUnits="userSpaceOnUse">
<stop stop-color="#FEF328"/>
<stop offset="0.886487" stop-color="#D67011"/>
</linearGradient>
<radialGradient id="paint1_radial_1020_6019" cx="0" cy="0" r="1" gradientUnits="userSpaceOnUse" gradientTransform="translate(3.20333 15.6434) scale(11.4711)">
<stop offset="0.306307" stop-color="white"/>
<stop offset="1" stop-color="white" stop-opacity="0"/>
</radialGradient>
<linearGradient id="paint2_linear_1020_6019" x1="7.25865" y1="14.7445" x2="5.51707" y2="19.4839" gradientUnits="userSpaceOnUse">
<stop stop-color="#FEF328"/>
<stop offset="0.886487" stop-color="#D67011"/>
</linearGradient>
<linearGradient id="paint3_linear_1020_6019" x1="14.3621" y1="19.1999" x2="15.693" y2="15.5786" gradientUnits="userSpaceOnUse">
<stop stop-color="#FEF328"/>
<stop offset="0.886487" stop-color="#D67011"/>
</linearGradient>
<linearGradient id="paint4_linear_1020_6019" x1="4.21698" y1="16.9715" x2="10.6032" y2="19.3783" gradientUnits="userSpaceOnUse">
<stop stop-color="#FEF328"/>
<stop offset="0.886487" stop-color="#D67011"/>
</linearGradient>
<linearGradient id="paint5_linear_1020_6019" x1="14.0053" y1="21.1108" x2="15.0853" y2="18.1733" gradientUnits="userSpaceOnUse">
<stop stop-color="#FEF328"/>
<stop offset="0.886487" stop-color="#D67011"/>
</linearGradient>
<radialGradient id="paint6_radial_1020_6019" cx="0" cy="0" r="1" gradientUnits="userSpaceOnUse" gradientTransform="translate(6.58415 12.8014) scale(7.67774)">
<stop offset="0.306307" stop-color="#FFFD83" stop-opacity="0.3"/>
<stop offset="0.716099" stop-color="#FFFECB" stop-opacity="0.123"/>
<stop offset="1" stop-color="white" stop-opacity="0"/>
</radialGradient>
<radialGradient id="paint7_radial_1020_6019" cx="0" cy="0" r="1" gradientUnits="userSpaceOnUse" gradientTransform="translate(2.04681 15.9644) scale(5.70838 9.97824)">
<stop offset="0.306307" stop-color="#FFFD83" stop-opacity="0.5"/>
<stop offset="0.716099" stop-color="#FFFECB" stop-opacity="0.205"/>
<stop offset="1" stop-color="white" stop-opacity="0"/>
</radialGradient>
<radialGradient id="paint8_radial_1020_6019" cx="0" cy="0" r="1" gradientUnits="userSpaceOnUse" gradientTransform="translate(6.75305 17.529) scale(4.95577 4.80214)">
<stop offset="0.306307" stop-color="#FFFD83" stop-opacity="0.5"/>
<stop offset="0.716099" stop-color="#FFFECB" stop-opacity="0.205"/>
<stop offset="1" stop-color="white" stop-opacity="0"/>
</radialGradient>
<radialGradient id="paint9_radial_1020_6019" cx="0" cy="0" r="1" gradientUnits="userSpaceOnUse" gradientTransform="translate(6.64952 17.5852) scale(4.23442)">
<stop offset="0.306307" stop-color="white"/>
<stop offset="1" stop-color="white" stop-opacity="0"/>
</radialGradient>
<radialGradient id="paint10_radial_1020_6019" cx="0" cy="0" r="1" gradientUnits="userSpaceOnUse" gradientTransform="translate(14.6394 18.9958) scale(2.22657)">
<stop offset="0.306307" stop-color="white"/>
<stop offset="1" stop-color="white" stop-opacity="0"/>
</radialGradient>
<radialGradient id="paint11_radial_1020_6019" cx="0" cy="0" r="1" gradientUnits="userSpaceOnUse" gradientTransform="translate(4.00566 14.0578) rotate(21.9503) scale(0.711773)">
<stop offset="0.306306" stop-color="white"/>
<stop offset="1" stop-color="white" stop-opacity="0"/>
</radialGradient>
<radialGradient id="paint12_radial_1020_6019" cx="0" cy="0" r="1" gradientUnits="userSpaceOnUse" gradientTransform="translate(12.7367 15.014) rotate(21.9503) scale(1.30575)">
<stop offset="0.306306" stop-color="white"/>
<stop offset="1" stop-color="white" stop-opacity="0"/>
</radialGradient>
<linearGradient id="paint13_linear_1020_6019" x1="10.5463" y1="5.72103" x2="23.5809" y2="8.78505" gradientUnits="userSpaceOnUse">
<stop stop-color="#FEF328"/>
<stop offset="0.886487" stop-color="#D67011"/>
</linearGradient>
<radialGradient id="paint14_radial_1020_6019" cx="0" cy="0" r="1" gradientUnits="userSpaceOnUse" gradientTransform="translate(18.5498 13.2366) rotate(-135.405) scale(11.4696)">
<stop offset="0.306307" stop-color="white"/>
<stop offset="1" stop-color="white" stop-opacity="0"/>
</radialGradient>
<linearGradient id="paint15_linear_1020_6019" x1="16.2933" y1="9.7503" x2="14.2066" y2="14.347" gradientUnits="userSpaceOnUse">
<stop stop-color="#FEF328"/>
<stop offset="0.886487" stop-color="#D67011"/>
</linearGradient>
<linearGradient id="paint16_linear_1020_6019" x1="8.10803" y1="7.93585" x2="9.7026" y2="4.42322" gradientUnits="userSpaceOnUse">
<stop stop-color="#FEF328"/>
<stop offset="0.886487" stop-color="#D67011"/>
</linearGradient>
<linearGradient id="paint17_linear_1020_6019" x1="16.8956" y1="13.4712" x2="10.659" y2="10.7016" gradientUnits="userSpaceOnUse">
<stop stop-color="#FEF328"/>
<stop offset="0.886487" stop-color="#D67011"/>
</linearGradient>
<linearGradient id="paint18_linear_1020_6019" x1="7.02093" y1="9.54664" x2="8.31346" y2="6.69697" gradientUnits="userSpaceOnUse">
<stop stop-color="#FEF328"/>
<stop offset="0.886487" stop-color="#D67011"/>
</linearGradient>
<radialGradient id="paint19_radial_1020_6019" cx="0" cy="0" r="1" gradientUnits="userSpaceOnUse" gradientTransform="translate(18.1376 8.84014) rotate(-135.405) scale(7.67677)">
<stop offset="0.306307" stop-color="#FFFD83" stop-opacity="0.3"/>
<stop offset="0.716099" stop-color="#FFFECB" stop-opacity="0.123"/>
<stop offset="1" stop-color="white" stop-opacity="0"/>
</radialGradient>
<radialGradient id="paint20_radial_1020_6019" cx="0" cy="0" r="1" gradientUnits="userSpaceOnUse" gradientTransform="translate(19.1028 14.1918) rotate(-135.405) scale(5.70766 9.97618)">
<stop offset="0.306307" stop-color="#FFFD83" stop-opacity="0.5"/>
<stop offset="0.716099" stop-color="#FFFECB" stop-opacity="0.205"/>
<stop offset="1" stop-color="white" stop-opacity="0"/>
</radialGradient>
<radialGradient id="paint21_radial_1020_6019" cx="0" cy="0" r="1" gradientUnits="userSpaceOnUse" gradientTransform="translate(14.6908 12.111) rotate(-135.405) scale(4.95515 4.80263)">
<stop offset="0.306307" stop-color="#FFFD83" stop-opacity="0.5"/>
<stop offset="0.716099" stop-color="#FFFECB" stop-opacity="0.205"/>
<stop offset="1" stop-color="white" stop-opacity="0"/>
</radialGradient>
<radialGradient id="paint22_radial_1020_6019" cx="0" cy="0" r="1" gradientUnits="userSpaceOnUse" gradientTransform="translate(14.7328 12.2005) rotate(-135.405) scale(4.23388)">
<stop offset="0.306307" stop-color="white"/>
<stop offset="1" stop-color="white" stop-opacity="0"/>
</radialGradient>
<radialGradient id="paint23_radial_1020_6019" cx="0" cy="0" r="1" gradientUnits="userSpaceOnUse" gradientTransform="translate(8.054 7.59599) rotate(-135.405) scale(2.22674)">
<stop offset="0.306307" stop-color="white"/>
<stop offset="1" stop-color="white" stop-opacity="0"/>
</radialGradient>
<radialGradient id="paint24_radial_1020_6019" cx="0" cy="0" r="1" gradientUnits="userSpaceOnUse" gradientTransform="translate(19.4312 10.4059) rotate(-157.358) scale(0.990869)">
<stop offset="0.306306" stop-color="white"/>
<stop offset="1" stop-color="white" stop-opacity="0"/>
</radialGradient>
<radialGradient id="paint25_radial_1020_6019" cx="0" cy="0" r="1" gradientUnits="userSpaceOnUse" gradientTransform="translate(10.5162 6.35449) rotate(-157.358) scale(1.79833)">
<stop offset="0.306306" stop-color="white"/>
<stop offset="1" stop-color="white" stop-opacity="0"/>
</radialGradient>
</defs>
</svg>
