<svg width="18" height="19" viewBox="0 0 18 19" fill="none" xmlns="http://www.w3.org/2000/svg">
<path d="M16.6079 8.01993H9.9106C9.61528 8.01993 9.37622 8.25899 9.37622 8.5543V10.6953C9.37622 10.9906 9.61528 11.2297 9.9106 11.2297H13.6829C13.2715 12.302 12.4981 13.1984 11.5172 13.768L13.1239 16.5524C15.7008 15.0617 17.2266 12.4426 17.2266 9.51407C17.2266 9.09571 17.195 8.79688 17.1352 8.4629C17.086 8.20626 16.8645 8.01993 16.6079 8.01993Z" fill="#167EE6"/>
<path d="M9.01768 14.443C7.17197 14.443 5.56182 13.434 4.69697 11.9434L1.9126 13.5465C3.32939 16.0039 5.98369 17.6562 9.01768 17.6562C10.5083 17.6562 11.911 17.2555 13.1239 16.5559V16.5523L11.5173 13.768C10.779 14.1969 9.92822 14.443 9.01768 14.443Z" fill="#12B347"/>
<path d="M13.1203 16.5559V16.5524L11.5137 13.768C10.7789 14.1934 9.92812 14.443 9.01758 14.443V17.6563C10.5082 17.6563 11.9109 17.2555 13.1203 16.5559Z" fill="#0F993E"/>
<path d="M4.02188 9.44727C4.02188 8.53673 4.27148 7.68594 4.69688 6.95118L1.9125 5.34805C1.20938 6.55391 0.808594 7.95313 0.808594 9.44727C0.808594 10.9414 1.20938 12.3406 1.9125 13.5465L4.69688 11.9434C4.26797 11.2086 4.02188 10.3578 4.02188 9.44727Z" fill="#FFD500"/>
<path d="M9.01768 4.45156C10.22 4.45156 11.3274 4.88047 12.1888 5.59063C12.4032 5.76641 12.7126 5.75234 12.906 5.55898L14.4212 4.04375C14.6427 3.82227 14.6251 3.46016 14.3896 3.25625C12.9446 1.99766 11.0638 1.23828 9.01768 1.23828C5.98369 1.23828 3.32939 2.89062 1.9126 5.34805L4.69697 6.95117C5.56182 5.46055 7.17197 4.45156 9.01768 4.45156Z" fill="#FF4B26"/>
<path d="M12.1887 5.59063C12.4031 5.76641 12.7125 5.75234 12.9059 5.55898L14.4211 4.04375C14.6426 3.82227 14.625 3.46016 14.3895 3.25625C12.9445 1.99766 11.0637 1.23828 9.01758 1.23828V4.45156C10.2199 4.45156 11.3273 4.87695 12.1887 5.59063Z" fill="#D93F21"/>
</svg>
