<svg width="48" height="48" viewBox="0 0 48 48" fill="none" xmlns="http://www.w3.org/2000/svg">
<g clip-path="url(#clip0_786_145)">
<path d="M36.769 26.8505C35.9918 26.8505 35.3617 26.2204 35.3617 25.4432C35.3617 24.666 35.9918 24.0358 36.769 24.0358H38.6192C38.6195 24.039 38.6197 24.0423 38.62 24.0456C38.62 24.0424 38.6204 24.0388 38.6201 24.0358C38.3559 21.0346 37.022 18.2522 34.8131 16.1298C33.7093 15.0693 32.4452 14.229 31.0777 13.6306L30.8133 16.7707C30.6306 18.9396 28.7826 20.6386 26.6061 20.6386H21.3941C19.2176 20.6386 17.3695 18.9396 17.1869 16.7708L16.9225 13.6306C15.5551 14.229 14.2909 15.0692 13.1872 16.1297C10.9782 18.2523 9.64413 21.0347 9.38002 24.0359C9.37983 24.038 9.3804 24.0406 9.3804 24.0428C9.38058 24.0405 9.38068 24.0383 9.38087 24.036H11.366C12.1432 24.036 12.7733 24.6661 12.7733 25.4434C12.7733 26.2206 12.1432 26.8507 11.366 26.8507H9.33142V40.8272C9.33142 41.0002 9.41924 41.1578 9.56635 41.2489L20.3529 47.9259C20.4315 47.9745 20.5217 48.0001 20.614 48.0001C20.6969 48.0001 20.779 47.9791 20.8517 47.9394C21.008 47.854 21.1068 47.6904 21.1097 47.5123L21.2646 38.0116C21.2668 37.8837 21.2201 37.7615 21.1335 37.6674L17.1777 33.3729C17.0181 33.1998 16.9295 32.9728 16.9295 32.7373V27.6219C16.9295 27.2009 17.441 26.993 17.7347 27.2946L23.6449 33.3648C23.7376 33.46 23.8671 33.5147 24 33.5147C24.133 33.5147 24.2626 33.4601 24.3553 33.3647L30.2652 27.2947C30.5588 26.9931 31.0704 27.201 31.0704 27.622V32.7374C31.0704 32.9729 30.9818 33.1998 30.8222 33.373L26.8663 37.6675C26.7797 37.7615 26.7332 37.8838 26.7353 38.0116L26.8902 47.5124C26.8931 47.6905 26.9919 47.8541 27.1481 47.9394C27.2209 47.9792 27.3032 48.0002 27.3859 48.0002C27.4783 48.0002 27.5684 47.9745 27.6469 47.926L38.4336 41.2489C38.5806 41.1579 38.6685 41.0003 38.6685 40.8273V26.8505H36.769Z" fill="#E7EAFC"/>
<path d="M26.6059 17.8236H21.394C20.6626 17.8236 20.053 17.2632 19.9917 16.5343L18.728 1.52538C18.6588 0.704519 19.3065 0 20.1303 0H27.8696C28.6935 0 29.3412 0.704519 29.272 1.52538L28.0083 16.5343C27.9469 17.2632 27.3374 17.8236 26.6059 17.8236Z" fill="#E7EAFC"/>
</g>
<defs>
<clipPath id="clip0_786_145">
<rect width="48" height="48" fill="white"/>
</clipPath>
</defs>
</svg>
