<svg width="32" height="32" viewBox="0 0 32 32" fill="none" xmlns="http://www.w3.org/2000/svg">
<path fill-rule="evenodd" clip-rule="evenodd" d="M28.2353 6.42675L23.3085 11.3533C24.9721 13.5809 25.8611 16.2661 25.8611 19.0696C25.8611 22.5213 24.5146 25.7719 22.0737 28.2126C19.6327 30.6532 16.3824 32 12.9307 32C9.47894 32 6.22819 30.6533 3.78744 28.2126C1.34669 25.7718 0 22.5213 0 19.0696C0 15.6178 1.34656 12.3671 3.78737 9.92631C6.22806 7.48563 9.479 6.13888 12.9306 6.13888C15.7341 6.13888 18.4189 7.02819 20.6467 8.69137L25.5732 3.76475H23.6187C22.5794 3.76475 21.7364 2.92163 21.7364 1.88238C21.7364 0.843125 22.5795 0 23.6188 0H30.1176C31.1569 0 32 0.843125 32 1.88238V8.38119C32 9.42044 31.1569 10.2636 30.1176 10.2636C29.0783 10.2636 28.2353 9.42044 28.2353 8.38119V6.42675ZM19.4116 25.5511C21.1442 23.8186 22.0963 21.5198 22.0963 19.0696C22.0963 16.6197 21.1441 14.3207 19.4116 12.5885C17.6793 10.8564 15.3804 9.90369 12.9307 9.90369C10.4804 9.90369 8.18156 10.8559 6.44887 12.5884C4.71656 14.3206 3.76469 16.6199 3.76469 19.0696C3.76469 21.5196 4.71644 23.8186 6.44887 25.5511C8.18137 27.2836 10.4805 28.2355 12.9306 28.2355C15.3803 28.2355 17.6794 27.2831 19.4116 25.5511Z" fill="white"/>
</svg>
