<svg width="20" height="17" viewBox="0 0 20 17" fill="none" xmlns="http://www.w3.org/2000/svg">
<g clip-path="url(#clip0_1032_5948)">
<path d="M18.3927 0.515137L11.2595 5.52241L12.5895 2.57059L18.3927 0.515137Z" fill="#E17726" stroke="#E17726" stroke-width="0.25" stroke-linecap="round" stroke-linejoin="round"/>
<path d="M1.94402 0.515137L9.01202 5.56362L7.74717 2.57574L1.94402 0.515137ZM15.8249 12.1215L13.9249 14.8724L17.9909 15.9336L19.1526 12.1833L15.8249 12.1215ZM1.18945 12.1833L2.34574 15.9336L6.40088 14.8724L4.51174 12.1215L1.18945 12.1833Z" fill="#E27625" stroke="#E27625" stroke-width="0.25" stroke-linecap="round" stroke-linejoin="round"/>
<path d="M6.18383 7.47485L5.05469 9.09243L9.07183 9.26758L8.94154 5.16182L6.18383 7.48V7.47485ZM14.153 7.48L11.3518 5.11031L11.2595 9.26758L15.2767 9.09243L14.153 7.48ZM6.40097 14.8724L8.8384 13.7597L6.74297 12.2142L6.40097 14.8724ZM11.5038 13.7545L13.925 14.8724L13.5993 12.2091L11.5038 13.7545Z" fill="#E27625" stroke="#E27625" stroke-width="0.25" stroke-linecap="round" stroke-linejoin="round"/>
<path d="M13.9249 14.8724L11.5037 13.7597L11.6992 15.2536L11.6775 15.8873L13.9249 14.8724ZM6.40088 14.8724L8.65916 15.8873L8.64288 15.2536L8.83831 13.7597L6.40088 14.8724Z" fill="#D5BFB2" stroke="#D5BFB2" stroke-width="0.25" stroke-linecap="round" stroke-linejoin="round"/>
<path d="M8.69705 11.22L6.68848 10.6636L8.11076 10.0455L8.70248 11.22H8.69705ZM11.6339 11.22L12.231 10.0403L13.6588 10.6585L11.6339 11.2251V11.22Z" fill="#233447" stroke="#233447" stroke-width="0.25" stroke-linecap="round" stroke-linejoin="round"/>
<path d="M6.40086 14.8724L6.75372 12.1215L4.51172 12.1833L6.40086 14.8724ZM13.5829 12.1215L13.9249 14.8724L15.8249 12.1833L13.5829 12.1215ZM15.282 9.09242L11.2649 9.26757L11.634 11.2252L12.2311 10.0403L13.6589 10.6585L15.282 9.09242ZM6.68858 10.6636L8.11086 10.0455L8.70258 11.22L9.07715 9.26242L5.06 9.09242L6.68858 10.6636Z" fill="#CC6228" stroke="#CC6228" stroke-width="0.25" stroke-linecap="round" stroke-linejoin="round"/>
<path d="M5.06006 9.09242L6.74292 12.2091L6.68863 10.6636L5.06006 9.09242ZM13.6589 10.6636L13.5938 12.2091L15.2766 9.09242L13.6589 10.6636ZM9.0772 9.26757L8.6972 11.2252L9.17492 13.533L9.28349 10.4885L9.0772 9.26757ZM11.2595 9.26757L11.0641 10.4833L11.1618 13.533L11.6341 11.22L11.2595 9.26242V9.26757Z" fill="#E27525" stroke="#E27525" stroke-width="0.25" stroke-linecap="round" stroke-linejoin="round"/>
<path d="M11.634 11.22L11.1617 13.533L11.5037 13.7597L13.5937 12.2142L13.6588 10.6636L11.634 11.22ZM6.68853 10.6636L6.74282 12.2091L8.83825 13.7545L9.17482 13.533L8.70253 11.22L6.68311 10.6636H6.68853Z" fill="#F5841F" stroke="#F5841F" stroke-width="0.25" stroke-linecap="round" stroke-linejoin="round"/>
<path d="M11.6829 15.8873L11.6992 15.2536L11.5146 15.1094H8.82202L8.64288 15.2536L8.65916 15.8873L6.40088 14.8724L7.19345 15.4906L8.79488 16.5364H11.5363L13.1432 15.4855L13.9249 14.8724L11.6775 15.8873H11.6829Z" fill="#C0AC9D" stroke="#C0AC9D" stroke-width="0.25" stroke-linecap="round" stroke-linejoin="round"/>
<path d="M11.5037 13.7546L11.1617 13.533H9.17482L8.83825 13.7597L8.64282 15.2536L8.82197 15.1094H11.5145L11.6991 15.2536L11.5037 13.7597V13.7546Z" fill="#161616" stroke="#161616" stroke-width="0.25" stroke-linecap="round" stroke-linejoin="round"/>
<path d="M18.6967 5.84695L19.2938 3.09089L18.3927 0.515137L11.4984 5.35756L14.153 7.47483L17.8987 8.51029L18.7238 7.59847L18.3655 7.3512L18.9355 6.85665L18.5013 6.53726L19.0713 6.12514L18.6913 5.84695H18.6967ZM1.04297 3.08574L1.65097 5.84695L1.26011 6.11999L1.84097 6.53211L1.40668 6.85665L1.97125 7.3512L1.61297 7.59847L2.43811 8.51029L6.18383 7.47999L8.8384 5.35241L1.94411 0.515137L1.04297 3.08574Z" fill="#763E1A" stroke="#763E1A" stroke-width="0.25" stroke-linecap="round" stroke-linejoin="round"/>
<path d="M17.8986 8.51031L14.1529 7.48001L15.282 9.09244L13.5992 12.2091L15.8249 12.1833H19.1526L17.8986 8.51031ZM6.18374 7.47486L2.43802 8.51031L1.18945 12.1833H4.51717L6.74288 12.2091L5.06002 9.09244L6.18917 7.47486H6.18374ZM11.2595 9.26759L11.5037 5.35244L12.5895 2.57062H7.74717L8.83288 5.35244L9.07717 9.26759L9.16945 10.4936V13.533H11.1617L11.1726 10.4936L11.2595 9.26759Z" fill="#F5841F" stroke="#F5841F" stroke-width="0.25" stroke-linecap="round" stroke-linejoin="round"/>
</g>
<defs>
<clipPath id="clip0_1032_5948">
<rect width="19" height="17" fill="white" transform="translate(0.5)"/>
</clipPath>
</defs>
</svg>
