<svg width="19" height="19" viewBox="0 0 19 19" fill="none" xmlns="http://www.w3.org/2000/svg">
<path fill-rule="evenodd" clip-rule="evenodd" d="M14.2551 12.4348C13.8764 10.8253 12.4401 9.6875 10.7871 9.6875C9.96214 9.6875 9.03815 9.6875 8.21315 9.6875C6.56015 9.6875 5.12389 10.8253 4.74514 12.4348C4.54639 13.2815 4.32364 14.228 4.13614 15.0283C3.99139 15.6418 4.13539 16.2868 4.52689 16.781C4.91839 17.2745 5.51389 17.5625 6.14389 17.5625H12.8564C13.4864 17.5625 14.0819 17.2745 14.4734 16.781C14.8649 16.2868 15.0089 15.6418 14.8641 15.0283L14.2551 12.4348Z" fill="#E7EAFC"/>
<path fill-rule="evenodd" clip-rule="evenodd" d="M13.0625 4.25C13.0625 2.69675 11.8033 1.4375 10.25 1.4375H8.75C7.19675 1.4375 5.9375 2.69675 5.9375 4.25V5.75C5.9375 6.695 6.3125 7.601 6.98075 8.26925C7.649 8.9375 8.555 9.3125 9.5 9.3125C11.4672 9.3125 13.0625 7.71725 13.0625 5.75V4.25Z" fill="#E7EAFC"/>
<path fill-rule="evenodd" clip-rule="evenodd" d="M15.1023 8.3975L16.2041 9.5L15.1023 10.6025C14.8826 10.8215 14.8826 11.1785 15.1023 11.3975C15.3213 11.6172 15.6783 11.6172 15.8973 11.3975L17.3973 9.8975C17.6171 9.67774 17.6171 9.32225 17.3973 9.1025L15.8973 7.6025C15.6783 7.38275 15.3213 7.38275 15.1023 7.6025C14.8826 7.8215 14.8826 8.1785 15.1023 8.3975Z" fill="#E7EAFC"/>
<path fill-rule="evenodd" clip-rule="evenodd" d="M3.10231 7.6025L1.60231 9.1025C1.38256 9.32225 1.38256 9.67774 1.60231 9.8975L3.10231 11.3975C3.32131 11.6172 3.67831 11.6172 3.89731 11.3975C4.11706 11.1785 4.11706 10.8215 3.89731 10.6025L2.79556 9.5L3.89731 8.3975C4.11706 8.1785 4.11706 7.8215 3.89731 7.6025C3.67831 7.38275 3.32131 7.38275 3.10231 7.6025Z" fill="#E7EAFC"/>
</svg>
