<svg width="20" height="12" viewBox="0 0 20 12" fill="none" xmlns="http://www.w3.org/2000/svg">
<path d="M9.7887 1.86916C9.3087 1.04906 8.4486 0.55896 7.4984 0.55896C6.5482 0.55896 5.6882 1.04906 5.2082 1.86916L0.0675 10.6903C-0.0225 10.8403 -0.0225 11.0303 0.0675 11.1904C0.1575 11.3404 0.3175 11.4404 0.4975 11.4404H6.9883L11.1788 4.24946L9.7887 1.86916ZM4.4981 9.44016C4.218 9.44016 3.998 9.22006 3.998 8.94006C3.998 8.65996 4.218 8.43996 4.4981 8.43996C4.7782 8.43996 4.9982 8.65996 4.9982 8.94006C4.9981 9.22006 4.7782 9.44016 4.4981 9.44016ZM6.4983 5.43966C6.2182 5.43966 5.9982 5.21956 5.9982 4.93956C5.9982 4.65946 6.2182 4.43946 6.4983 4.43946C6.7784 4.43946 6.9984 4.65946 6.9984 4.93956C6.9984 5.21956 6.7784 5.43966 6.4983 5.43966ZM7.4985 8.44006C7.2184 8.44006 6.9984 8.21996 6.9984 7.93996C6.9984 7.65986 7.2184 7.43986 7.4985 7.43986C7.7786 7.43986 7.9986 7.65986 7.9986 7.93996C7.9985 8.21996 7.7785 8.44006 7.4985 8.44006ZM19.93 10.6904L16.5396 4.86966C16.0596 4.04956 15.1995 3.55946 14.2493 3.55946C13.3492 3.55946 12.5291 3.99956 12.039 4.74966L8.1385 11.4406H19.5C19.68 11.4406 19.8401 11.3406 19.93 11.1906C20.0201 11.0304 20.0201 10.8404 19.93 10.6904ZM13.4992 7.43996C13.2191 7.43996 12.9991 7.21986 12.9991 6.93986C12.9991 6.65976 13.2191 6.43976 13.4992 6.43976C13.7793 6.43976 13.9993 6.65976 13.9993 6.93986C13.9993 7.21986 13.7793 7.43996 13.4992 7.43996ZM15.4995 9.44016C15.2194 9.44016 14.9994 9.22006 14.9994 8.94006C14.9994 8.65996 15.2194 8.43996 15.4995 8.43996C15.7796 8.43996 15.9996 8.65996 15.9996 8.94006C15.9996 9.22006 15.7796 9.44016 15.4995 9.44016Z" fill="#B265FF"/>
</svg>
