<svg width="64" height="64" viewBox="0 0 64 64" fill="none" xmlns="http://www.w3.org/2000/svg">
<path d="M31.9997 0C14.327 0 0 14.327 0 31.9997C0 49.6725 14.327 63.9995 31.9997 63.9995C49.6725 63.9995 63.9995 49.6725 63.9995 31.9997C63.9995 14.327 49.673 0 31.9997 0ZM31.9997 63.2809C14.7238 63.2809 0.719125 49.2762 0.719125 31.9997C0.719125 14.7233 14.7238 0.719125 31.9997 0.719125C49.2756 0.719125 63.2809 14.7238 63.2809 32.0003C63.2809 49.2767 49.2762 63.2814 31.9997 63.2814V63.2809Z" fill="#E7EAFC"/>
<path d="M31.9994 7.1532C18.2769 7.1532 7.15234 18.2777 7.15234 32.0003C7.15234 45.7228 18.2769 56.8473 31.9994 56.8473C45.722 56.8473 56.8465 45.7228 56.8465 32.0003C56.8465 18.2777 45.722 7.1532 31.9994 7.1532ZM31.9994 56.0944C18.6927 56.0944 7.90528 45.307 7.90528 32.0003C7.90528 18.6935 18.6927 7.90561 31.9994 7.90561C45.3061 7.90561 56.0935 18.693 56.0935 31.9997C56.0935 45.3064 45.3061 56.0938 31.9994 56.0938V56.0944Z" fill="#E7EAFC"/>
<path d="M60.8335 27.6549L60.1387 27.7589C60.3109 28.9288 60.4145 30.1087 60.4446 31.2906L58.3374 31.3424C58.2941 29.5893 58.078 27.8424 57.6896 26.1347L60.4298 25.5117C60.4055 25.3929 60.3738 25.2761 60.3458 25.1577L60.2597 24.8043C60.2423 24.7303 60.2227 24.6574 60.2026 24.5844L60.1434 24.3652L60.0843 24.1459C60.0647 24.0724 60.0446 23.9995 60.0224 23.9271C59.9353 23.6371 59.8534 23.3454 59.7567 23.058L59.6156 22.6257L59.4645 22.1972L59.3889 21.9827L59.3086 21.7703L59.1469 21.3455L58.4928 21.6023L58.6502 22.017L58.729 22.2242L58.8024 22.4334L58.9498 22.8519L59.0872 23.2735C59.1818 23.5536 59.2616 23.8384 59.3466 24.1216C59.3683 24.1924 59.3879 24.2637 59.4069 24.335L59.465 24.549L59.5231 24.763C59.5427 24.8344 59.5622 24.9057 59.5786 24.9776L57.5359 25.4964C57.1053 23.7993 56.504 22.1454 55.7426 20.5682L58.2735 19.3471L57.9491 18.6962L57.7372 18.2941L57.631 18.0933L57.52 17.8952L57.2981 17.4983L57.0672 17.1068L56.9515 16.9113C56.9129 16.8463 56.8717 16.7824 56.8321 16.7179L56.5917 16.3327C56.5108 16.2049 56.4258 16.0791 56.3428 15.9523C56.2593 15.826 56.1774 15.6982 56.0903 15.575L55.5101 15.9713C55.5957 16.0918 55.6749 16.2165 55.7568 16.3396C55.8377 16.4632 55.9206 16.5858 55.9994 16.7105L56.234 17.0867C56.2725 17.1496 56.3127 17.212 56.3507 17.2754L56.4638 17.4661L56.6894 17.8481L56.9061 18.2354L57.0144 18.4288L57.1179 18.6248L57.3251 19.0169L55.4504 19.9801C54.6499 18.4225 53.6925 16.9446 52.5987 15.5756L54.7947 13.8219C54.6425 13.6332 54.4924 13.443 54.3339 13.2597L54.0401 12.9131L53.7384 12.5733L53.5878 12.4037L53.433 12.2373L53.1234 11.9049C52.7023 11.4695 52.2764 11.0389 51.8294 10.6294L51.3512 11.1446C51.7871 11.544 52.2035 11.9646 52.614 12.3894L52.9163 12.7139L53.0674 12.8761L53.2148 13.042L53.5091 13.3738L53.7955 13.7125L52.1818 15.0683C51.0548 13.7262 49.7941 12.4967 48.4245 11.403L50.1782 9.20701C49.9912 9.05325 49.7962 8.90847 49.6049 8.76053C49.5447 8.71456 49.485 8.66806 49.4242 8.62262L49.2409 8.48894L48.8736 8.22158L48.5001 7.96267L48.3136 7.83322L48.1239 7.70799L47.7445 7.45807C47.6171 7.3767 47.4877 7.29744 47.3593 7.2166C47.1041 7.05333 46.8404 6.90327 46.5805 6.74846L46.2286 7.35662C46.4827 7.50827 46.7395 7.6541 46.9884 7.81367C47.1136 7.8924 47.2394 7.96954 47.3641 8.04933L47.7344 8.29291L47.9194 8.41497L48.1017 8.54125L48.4663 8.79381L48.8245 9.05483L49.0036 9.18534C49.0628 9.2292 49.1209 9.27517 49.1801 9.31955L47.9062 10.9987C46.5102 9.93934 45.0096 9.0189 43.4319 8.25751L44.6529 5.72657L43.994 5.41852C42.8881 4.9229 41.7537 4.49016 40.595 4.1335L40.3879 4.80507C41.5181 5.15328 42.625 5.57545 43.7045 6.05892L42.8364 7.97958C41.2401 7.25887 39.572 6.69879 37.8643 6.31096L38.4873 3.57078L38.1322 3.49364C38.0138 3.4688 37.8955 3.44027 37.7766 3.41861C36.5878 3.18242 35.3857 3.01492 34.1773 2.92616L34.1255 3.62679C35.3048 3.71397 36.4784 3.87724 37.6382 4.10761L37.2229 6.17411C35.5056 5.82855 33.754 5.65629 31.9993 5.65577V2.8432L31.2728 2.85218C30.0623 2.88336 28.8528 2.98903 27.6544 3.16551L27.7585 3.86033C28.9284 3.68808 30.1088 3.58452 31.2902 3.5544L31.342 5.66158C29.5888 5.70491 27.842 5.92101 26.1343 6.30937L25.5113 3.56919C25.3924 3.5935 25.2757 3.6252 25.1573 3.65321L24.8038 3.73933C24.7298 3.75677 24.6569 3.77632 24.584 3.7964L24.3647 3.85558L24.1455 3.91475C24.072 3.9343 23.9991 3.95438 23.9267 3.97658C23.6366 4.06376 23.345 4.14566 23.0575 4.24235L22.6253 4.38343L22.1968 4.53454L21.9823 4.6101L21.7699 4.69042L21.345 4.8521L21.6018 5.50623L22.0166 5.34878L22.2237 5.27005L22.433 5.1966L22.8515 5.04919L23.2731 4.91181C23.5531 4.81723 23.8379 4.73744 24.1212 4.65237C24.192 4.63071 24.2633 4.61116 24.3346 4.59214L24.5486 4.53402L24.7626 4.47589C24.8339 4.45634 24.9053 4.43679 24.9771 4.42041L25.496 6.46313C23.7988 6.89376 22.145 7.49506 20.5678 8.25645L19.3467 5.72551L18.6958 6.04994L18.2937 6.26182L18.0929 6.36802L17.8947 6.47898L17.4979 6.7009L17.1064 6.9318L16.9109 7.04752C16.8459 7.08609 16.782 7.1273 16.7175 7.16693L16.3323 7.40735C16.2044 7.48819 16.0787 7.57326 15.9519 7.65621C15.8256 7.7397 15.6977 7.82159 15.5746 7.90878L15.9709 8.48894C16.0914 8.40334 16.2161 8.32408 16.3392 8.24219C16.4628 8.16134 16.5854 8.07839 16.7101 7.99966L17.0863 7.76506C17.1492 7.72649 17.2115 7.68633 17.2749 7.64829L17.4657 7.53521L17.8477 7.30959L18.235 7.09296L18.4284 6.98464L18.6244 6.88108L19.0165 6.67395L19.9797 8.54865C18.4221 9.34914 16.9442 10.3066 15.5751 11.4003L13.8214 9.20436C13.6328 9.35654 13.4426 9.5066 13.2593 9.66511L12.9126 9.95889L12.5729 10.2606L12.4033 10.4112L12.2368 10.566L11.9045 10.8756C11.4691 11.2967 11.0385 11.7226 10.629 12.1696L11.1441 12.6478C11.5436 12.2119 11.9642 11.7961 12.389 11.385L12.7134 11.0828L12.8756 10.9316L13.0416 10.7842L13.3734 10.4899L13.7121 10.2035L15.0679 11.8172C13.7258 12.9442 12.4963 14.205 11.4025 15.5745L9.20658 13.8208C9.05282 14.0079 8.90805 14.2028 8.7601 14.3941C8.71413 14.4543 8.66763 14.5141 8.62219 14.5748L8.48851 14.7582L8.22115 15.1254L7.96225 15.499L7.83279 15.6855L7.70757 15.8752L7.45764 16.2545C7.37627 16.3819 7.29702 16.5113 7.21617 16.6397C7.0529 16.8949 6.90284 17.1586 6.74803 17.4186L7.35619 17.7705C7.50784 17.5163 7.6542 17.2595 7.81324 17.0106C7.89197 16.8854 7.96911 16.7597 8.0489 16.635L8.29248 16.2646L8.41454 16.0796L8.54082 15.8974L8.79339 15.5328L9.05441 15.1745L9.18492 14.9954C9.22877 14.9362 9.27474 14.8781 9.31912 14.8189L10.9983 16.0929C9.93891 17.4888 9.01848 18.9894 8.25708 20.5672L5.72614 19.3461L5.4181 20.005C4.92248 21.1109 4.48973 22.2453 4.13308 23.404L4.80465 23.6112C5.15285 22.481 5.57503 21.374 6.05849 20.2945L7.97915 21.1627C7.25844 22.7589 6.69836 24.427 6.31053 26.1347L3.57035 25.5117L3.49321 25.8668C3.46838 25.9852 3.43984 26.1035 3.41818 26.2224C3.18199 27.4113 3.0145 28.6133 2.9252 29.8217L3.62583 29.8735C3.71301 28.6942 3.87628 27.5207 4.10666 26.3609L6.17315 26.7762C5.82759 28.4934 5.65534 30.245 5.65481 31.9997H2.84277L2.85176 32.7262C2.88293 33.9368 2.98861 35.1462 3.16509 36.3446L3.8599 36.2405C3.68765 35.0707 3.58409 33.8908 3.55397 32.7088L5.66115 32.657C5.70448 34.4102 5.92059 36.157 6.30895 37.8647L3.56877 38.4877C3.59307 38.6066 3.62478 38.7234 3.65278 38.8417L3.73891 39.1952C3.75634 39.2692 3.77589 39.3421 3.79597 39.415L3.85515 39.6343L3.91433 39.8536C3.93388 39.927 3.95396 39.9999 3.97615 40.0723C4.06333 40.3624 4.14523 40.6541 4.24192 40.9415L4.383 41.3737L4.53412 41.8022L4.60968 42.0168L4.68999 42.2292L4.85167 42.654L5.50581 42.3972L5.34835 41.9824L5.26962 41.7753L5.19618 41.566L5.04876 41.1476L4.91138 40.7259C4.8168 40.4459 4.73702 40.1611 4.65195 39.8779C4.63028 39.8071 4.61073 39.7357 4.59171 39.6644L4.53359 39.4504L4.47547 39.2364C4.45592 39.1651 4.43637 39.0938 4.41999 39.0219L6.4627 38.503C6.89333 40.2002 7.49463 41.854 8.25602 43.4312L5.72509 44.6523L6.04951 45.3033L6.26139 45.7054L6.36759 45.9062L6.47855 46.1043L6.70047 46.5011L6.93138 46.8926L7.04709 47.0881C7.08566 47.1531 7.12688 47.2171 7.16651 47.2815L7.40692 47.6667C7.48776 47.7946 7.57283 47.9203 7.65578 48.0471C7.73927 48.1734 7.82117 48.3013 7.90835 48.4244L8.48851 48.0281C8.40291 47.9077 8.32366 47.783 8.24176 47.6598C8.16092 47.5362 8.07796 47.4136 7.99923 47.2889L7.76463 46.9127C7.72606 46.8498 7.6859 46.7875 7.64786 46.7241L7.53479 46.5333L7.30917 46.1513L7.09253 45.764L6.98421 45.5706L6.88065 45.3746L6.67353 44.9825L8.54822 44.0193C9.34871 45.577 10.3061 47.0549 11.3999 48.4239L9.20394 50.1776C9.35611 50.3662 9.50617 50.5564 9.66468 50.7398L9.95846 51.0864L10.2602 51.4261L10.4108 51.5957L10.5656 51.7622L10.8752 52.0945C11.2963 52.5299 11.7222 52.9606 12.1692 53.37L12.6474 52.8549C12.2115 52.4554 11.7956 52.0348 11.3846 51.61L11.0823 51.2856L10.9312 51.1234L10.7838 50.9575L10.4895 50.6256L10.2031 50.2869L11.8168 48.9311C12.9438 50.2732 14.2045 51.5028 15.5741 52.5965L13.8204 54.7924C14.0074 54.9462 14.2024 55.091 14.3937 55.2389C14.4539 55.2849 14.5136 55.3314 14.5744 55.3768L14.7577 55.5105L15.125 55.7779L15.4985 56.0368L15.685 56.1662L15.8747 56.2915L16.2541 56.5414C16.3814 56.6228 16.5109 56.702 16.6393 56.7829C16.8945 56.9461 17.1582 57.0962 17.4181 57.251L17.77 56.6428C17.5159 56.4912 17.2591 56.3454 17.0102 56.1858C16.885 56.1071 16.7592 56.0299 16.6345 55.9501L16.2641 55.7065L16.0792 55.5845L15.8969 55.4582L15.5323 55.2056L15.1741 54.9446L14.995 54.8141C14.9358 54.7703 14.8777 54.7243 14.8185 54.6799L16.0924 53.0007C17.4884 54.0601 18.989 54.9805 20.5667 55.7419L19.3457 58.2729L20.0045 58.5809C21.1104 59.0765 22.2449 59.5093 23.4036 59.8659L23.6107 59.1944C22.4805 58.8462 21.3736 58.424 20.2941 57.9405L21.1622 56.0199C22.7585 56.7406 24.4266 57.3007 26.1343 57.6885L25.5113 60.4287L25.8664 60.5058C25.9848 60.5306 26.1031 60.5592 26.222 60.5808C27.4108 60.817 28.6129 60.9845 29.8213 61.0738L29.8731 60.3732C28.6938 60.286 27.5202 60.1227 26.3604 59.8924L26.7757 57.8259C28.493 58.1714 30.2445 58.3437 31.9993 58.3442V61.1547L32.7258 61.1457C33.9363 61.1145 35.1458 61.0088 36.3442 60.8324L36.2401 60.1375C35.0702 60.3098 33.8898 60.4133 32.7084 60.4435L32.6566 58.3363C34.4098 58.293 36.1566 58.0769 37.8643 57.6885L38.4873 60.4287C38.6062 60.4044 38.7229 60.3727 38.8413 60.3447L39.1948 60.2585C39.2687 60.2411 39.3417 60.2215 39.4146 60.2015L39.6339 60.1423L39.8531 60.0831C39.9266 60.0636 39.9995 60.0435 40.0719 60.0213C40.362 59.9341 40.6536 59.8522 40.9411 59.7555L41.3733 59.6144L41.8018 59.4633L42.0163 59.3878L42.2287 59.3074L42.6535 59.1458L42.3968 58.4916L41.982 58.6491L41.7749 58.7278L41.5656 58.8013L41.1471 58.9487L40.7255 59.0861C40.4455 59.1806 40.1607 59.2604 39.8774 59.3455C39.8066 59.3672 39.7353 59.3867 39.664 59.4057L39.45 59.4638L39.236 59.522C39.1647 59.5415 39.0933 59.5611 39.0215 59.5775L38.5026 57.5347C40.1998 57.1041 41.8536 56.5028 43.4308 55.7414L44.6519 58.2723L45.3028 57.9479L45.7049 57.736L45.9057 57.6298L46.1039 57.5189L46.5007 57.297L46.8922 57.0661L47.0877 56.9503C47.1527 56.9118 47.2166 56.8706 47.2811 56.8309L47.6663 56.5905C47.7942 56.5097 47.9199 56.4246 48.0467 56.3417C48.173 56.2582 48.3009 56.1763 48.424 56.0891L48.0277 55.5089C47.9072 55.5945 47.7825 55.6738 47.6594 55.7557C47.5358 55.8365 47.4132 55.9195 47.2885 55.9982L46.9123 56.2328C46.8494 56.2714 46.7871 56.3115 46.7237 56.3496L46.5329 56.4627L46.1509 56.6883L45.7636 56.9049L45.5702 57.0132L45.3742 57.1168L44.9821 57.3239L44.0189 55.4492C45.5765 54.6487 47.0544 53.6913 48.4235 52.5976L50.1772 54.7935C50.3658 54.6413 50.556 54.4913 50.7393 54.3328L51.086 54.039L51.4257 53.7373L51.5958 53.5867L51.7623 53.4319L52.0946 53.1222C52.53 52.7011 52.9607 52.2752 53.3701 51.8282L52.855 51.3501C52.4555 51.786 52.0349 52.2018 51.6101 52.6129L51.2857 52.9151L51.1235 53.0662L50.9576 53.2136L50.6257 53.508L50.2871 53.7943L48.9312 52.1807C50.2733 51.0536 51.5029 49.7929 52.5966 48.4234L54.7925 50.177C54.9463 49.99 55.0911 49.795 55.239 49.6038C55.285 49.5435 55.3315 49.4838 55.3769 49.423L55.5106 49.2397L55.778 48.8725L56.0369 48.4989L56.1663 48.3124L56.2916 48.1227L56.5415 47.7433C56.6229 47.616 56.7021 47.4865 56.783 47.3581C56.9462 47.1029 57.0963 46.8393 57.2511 46.5793L56.6429 46.2274C56.4913 46.481 56.3455 46.7384 56.1859 46.9872C56.1072 47.1124 56.03 47.2382 55.9502 47.3629L55.7066 47.7333L55.5846 47.9182L55.4583 48.1005L55.2057 48.4651L54.9447 48.8233L54.8142 49.0025C54.7704 49.0616 54.7244 49.1198 54.68 49.1789L53.0008 47.905C54.0602 46.509 54.9806 45.0084 55.742 43.4307L58.273 44.6518L58.581 43.9929C59.0766 42.887 59.5094 41.752 59.866 40.5938L59.1945 40.3867C58.8463 41.5169 58.4241 42.6239 57.9406 43.7033L56.02 42.8352C56.7407 41.239 57.3008 39.5709 57.6886 37.8632L60.4288 38.4861L60.5059 38.131C60.5307 38.0127 60.5593 37.8943 60.5809 37.7754C60.8171 36.5866 60.9846 35.3845 61.0739 34.1761L60.3733 34.1243C60.2861 35.3037 60.1228 36.4772 59.8925 37.637L57.826 37.2217C58.1715 35.5045 58.3438 33.7529 58.3443 31.9981H61.1548L61.1458 31.2716C61.1146 30.0611 61.0089 28.8516 60.8325 27.6533L60.8335 27.6549ZM57.0049 37.7099C56.7951 38.6452 56.5256 39.5667 56.2097 40.4718C55.8926 41.3764 55.5259 42.2635 55.1106 43.1274C54.6927 43.9902 54.2267 44.8298 53.7162 45.642L53.6211 45.7947C53.5894 45.8454 53.5556 45.8951 53.5228 45.9453L53.3252 46.2459C53.2608 46.3468 53.19 46.444 53.1223 46.5429L52.9173 46.8387L52.7054 47.1294C52.6341 47.2255 52.566 47.3243 52.4915 47.4189L52.2727 47.7042C52.2362 47.7518 52.2003 47.7999 52.1628 47.8469L52.0497 47.9869C51.4505 48.7362 50.8101 49.4532 50.1328 50.1332C49.4527 50.8106 48.7363 51.451 47.9865 52.0502L47.8465 52.1632C47.7994 52.2007 47.7514 52.2361 47.7038 52.2731L47.4185 52.4919C47.3244 52.5664 47.2256 52.6345 47.1289 52.7059L46.8383 52.9178L46.5424 53.1228C46.4436 53.1904 46.3464 53.2612 46.2455 53.3257L45.9448 53.5233C45.8946 53.556 45.845 53.5899 45.7942 53.6216L45.6415 53.7167C44.8294 54.2271 43.9898 54.6931 43.127 55.1111C42.2631 55.5269 41.3759 55.8936 40.4713 56.2101C39.5668 56.5261 38.6453 56.7955 37.7095 57.0053C35.8396 57.4285 33.9221 57.642 31.9998 57.6436C30.0776 57.642 28.1601 57.428 26.2902 57.0053C25.3549 56.7955 24.4334 56.5261 23.5283 56.2101C22.6237 55.8931 21.7366 55.5264 20.8727 55.1111C20.0098 54.6931 19.1702 54.2271 18.3581 53.7167L18.2054 53.6216C18.1547 53.5899 18.105 53.556 18.0548 53.5233L17.7542 53.3257C17.6533 53.2612 17.556 53.1904 17.4572 53.1228L17.1613 52.9178L16.8707 52.7059C16.7746 52.6345 16.6758 52.5664 16.5812 52.4919L16.2959 52.2731C16.2483 52.2367 16.2002 52.2007 16.1532 52.1632L16.0132 52.0502C15.2639 51.451 14.5469 50.8106 13.8669 50.1332C13.1895 49.4532 12.5491 48.7367 11.9499 47.9869L11.8369 47.8469C11.7993 47.7999 11.7639 47.7518 11.727 47.7042L11.5082 47.4189C11.4337 47.3249 11.3655 47.226 11.2942 47.1294L11.0823 46.8387L10.8773 46.5429C10.8097 46.444 10.7389 46.3468 10.6744 46.2459L10.4768 45.9453C10.444 45.8951 10.4102 45.8454 10.3785 45.7947L10.2834 45.642C9.773 44.8298 9.30697 43.9902 8.88902 43.1274C8.47319 42.2635 8.10649 41.3764 7.78999 40.4718C7.47402 39.5672 7.20455 38.6457 6.99478 37.7099C6.57155 35.84 6.35808 33.9225 6.3565 32.0003C6.35808 30.078 6.57208 28.1605 6.99478 26.2906C7.20455 25.3554 7.47402 24.4339 7.78999 23.5287C8.10702 22.6242 8.47372 21.737 8.88902 20.8731C9.30697 20.0103 9.773 19.1707 10.2834 18.3585L10.3785 18.2058C10.4102 18.1551 10.444 18.1055 10.4768 18.0553L10.6744 17.7546C10.7389 17.6537 10.8097 17.5565 10.8773 17.4577L11.0823 17.1618L11.2942 16.8712C11.3655 16.775 11.4337 16.6762 11.5082 16.5816L11.727 16.2963C11.7634 16.2487 11.7993 16.2006 11.8369 16.1536L11.9499 16.0136C12.5491 15.2644 13.1895 14.5473 13.8669 13.8673C14.5469 13.1899 15.2634 12.5495 16.0132 11.9504L16.1532 11.8373C16.2002 11.7998 16.2483 11.7644 16.2959 11.7274L16.5812 11.5086C16.6752 11.4341 16.774 11.366 16.8707 11.2946L17.1613 11.0828L17.4572 10.8777C17.556 10.8101 17.6533 10.7393 17.7542 10.6748L18.0548 10.4772C18.105 10.4445 18.1547 10.4107 18.2054 10.379L18.3581 10.2838C19.1702 9.77343 20.0098 9.3074 20.8727 8.88945C21.7366 8.47362 22.6237 8.10692 23.5283 7.79042C24.4329 7.47445 25.3544 7.20498 26.2902 6.99521C28.1601 6.57198 30.0776 6.35851 31.9998 6.35693C33.9221 6.35851 35.8396 6.57251 37.7095 6.99521C38.6447 7.20498 39.5662 7.47445 40.4713 7.79042C41.3759 8.10745 42.2631 8.47414 43.127 8.88945C43.9898 9.3074 44.8294 9.77343 45.6415 10.2838L45.7942 10.379C45.845 10.4107 45.8946 10.4445 45.9448 10.4772L46.2455 10.6748C46.3464 10.7393 46.4436 10.8101 46.5424 10.8777L46.8383 11.0828L47.1289 11.2946C47.2251 11.366 47.3239 11.4341 47.4185 11.5086L47.7038 11.7274C47.7514 11.7638 47.7994 11.7998 47.8465 11.8373L47.9865 11.9504C48.7357 12.5495 49.4527 13.1899 50.1328 13.8673C50.8101 14.5473 51.4505 15.2638 52.0497 16.0136L52.1628 16.1536C52.2003 16.2006 52.2357 16.2487 52.2727 16.2963L52.4915 16.5816C52.566 16.6757 52.6341 16.7745 52.7054 16.8712L52.9173 17.1618L53.1223 17.4577C53.19 17.5565 53.2608 17.6537 53.3252 17.7546L53.5228 18.0553C53.5556 18.1055 53.5894 18.1551 53.6211 18.2058L53.7162 18.3585C54.2267 19.1707 54.6927 20.0103 55.1106 20.8731C55.5265 21.737 55.8926 22.6242 56.2097 23.5287C56.5256 24.4333 56.7951 25.3548 57.0049 26.2906C57.4281 28.1605 57.6416 30.078 57.6431 32.0003C57.6416 33.9225 57.4276 35.84 57.0049 37.7099Z" fill="#E7EAFC"/>
<path d="M61.8007 25.2C61.5497 24.0841 61.229 22.984 60.8517 21.9045C60.4734 20.825 60.0359 19.7667 59.5397 18.7358C57.5498 14.6171 54.6316 10.9538 51.055 8.10693L50.888 7.97273C50.832 7.92834 50.775 7.88554 50.7184 7.84169L50.3781 7.5812C50.2656 7.49296 50.1483 7.41106 50.0336 7.32652L49.687 7.07448L49.3351 6.83037C49.2173 6.74953 49.1011 6.66604 48.9811 6.5889L48.6229 6.35324C48.5632 6.31414 48.504 6.27399 48.4432 6.23647L48.2615 6.12287C47.294 5.51417 46.2927 4.95885 45.2634 4.46059C44.2331 3.96497 43.1742 3.52694 42.0947 3.14862C41.0153 2.77136 39.9152 2.45063 38.7992 2.19965C36.5684 1.69452 34.2816 1.44037 31.9995 1.43878C29.7169 1.44037 27.4306 1.69452 25.1998 2.19965C24.0839 2.45063 22.9838 2.77136 21.9043 3.14862C20.8248 3.52694 19.7665 3.96444 18.7356 4.46059C17.7063 4.95885 16.705 5.51417 15.7376 6.12287L15.5558 6.23647C15.495 6.27451 15.4364 6.31467 15.3762 6.35324L15.0179 6.5889C14.898 6.66657 14.7817 6.74953 14.6639 6.83037L14.312 7.07448L13.9654 7.32652C13.8507 7.41159 13.7334 7.49349 13.6209 7.5812L13.2806 7.84169C13.2241 7.88554 13.167 7.92834 13.111 7.97273L12.944 8.10693C9.3669 10.9538 6.44918 14.6171 4.4593 18.7358C3.96368 19.7662 3.52566 20.825 3.14734 21.9045C2.77007 22.9845 2.44935 24.0841 2.19837 25.2C1.69324 27.4308 1.43909 29.7177 1.4375 31.9997C1.43909 34.2823 1.69324 36.5686 2.19837 38.7995C2.44935 39.9154 2.77007 41.0155 3.14734 42.095C3.52566 43.1744 3.96316 44.2328 4.4593 45.2637C6.44918 49.3824 9.36742 53.0456 12.944 55.8926L13.111 56.0268C13.167 56.0711 13.2241 56.1139 13.2806 56.1578L13.6209 56.4183C13.7334 56.5065 13.8507 56.5884 13.9654 56.673L14.312 56.925L14.6639 57.1691C14.7817 57.25 14.898 57.3334 15.0179 57.4106L15.3762 57.6462C15.4359 57.6853 15.495 57.7255 15.5558 57.763L15.7376 57.8766C16.705 58.4853 17.7063 59.0406 18.7356 59.5389C19.7659 60.0345 20.8248 60.4725 21.9043 60.8509C22.9843 61.2281 24.0839 61.5489 25.1998 61.7998C27.4306 62.305 29.7174 62.5591 31.9995 62.5607C34.2821 62.5591 36.5684 62.305 38.7992 61.7998C39.9152 61.5489 41.0153 61.2281 42.0947 60.8509C43.1742 60.4725 44.2326 60.035 45.2634 59.5389C46.2927 59.0406 47.294 58.4853 48.2615 57.8766L48.4432 57.763C48.504 57.725 48.5626 57.6848 48.6229 57.6462L48.9811 57.4106C49.1011 57.3329 49.2173 57.25 49.3351 57.1691L49.687 56.925L50.0336 56.673C50.1483 56.5879 50.2656 56.506 50.3781 56.4183L50.7184 56.1578C50.775 56.1139 50.832 56.0711 50.888 56.0268L51.055 55.8926C54.6321 53.0456 57.5498 49.3824 59.5397 45.2637C60.0353 44.2333 60.4734 43.1744 60.8517 42.095C61.229 41.015 61.5497 39.9154 61.8007 38.7995C62.3058 36.5686 62.5599 34.2818 62.5615 31.9997C62.5599 29.7171 62.3058 27.4308 61.8007 25.2ZM61.8493 32.7437L59.0399 32.675L59.015 33.3492C58.959 34.4726 58.8322 35.5917 58.641 36.6992L59.3331 36.8201C59.5297 35.6836 59.6597 34.5354 59.7167 33.3836L61.8218 33.4871C61.7241 35.4691 61.4303 37.4431 60.9415 39.3685L58.2177 38.6769C58.1924 38.7863 58.1601 38.894 58.1316 39.0029L58.0434 39.3284C57.7401 40.4105 57.3649 41.472 56.9311 42.5087L57.5784 42.7819C58.0233 41.7177 58.4085 40.6287 58.7197 39.5181L60.7487 40.0877C60.2768 41.7605 59.6602 43.3921 58.9067 44.9583C58.7963 45.1807 58.6864 45.4032 58.5744 45.6251L56.0746 44.3411C55.9689 44.5398 55.8659 44.7395 55.7586 44.9371L55.5531 45.3049C55.5188 45.3662 55.4855 45.428 55.4495 45.4887L55.3423 45.67L55.1278 46.033L54.9042 46.3907L54.7928 46.5693L54.677 46.7452L54.4451 47.0977C54.3664 47.2139 54.285 47.3286 54.2052 47.4443C54.1254 47.56 54.0456 47.6757 53.9616 47.7888L54.5317 48.1993C54.6179 48.0836 54.6992 47.9647 54.7817 47.8464C54.8636 47.7275 54.9465 47.6097 55.0274 47.4903L55.2651 47.1288L55.384 46.9481L55.4987 46.7648L55.7275 46.3981L55.9478 46.0261L56.0577 45.8401C56.0942 45.7778 56.1285 45.7144 56.1639 45.6515L56.3747 45.2742L58.2251 46.284C57.2735 48.0271 56.1475 49.6735 54.8704 51.1931L52.7183 49.3855L52.5006 49.6434C52.4288 49.7301 52.3522 49.8125 52.2782 49.897C52.1847 50.0016 52.0922 50.1078 51.9976 50.2119L51.7102 50.5205L51.5665 50.6748L51.4191 50.8254L51.1248 51.1271L50.823 51.4214L50.6725 51.5688L50.5182 51.7125L50.2096 52C50.1055 52.0946 49.9998 52.187 49.8947 52.2805L50.3597 52.8073C50.4674 52.7112 50.5758 52.6166 50.6825 52.5199L50.999 52.2251L51.157 52.0776L51.3118 51.9265L51.6214 51.6243L51.9237 51.3147L52.0748 51.1598L52.2222 51.0019L52.517 50.6854C52.6137 50.5786 52.7088 50.4698 52.8045 50.3625L54.3843 51.758C53.8094 52.4089 53.2071 53.0351 52.5788 53.6343C51.9501 54.2329 51.2938 54.803 50.6154 55.3451C50.4236 55.5026 50.2244 55.6505 50.0278 55.8022L48.3291 53.5634L48.1954 53.666L48.0596 53.7658L47.787 53.9645C47.6744 54.0485 47.5582 54.1278 47.4425 54.2081C47.3268 54.2879 47.2121 54.3687 47.0959 54.448L46.7434 54.6799L46.5675 54.7956L46.3889 54.9071L46.0312 55.1306L45.6682 55.3451L45.4869 55.4524C45.4262 55.4878 45.3644 55.5211 45.3031 55.556L44.9353 55.7615L45.2719 56.3781L45.6492 56.1673C45.712 56.1319 45.7754 56.0976 45.8378 56.0611L46.0238 55.9512L46.3958 55.7309L46.7624 55.5021L46.9458 55.3874L47.1265 55.2685L47.4879 55.0308C47.6073 54.9499 47.7252 54.867 47.844 54.7851C47.9624 54.7032 48.0818 54.6213 48.197 54.5351L49.4286 56.2455C47.8181 57.4058 46.0914 58.4066 44.2817 59.2245L43.1245 56.6635L42.5063 56.9335C41.4697 57.3667 40.4082 57.7419 39.326 58.0457L39.5157 58.722C40.6264 58.4108 41.7154 58.0256 42.7795 57.5807L43.599 59.5225C41.997 60.1973 40.3358 60.7304 38.6418 61.1177L38.2777 61.1969C38.1562 61.2223 38.0357 61.2514 37.9131 61.2736L37.3594 58.5186L37.0281 58.582C36.9177 58.6026 36.8078 58.6264 36.6963 58.6433C35.5888 58.8346 34.4697 58.9614 33.3464 59.0174L33.3807 59.7191C34.5326 59.662 35.6807 59.5315 36.8173 59.3355L37.1808 61.4115C35.2247 61.7539 33.2354 61.9008 31.2529 61.8516L31.3216 59.0422L30.6474 59.0174C29.5241 58.9614 28.4049 58.8346 27.2975 58.6433L27.1765 59.3355C28.313 59.532 29.4612 59.662 30.613 59.7191L30.5095 61.8241C28.7759 61.7348 27.047 61.5045 25.3525 61.1177C25.231 61.0929 25.111 61.0606 24.99 61.0321L24.6281 60.9439L25.3197 58.2201C25.2104 58.1947 25.1026 58.1625 24.9937 58.1339L24.6682 58.0457C23.5861 57.7424 22.5246 57.3673 21.4879 56.9335L21.2148 57.5807C22.2789 58.0256 23.3679 58.4108 24.4786 58.722L23.909 60.751C21.9968 60.2142 20.1374 59.4855 18.3715 58.5767L19.6555 56.077C19.4568 55.9713 19.2571 55.8682 19.0595 55.761L18.6917 55.5554C18.6305 55.5211 18.5686 55.4878 18.5079 55.4519L18.3266 55.3446L17.9636 55.1301L17.6059 54.9066L17.4273 54.7951L17.2514 54.6794L16.8989 54.4474C16.7827 54.3687 16.6675 54.2873 16.5523 54.2075C16.4366 54.1278 16.3209 54.048 16.2078 53.964L15.7973 54.5341C15.913 54.6202 16.0319 54.7016 16.1502 54.784C16.2691 54.8659 16.387 54.9489 16.5058 55.0297L16.8672 55.2675L17.048 55.3864L17.2313 55.501L17.598 55.7298L17.97 55.9501L18.156 56.06C18.2183 56.0965 18.2817 56.1308 18.3446 56.1662L18.7219 56.3771L17.7121 58.2275C16.1867 57.3953 14.7363 56.4273 13.3784 55.3446C13.1855 55.1887 12.9905 55.035 12.8024 54.8728L14.61 52.7207L14.3522 52.503C14.2655 52.4311 14.1831 52.3545 14.0985 52.2805C13.9939 52.187 13.8877 52.0946 13.7836 52L13.475 51.7125L13.3208 51.5688L13.1702 51.4214L12.8685 51.1271L12.5742 50.8254L12.4267 50.6748L12.283 50.5205L11.9956 50.2119C11.901 50.1078 11.8085 50.0022 11.715 49.897L11.1882 50.362C11.2844 50.4698 11.379 50.5781 11.4757 50.6848L11.7705 51.0013L11.9179 51.1593L12.069 51.3141L12.3713 51.6238L12.6809 51.926L12.8357 52.0771L12.9937 52.2245L13.3102 52.5194C13.4169 52.6161 13.5258 52.7112 13.633 52.8068L12.2376 54.3867C10.7502 53.0726 9.39279 51.6111 8.19284 50.0302L10.4316 48.3314L10.3291 48.1978L10.2292 48.062L10.0305 47.7893C9.94653 47.6768 9.86727 47.5605 9.78696 47.4448C9.70717 47.3291 9.62633 47.2144 9.54707 47.0982L9.31511 46.7458L9.1994 46.5698L9.08791 46.3912L8.86441 46.0335L8.64988 45.6705L8.54262 45.4893C8.50722 45.4285 8.47393 45.3667 8.43906 45.3054L8.23352 44.9376L7.6169 45.2742L7.82772 45.6515C7.86313 45.7144 7.89747 45.7778 7.93393 45.8401L8.04383 46.0261L8.26417 46.3981L8.49296 46.7648L8.60761 46.9481L8.7265 47.1288L8.96427 47.4903C9.04511 47.6097 9.12807 47.7275 9.20997 47.8464C9.29187 47.9647 9.37324 48.0836 9.45989 48.1993L7.74952 49.431C6.73556 48.0207 5.84207 46.5233 5.08596 44.9588L4.77052 44.284L7.33158 43.1269L7.06157 42.5087C6.6283 41.472 6.25315 40.4105 5.94933 39.3284L5.27301 39.5181C5.58422 40.6287 5.96941 41.7177 6.41431 42.7819L4.47251 43.6014C3.70055 41.7711 3.11299 39.8631 2.72146 37.916L5.47644 37.3623L5.41303 37.031C5.39242 36.9205 5.36865 36.8106 5.35174 36.6992C5.16046 35.5917 5.03365 34.4726 4.97764 33.3492L4.27596 33.3836C4.33302 34.536 4.46353 35.6836 4.65956 36.8201L2.58356 37.1837C2.43085 36.3282 2.32306 35.4654 2.24803 34.6004C2.17353 33.7355 2.13602 32.8673 2.1339 31.9997L2.14342 31.2563L4.95281 31.325L4.97764 30.6508C5.03365 29.5275 5.16046 28.4083 5.35174 27.3009L4.65956 27.1799C4.463 28.3164 4.33302 29.4646 4.27596 30.6164L2.17089 30.5129C2.26864 28.5309 2.56242 26.5569 3.05117 24.6315L5.77497 25.3231C5.80033 25.2138 5.83256 25.106 5.8611 24.9971L5.94933 24.6716C6.25262 23.5895 6.62777 22.528 7.06157 21.4913L6.41431 21.2182C5.96941 22.2823 5.58422 23.3713 5.27301 24.482L3.24403 23.9124C3.71587 22.2395 4.33249 20.6079 5.08596 19.0418C5.19639 18.8193 5.3063 18.5969 5.41831 18.3749L7.91808 19.6589C8.02375 19.4602 8.12679 19.2605 8.23405 19.0629L8.43959 18.6951C8.47393 18.6338 8.50722 18.572 8.54315 18.5113L8.65041 18.33L8.86494 17.967L9.08844 17.6093L9.19993 17.4307L9.31564 17.2548L9.5476 16.9023C9.62633 16.7861 9.7077 16.6714 9.78749 16.5557C9.86727 16.44 9.94706 16.3243 10.0311 16.2112L9.46095 15.8007C9.37482 15.9164 9.29345 16.0353 9.21102 16.1536C9.12912 16.2725 9.04617 16.3903 8.96533 16.5092L8.72756 16.8706L8.60867 17.0513L8.49401 17.2347L8.26522 17.6014L8.04489 17.9734L7.93499 18.1594C7.89853 18.2217 7.86418 18.2851 7.82878 18.348L7.61796 18.7253L5.76757 17.7155C6.71918 15.9724 7.84516 14.326 9.12226 12.8063L11.2743 14.6139L11.492 14.3561C11.5639 14.2694 11.6405 14.187 11.7145 14.1025C11.808 13.9978 11.9005 13.8916 11.9951 13.7875L12.2825 13.479L12.4262 13.3247L12.5736 13.1741L12.8679 12.8724L13.1696 12.5781L13.3202 12.4307L13.4745 12.2869L13.7831 11.9995C13.8872 11.9049 13.9929 11.8125 14.098 11.7189L13.633 11.1921C13.5252 11.2883 13.4169 11.3829 13.3102 11.4796L12.9937 11.7744L12.8357 11.9218L12.6809 12.073L12.3713 12.3752L12.069 12.6848L11.9179 12.8396L11.7705 12.9976L11.4757 13.3141C11.379 13.4209 11.2839 13.5297 11.1882 13.637L9.60837 12.2415C10.1832 11.5905 10.7856 10.9644 11.4144 10.3652C12.0431 9.76658 12.6994 9.19645 13.3778 8.65434C13.5696 8.49688 13.7688 8.34893 13.9654 8.19729L15.6641 10.436L15.7978 10.3335L15.9336 10.2337L16.2062 10.035C16.3188 9.95098 16.435 9.87172 16.5507 9.79141C16.6665 9.71162 16.7811 9.63078 16.8974 9.55153L17.2498 9.31957L17.4257 9.20385L17.6043 9.09236L17.9621 8.86886L18.325 8.65434L18.5063 8.54707C18.567 8.51167 18.6289 8.47839 18.6902 8.44351L19.0579 8.23797L18.7213 7.62135L18.3441 7.83218C18.2812 7.86758 18.2178 7.90192 18.1554 7.93838L17.9694 8.04829L17.5975 8.26862L17.2308 8.49741L17.0474 8.61207L16.8667 8.73095L16.5053 8.96872C16.3859 9.04956 16.2681 9.13252 16.1497 9.21442C16.0313 9.29632 15.9119 9.37822 15.7967 9.46434L14.5651 7.75398C16.1756 6.59366 17.9023 5.5929 19.712 4.77497L20.8692 7.33603L21.4874 7.06603C22.5241 6.63276 23.5856 6.25761 24.6677 5.95379L24.478 5.27746C23.3674 5.58868 22.2784 5.97387 21.2142 6.41876L20.3947 4.47697C21.9968 3.80222 23.658 3.26909 25.352 2.88179L25.716 2.80253C25.8376 2.77717 25.958 2.74811 26.0806 2.72591L26.6343 5.48089L26.9656 5.41748C27.0761 5.39687 27.186 5.3731 27.2969 5.35619C28.4044 5.16492 29.5235 5.0381 30.6469 4.9821L30.6125 4.28041C29.4606 4.33747 28.3125 4.46798 27.1759 4.66401L26.8124 2.58801C28.7685 2.24562 30.7578 2.09873 32.7403 2.14787L32.6716 4.95726L33.3458 4.9821C34.4692 5.0381 35.5883 5.16492 36.6958 5.35619L36.8168 4.66401C35.6802 4.46745 34.532 4.33747 33.3802 4.28041L33.4837 2.17534C35.2173 2.26464 36.9462 2.49501 38.6407 2.88179C38.7622 2.90662 38.8822 2.93885 39.0032 2.96738L39.3651 3.05562L38.6735 5.77942C38.7829 5.80478 38.8906 5.83702 38.9995 5.86555L39.325 5.95379C40.4071 6.25708 41.4686 6.63223 42.5053 7.06603L42.7785 6.41876C41.7143 5.97387 40.6253 5.58868 39.5147 5.27746L40.0843 3.24848C41.9965 3.78532 43.8558 4.51395 45.6217 5.42277L44.3377 7.92253C44.5364 8.02821 44.7361 8.13124 44.9337 8.2385L45.3015 8.44404C45.3628 8.47839 45.4246 8.51167 45.4854 8.5476L45.6666 8.65486L46.0296 8.86939L46.3873 9.09289L46.5659 9.20438L46.7418 9.32009L47.0943 9.55205C47.2105 9.63078 47.3257 9.71215 47.4409 9.79194C47.5566 9.87172 47.6723 9.95151 47.7854 10.0355L48.1959 9.4654C48.0802 9.37927 47.9613 9.2979 47.843 9.21548C47.7241 9.13358 47.6063 9.05062 47.4869 8.96978L47.1254 8.73201L46.9447 8.61312L46.7614 8.49846L46.3947 8.26968L46.0227 8.04934L45.8367 7.93944C45.7744 7.90298 45.711 7.86864 45.6481 7.83323L45.2708 7.62241L46.2806 5.77202C47.806 6.60422 49.2564 7.57221 50.6143 8.65486C50.8072 8.81074 51.0022 8.9645 51.1903 9.12671L49.3827 11.2788L49.6405 11.4965C49.7272 11.5684 49.8096 11.645 49.8942 11.7189C49.9988 11.8125 50.105 11.9049 50.2091 11.9995L50.5176 12.2869L50.6719 12.4307L50.8225 12.5781L51.1242 12.8724L51.4185 13.1741L51.5659 13.3247L51.7097 13.479L51.9971 13.7875C52.0917 13.8916 52.1842 13.9973 52.2777 14.1025L52.8045 13.6375C52.7083 13.5297 52.6137 13.4214 52.517 13.3146L52.2222 12.9981L52.0748 12.8402L51.9237 12.6853L51.6214 12.3757L51.3118 12.0735L51.157 11.9224L50.999 11.7749L50.6825 11.4801C50.5758 11.3834 50.4669 11.2883 50.3597 11.1927L51.7551 9.61282C53.2425 10.9269 54.5999 12.3884 55.7999 13.9693L53.5611 15.668L53.6636 15.8017L53.7635 15.9375L53.9622 16.2102C54.0462 16.3227 54.1254 16.439 54.2057 16.5547C54.2855 16.6704 54.3664 16.785 54.4456 16.9013L54.6776 17.2537L54.7933 17.4297L54.9048 17.6083L55.1283 17.966L55.3428 18.329L55.4501 18.5102C55.4855 18.571 55.5188 18.6328 55.5536 18.6941L55.7592 19.0618L56.3758 18.7253L56.165 18.348C56.1296 18.2851 56.0952 18.2217 56.0588 18.1594L55.9489 17.9734L55.7285 17.6014L55.4997 17.2347L55.3851 17.0513L55.2662 16.8706L55.0284 16.5092C54.9476 16.3898 54.8646 16.272 54.7827 16.1536C54.7008 16.0353 54.6189 15.9164 54.5328 15.8007L56.2432 14.569C57.2571 15.9793 58.1506 17.4767 58.9067 19.0412L59.2222 19.716L56.6611 20.8731L56.9311 21.4913C57.3644 22.528 57.7395 23.5895 58.0434 24.6716L58.7197 24.482C58.4085 23.3713 58.0233 22.2823 57.5784 21.2182L59.5202 20.3986C60.2921 22.2289 60.8797 24.1369 61.2712 26.084L58.5163 26.6377L58.5797 26.969C58.6003 27.0795 58.624 27.1894 58.641 27.3009C58.8322 28.4083 58.959 29.5275 59.015 30.6508L59.7167 30.6164C59.6597 29.464 59.5292 28.3164 59.3331 27.1799L61.4091 26.8163C61.5618 27.6718 61.6696 28.5346 61.7447 29.3996C61.8192 30.2645 61.8567 31.1327 61.8588 32.0003L61.8493 32.7442V32.7437Z" fill="#E7EAFC"/>
</svg>
