<svg width="18" height="18" viewBox="0 0 18 18" fill="none" xmlns="http://www.w3.org/2000/svg">
<path d="M7.36051 1.7262C8.03109 0.313519 9.96859 0.313516 10.6392 1.72619L11.7981 4.16767C12.0644 4.72864 12.5791 5.11747 13.1745 5.20742L15.7659 5.59893C17.2654 5.82547 17.8641 7.74131 16.7791 8.84092L14.9039 10.7413C14.4731 11.178 14.2765 11.8071 14.3782 12.4237L14.8208 15.1071C15.077 16.6598 13.5095 17.8439 12.1684 17.1108L9.85053 15.8439C9.31796 15.5528 8.68172 15.5528 8.14915 15.8439L5.83131 17.1108C4.49016 17.8439 2.92269 16.6598 3.17883 15.1071L3.62149 12.4237C3.72321 11.8071 3.5266 11.178 3.09574 10.7413L1.22057 8.84093C0.135559 7.74131 0.734277 5.82547 2.23372 5.59893L4.82515 5.20742C5.42058 5.11747 5.93531 4.72864 6.20159 4.16767L7.36051 1.7262Z" fill="#0B0E17"/>
</svg>
