<svg width="18" height="18" viewBox="0 0 18 18" fill="none" xmlns="http://www.w3.org/2000/svg">
<path d="M7.36064 1.7262C8.03121 0.313519 9.96871 0.313516 10.6393 1.72619L11.7982 4.16767C12.0645 4.72864 12.5792 5.11747 13.1746 5.20742L15.7661 5.59893C17.2655 5.82546 17.8642 7.74131 16.7792 8.84092L14.9041 10.7413C14.4732 11.178 14.2766 11.8071 14.3783 12.4237L14.821 15.1071C15.0771 16.6598 13.5096 17.8439 12.1685 17.1108L9.85065 15.8439C9.31808 15.5528 8.68184 15.5528 8.14927 15.8439L5.83143 17.1108C4.49029 17.8439 2.92281 16.6598 3.17895 15.1071L3.62162 12.4237C3.72333 11.8071 3.52672 11.178 3.09586 10.7413L1.22069 8.84092C0.135681 7.74131 0.734399 5.82547 2.23384 5.59893L4.82527 5.20742C5.4207 5.11747 5.93543 4.72864 6.20172 4.16767L7.36064 1.7262Z" fill="url(#paint0_linear_187_2690)"/>
<defs>
<linearGradient id="paint0_linear_187_2690" x1="8.99996" y1="0.666687" x2="8.99996" y2="17.3334" gradientUnits="userSpaceOnUse">
<stop stop-color="#375BE3"/>
<stop offset="1" stop-color="#0A84FF"/>
</linearGradient>
</defs>
</svg>
