<svg width="24" height="24" viewBox="0 0 24 24" fill="none" xmlns="http://www.w3.org/2000/svg">
<path d="M20.0771 8.85499H14.7911L15.9481 5.96299C16.1136 5.55096 16.1544 5.09943 16.0655 4.66442C15.9766 4.22942 15.7619 3.83008 15.4481 3.51599C15.2716 3.33967 15.0589 3.20388 14.8246 3.11805C14.5904 3.03222 14.3402 2.99841 14.0916 3.01897C13.843 3.03952 13.6018 3.11394 13.3848 3.23707C13.1679 3.3602 12.9803 3.52908 12.8351 3.73199L9.74413 8.05699C9.28279 8.70128 8.76976 9.30695 8.21013 9.86799L7.22013 10.858C7.17505 10.903 7.1393 10.9565 7.11493 11.0153C7.09056 11.0742 7.07806 11.1373 7.07813 11.201V18.642C7.07805 18.7709 7.12912 18.8946 7.22013 18.986L8.32913 20.1C8.61163 20.384 8.94764 20.6091 9.31771 20.7624C9.68778 20.9157 10.0846 20.994 10.4851 20.993H16.5111C16.9869 20.9926 17.4524 20.8544 17.8513 20.5952C18.2503 20.3359 18.5656 19.9666 18.7591 19.532L21.7151 12.881C21.9043 12.4568 22.0014 11.9974 22.0001 11.533V10.779C21.9996 10.269 21.7969 9.78013 21.4364 9.41945C21.0759 9.05877 20.5871 8.85578 20.0771 8.85499Z" fill="url(#paint0_linear_1015_6534)"/>
<path d="M3.747 10.207C3.28367 10.207 2.83931 10.391 2.51168 10.7187C2.18406 11.0463 2 11.4906 2 11.954V18.523C2 18.9863 2.18406 19.4307 2.51168 19.7583C2.83931 20.0859 3.28367 20.27 3.747 20.27C4.21033 20.27 4.65469 20.0859 4.98232 19.7583C5.30994 19.4307 5.494 18.9863 5.494 18.523V11.954C5.494 11.4906 5.30994 11.0463 4.98232 10.7187C4.65469 10.391 4.21033 10.207 3.747 10.207Z" fill="#E7EAFC"/>
<defs>
<linearGradient id="paint0_linear_1015_6534" x1="14.5391" y1="3.01312" x2="14.5391" y2="20.993" gradientUnits="userSpaceOnUse">
<stop stop-color="#375BE3"/>
<stop offset="1" stop-color="#0A84FF"/>
</linearGradient>
</defs>
</svg>
