<svg width="14" height="14" viewBox="0 0 14 14" fill="none" xmlns="http://www.w3.org/2000/svg">
<path fill-rule="evenodd" clip-rule="evenodd" d="M13.6663 6.99998C13.6663 10.6819 10.6816 13.6666 6.99967 13.6666C3.31778 13.6666 0.333008 10.6819 0.333008 6.99998C0.333008 3.31808 3.31778 0.333313 6.99967 0.333313C10.6816 0.333313 13.6663 3.31808 13.6663 6.99998ZM6.99967 2.83331C4.69849 2.83331 2.83301 4.69879 2.83301 6.99998C2.83301 9.30117 4.69849 11.1666 6.99967 11.1666C9.30086 11.1666 11.1663 9.30117 11.1663 6.99998C11.1663 4.69879 9.30086 2.83331 6.99967 2.83331ZM1.83301 6.99998C1.83301 4.14651 4.1462 1.83331 6.99967 1.83331C9.85314 1.83331 12.1663 4.14651 12.1663 6.99998C12.1663 9.85345 9.85314 12.1666 6.99967 12.1666C4.1462 12.1666 1.83301 9.85345 1.83301 6.99998ZM7.49967 4.99998C7.49967 4.72384 7.27582 4.49998 6.99967 4.49998C6.72353 4.49998 6.49967 4.72384 6.49967 4.99998V6.58796C6.49967 7.02986 6.74934 7.43383 7.14459 7.63146L8.1094 8.11386C8.35639 8.23735 8.65673 8.13724 8.78022 7.89025C8.90372 7.64326 8.8036 7.34293 8.55661 7.21943L7.59181 6.73703C7.53534 6.7088 7.49967 6.65109 7.49967 6.58796V4.99998Z" fill="inherit"/>
</svg>
