<svg width="48" height="48" viewBox="0 0 48 48" fill="none" xmlns="http://www.w3.org/2000/svg">
<rect x="14" y="12" width="20" height="26" fill="#0B0E17"/>
<path fill-rule="evenodd" clip-rule="evenodd" d="M19.8431 5.14249C22.4154 3.61917 25.5846 3.61917 28.1569 5.14249L37.8431 10.8786C40.4154 12.402 42 15.2172 42 18.2638V29.7362C42 32.7828 40.4154 35.598 37.8431 37.1214L36.6021 37.8563L28.1569 42.8575C25.5846 44.3808 22.4154 44.3808 19.8431 42.8575L11.3979 37.8563L10.1569 37.1214C7.58461 35.598 6 32.7828 6 29.7362V18.2638C6 15.2172 7.58461 12.402 10.1569 10.8786L19.8431 5.14249ZM32.1903 30.4082C30.0459 28.9143 27.1662 28 24 28C20.8338 28 17.9541 28.9143 15.8097 30.4082C14.7805 31.1251 14.996 32.5976 16.0716 33.2429L22.971 37.3826C23.6044 37.7626 24.3956 37.7626 25.029 37.3826L31.9284 33.2429C33.004 32.5976 33.2195 31.1251 32.1903 30.4082ZM24 12C27.3137 12 30 14.6863 30 18C30 21.3137 27.3137 24 24 24C20.6863 24 18 21.3137 18 18C18 14.6863 20.6863 12 24 12Z" fill="#E7EAFC"/>
</svg>
