<svg width="18" height="21" viewBox="0 0 18 21" fill="none" xmlns="http://www.w3.org/2000/svg">
<path d="M0.119858 6.35702C0.667593 5.79815 1.5211 5.67385 2.20548 6.05328L9.33306 10.103L2.18524 14.1528C1.50059 14.5308 0.648005 14.4066 0.0996094 13.8491C0.119858 13.8491 0.119858 5.87105 0.119858 6.35702Z" fill="url(#paint0_linear_1039_5944)"/>
<path d="M17.0883 4.29147C17.2836 5.02006 16.958 5.78805 16.2986 6.15436L9.33306 10.1029L2.18524 6.05311C1.50059 5.67512 0.648005 5.79928 0.0996094 6.35685C0.109241 5.46965 0.596992 4.65673 1.37528 4.23072L7.93589 0.504946C8.72077 0.0593865 9.68212 0.0593865 10.467 0.504946L17.0883 4.29147Z" fill="url(#paint1_linear_1039_5944)"/>
<path d="M2.18524 14.1525L16.2986 6.15427C16.9669 5.76954 17.1288 5.00009 16.9466 4.29138C17.6958 4.73686 17.9995 5.54681 17.9995 6.39726V13.8286C17.9995 14.7195 17.6553 15.5295 16.8859 15.9749L10.4062 19.6805C9.63576 20.1258 8.68613 20.1258 7.91565 19.6805L1.35503 15.9749C0.594384 15.5337 0.118626 14.728 0.0996094 13.8488C0.648005 14.4064 1.50059 14.5305 2.18524 14.1525Z" fill="url(#paint2_linear_1039_5944)"/>
<defs>
<linearGradient id="paint0_linear_1039_5944" x1="4.80858" y1="16.3307" x2="8.30373" y2="9.24577" gradientUnits="userSpaceOnUse">
<stop stop-color="#00DAD9"/>
<stop offset="1" stop-color="#095FA7"/>
</linearGradient>
<linearGradient id="paint1_linear_1039_5944" x1="-0.467189" y1="2.70742" x2="1.19406" y2="11.1816" gradientUnits="userSpaceOnUse">
<stop stop-color="#0BF7DF"/>
<stop offset="1" stop-color="#0095FF"/>
</linearGradient>
<linearGradient id="paint2_linear_1039_5944" x1="12.8109" y1="0.192392" x2="-1.79868" y2="13.4504" gradientUnits="userSpaceOnUse">
<stop stop-color="#00FCC6"/>
<stop offset="1" stop-color="#0095FF"/>
</linearGradient>
</defs>
</svg>
