<svg width="16" height="14" viewBox="0 0 16 14" fill="none" xmlns="http://www.w3.org/2000/svg">
<path fill-rule="evenodd" clip-rule="evenodd" d="M15.5 3.25C15.5 1.59315 14.1569 0.25 12.5 0.25H3.5C1.84315 0.25 0.5 1.59315 0.5 3.25V4.375H3.5C4.94975 4.375 6.125 5.55025 6.125 7C6.125 8.44975 4.94975 9.625 3.5 9.625H0.5V10.75C0.5 12.4069 1.84315 13.75 3.5 13.75H12.5C14.1569 13.75 15.5 12.4069 15.5 10.75V3.25ZM3.5 5.5C4.32843 5.5 5 6.17157 5 7C5 7.82843 4.32843 8.5 3.5 8.5H0.5V5.5H3.5Z" fill="#E7EAFC"/>
</svg>
