<svg width="93" height="90" viewBox="0 0 93 90" fill="none" xmlns="http://www.w3.org/2000/svg">
<path fill-rule="evenodd" clip-rule="evenodd" d="M61.9578 30.8289C53.3133 22.1844 39.2811 22.1844 30.6366 30.8289C21.9922 39.4734 21.9922 53.5054 30.6366 62.1498C39.2811 70.7943 53.3133 70.7943 61.9578 62.1498C70.6023 53.5054 70.6023 39.4734 61.9578 30.8289ZM24.816 25.0083C36.6751 13.1492 55.9193 13.1492 67.7784 25.0083C79.6375 36.8674 79.6375 56.1114 67.7784 67.9705C55.9193 79.8296 36.6751 79.8296 24.816 67.9705C12.9569 56.1114 12.9569 36.8674 24.816 25.0083Z" fill="#E7EAFC"/>
<path fill-rule="evenodd" clip-rule="evenodd" d="M5.18709 37.1977C7.44145 37.4889 9.03288 39.5526 8.74164 41.8069C7.71759 49.7339 9.15796 58.0193 13.474 65.4778L13.4765 65.482C17.8737 73.1014 24.496 78.5869 32.0699 81.6165C34.1804 82.4607 35.207 84.856 34.3627 86.9665C33.5185 89.077 31.1233 90.1035 29.0128 89.2593C19.7811 85.5667 11.6984 78.8683 6.34805 69.5985C1.08561 60.5034 -0.666798 50.387 0.577879 40.7523C0.869112 38.4979 2.93272 36.9065 5.18709 37.1977Z" fill="#E7EAFC"/>
<path fill-rule="evenodd" clip-rule="evenodd" d="M46.2972 8.54771C37.5035 8.54771 29.4401 11.5374 22.9937 16.5808C21.2035 17.9814 18.6167 17.6656 17.216 15.8753C15.8154 14.085 16.1313 11.4982 17.9216 10.0975C25.7605 3.96478 35.5957 0.316101 46.2972 0.316101C56.7836 0.316101 66.4323 3.87666 74.1689 9.77119C75.977 11.1488 76.326 13.7313 74.9484 15.5394C73.5708 17.3475 70.9883 17.6965 69.1802 16.3189C62.7996 11.4574 54.8858 8.54771 46.2972 8.54771Z" fill="#E7EAFC"/>
<path fill-rule="evenodd" clip-rule="evenodd" d="M87.4072 37.1977C89.6616 36.9065 91.7252 38.4979 92.0164 40.7523C93.2611 50.387 91.5086 60.5035 86.2461 69.5986C80.8958 78.8684 72.8132 85.5667 63.5815 89.2593C61.471 90.1035 59.0757 89.077 58.2315 86.9665C57.3873 84.856 58.4139 82.4607 60.5244 81.6165C68.0983 78.5869 74.7206 73.1014 79.1178 65.482L79.1202 65.4778C83.4363 58.0193 84.8767 49.7339 83.8526 41.8069C83.5614 39.5526 85.1528 37.4889 87.4072 37.1977Z" fill="#E7EAFC"/>
</svg>
