<svg width="60" height="60" viewBox="0 0 60 60" fill="none" xmlns="http://www.w3.org/2000/svg">
<path d="M30 0C13.4317 0 0 13.4317 0 30C0 46.5683 13.4317 60 30 60C46.5683 60 60 46.5683 60 30C60 13.4317 46.5688 0 30 0ZM30 59.3263C13.8037 59.3263 0.674185 46.1968 0.674185 30C0.674185 13.8032 13.8037 0.674185 30 0.674185C46.1963 0.674185 59.3263 13.8037 59.3263 30.0005C59.3263 46.1973 46.1968 59.3268 30 59.3268V59.3263Z" fill="#726F9B"/>
<path d="M29.9994 6.70624C17.1344 6.70624 6.70508 17.1355 6.70508 30.0005C6.70508 42.8655 17.1344 53.2949 29.9994 53.2949C42.8644 53.2949 53.2937 42.8655 53.2937 30.0005C53.2937 17.1355 42.8644 6.70624 29.9994 6.70624ZM29.9994 52.589C17.5242 52.589 7.41097 42.4757 7.41097 30.0005C7.41097 17.5254 17.5242 7.41163 29.9994 7.41163C42.4745 7.41163 52.5878 17.5249 52.5878 30C52.5878 42.4752 42.4745 52.5885 29.9994 52.5885V52.589Z" fill="#726F9B"/>
<path d="M57.0328 25.9266L56.3814 26.0242C56.5429 27.121 56.64 28.2271 56.6682 29.3352L54.6927 29.3838C54.6521 27.7402 54.4495 26.1025 54.0854 24.5015L56.6543 23.9175C56.6315 23.806 56.6018 23.6965 56.5756 23.5856L56.4948 23.2542C56.4785 23.1848 56.4601 23.1165 56.4413 23.0481L56.3858 22.8425L56.3304 22.637C56.312 22.5681 56.2932 22.4997 56.2724 22.4319C56.1907 22.1599 56.1139 21.8865 56.0232 21.617L55.891 21.2118L55.7493 20.8101L55.6785 20.609L55.6032 20.4098L55.4516 20.0116L54.8383 20.2523L54.9859 20.6412L55.0598 20.8353L55.1286 21.0315L55.2668 21.4238L55.3956 21.8191C55.4843 22.0817 55.5591 22.3487 55.6388 22.6142C55.6591 22.6806 55.6775 22.7474 55.6953 22.8143L55.7498 23.0149L55.8043 23.2155C55.8226 23.2824 55.8409 23.3493 55.8563 23.4167L53.9412 23.9031C53.5375 22.312 52.9738 20.7615 52.26 19.2829L54.6328 18.1381L54.3286 17.5278L54.13 17.1508L54.0304 16.9626L53.9264 16.7769L53.7183 16.4048L53.5018 16.0378L53.3934 15.8545C53.3572 15.7936 53.3186 15.7336 53.2814 15.6732L53.056 15.3121C52.9802 15.1922 52.9005 15.0743 52.8227 14.9554C52.7444 14.837 52.6677 14.7171 52.5859 14.6017L52.042 14.9732C52.1223 15.0862 52.1966 15.2031 52.2734 15.3185C52.3491 15.4344 52.4269 15.5493 52.5007 15.6663L52.7207 16.019C52.7568 16.0779 52.7945 16.1364 52.8301 16.1958L52.9361 16.3746L53.1477 16.7328L53.3508 17.0959L53.4523 17.2772L53.5494 17.4609L53.7436 17.8285L51.986 18.7315C51.2356 17.2712 50.338 15.8857 49.3126 14.6022L51.3713 12.9581C51.2286 12.7813 51.088 12.6029 50.9393 12.4311L50.6639 12.1061L50.3811 11.7876L50.2399 11.6286L50.0948 11.4725L49.8045 11.161C49.4097 10.7528 49.0104 10.3491 48.5913 9.96515L48.143 10.4481C48.5517 10.8226 48.9421 11.2169 49.327 11.6152L49.6103 11.9193L49.752 12.0714L49.8902 12.227L50.1661 12.5381L50.4346 12.8556L48.9218 14.1267C47.8651 12.8685 46.6832 11.7158 45.3992 10.6904L47.0433 8.63164C46.868 8.48749 46.6852 8.35177 46.5059 8.21307C46.4494 8.16997 46.3934 8.12638 46.3365 8.08378L46.1646 7.95845L45.8203 7.7078L45.4701 7.46507L45.2952 7.34371L45.1174 7.22631L44.7617 6.992C44.6423 6.91572 44.521 6.84141 44.4006 6.76562C44.1613 6.61256 43.9142 6.47187 43.6704 6.32673L43.3405 6.89689C43.5788 7.03906 43.8195 7.17578 44.0529 7.32538C44.1703 7.39919 44.2882 7.47151 44.4051 7.54631L44.7523 7.77467L44.9257 7.8891L45.0966 8.00749L45.4384 8.24427L45.7742 8.48898L45.9422 8.61133C45.9976 8.65245 46.0521 8.69555 46.1076 8.73716L44.9133 10.3114C43.6046 9.31821 42.1977 8.4553 40.7186 7.74148L41.8634 5.36871L41.2457 5.07991C40.2089 4.61526 39.1453 4.20956 38.059 3.8752L37.8648 4.5048C38.9244 4.83124 39.9622 5.22703 40.9742 5.68029L40.1603 7.48092C38.6638 6.80525 37.1 6.28017 35.499 5.91658L36.083 3.34764L35.7501 3.27532C35.6392 3.25203 35.5282 3.22528 35.4167 3.20497C34.3022 2.98355 33.1752 2.82652 32.0424 2.7433L31.9938 3.40015C33.0995 3.48188 34.1996 3.63495 35.287 3.85092L34.8976 5.78828C33.2877 5.46431 31.6456 5.30282 30.0005 5.30233V2.66553L29.3194 2.67395C28.1845 2.70317 27.0506 2.80225 25.9271 2.9677L26.0247 3.6191C27.1214 3.45761 28.2281 3.36052 29.3357 3.33228L29.3843 5.30778C27.7406 5.3484 26.103 5.551 24.502 5.91509L23.918 3.34615C23.8065 3.36894 23.697 3.39866 23.5861 3.42491L23.2547 3.50566C23.1853 3.522 23.117 3.54033 23.0486 3.55916L22.843 3.61464L22.6374 3.67012C22.5686 3.68845 22.5002 3.70727 22.4324 3.72807C22.1604 3.80981 21.887 3.88659 21.6175 3.97724L21.2123 4.1095L20.8106 4.25118L20.6094 4.32201L20.4103 4.39731L20.012 4.54889L20.2528 5.16214L20.6416 5.01453L20.8358 4.94072L21.032 4.87186L21.4243 4.73366L21.8196 4.60486C22.0821 4.51619 22.3491 4.44139 22.6147 4.36164C22.681 4.34133 22.7479 4.323 22.8148 4.30517L23.0154 4.25068L23.216 4.19619C23.2829 4.17786 23.3498 4.15953 23.4171 4.14418L23.9036 6.05924C22.3125 6.46296 20.762 7.02668 19.2834 7.74049L18.1386 5.36772L17.5283 5.67187L17.1513 5.87051L16.9631 5.97007L16.7773 6.0741L16.4053 6.28215L16.0383 6.49862L15.855 6.60711C15.794 6.64327 15.7341 6.68191 15.6737 6.71906L15.3126 6.94445C15.1927 7.02024 15.0748 7.09999 14.9559 7.17776C14.8375 7.25603 14.7176 7.33281 14.6022 7.41454L14.9737 7.95845C15.0867 7.8782 15.2036 7.8039 15.319 7.72712C15.4349 7.65133 15.5498 7.57356 15.6667 7.49975L16.0194 7.27981C16.0784 7.24365 16.1368 7.206 16.1963 7.17033L16.3751 7.06433L16.7333 6.85281L17.0964 6.64971L17.2777 6.54816L17.4614 6.45107L17.829 6.25689L18.732 8.01443C17.2717 8.7649 15.8862 9.66249 14.6027 10.6879L12.9586 8.62917C12.7818 8.77183 12.6034 8.91251 12.4315 9.06112L12.1066 9.33654L11.7881 9.61939L11.6291 9.76057L11.473 9.90571L11.1614 10.196C10.7533 10.5908 10.3495 10.9901 9.96564 11.4091L10.4486 11.8574C10.8231 11.4488 11.2174 11.0589 11.6157 10.6735L11.9198 10.3902L12.0719 10.2485L12.2275 10.1103L12.5385 9.83438L12.8561 9.56589L14.1272 11.0787C12.8689 12.1353 11.7162 13.3173 10.6908 14.6012L8.63213 12.9571C8.48798 13.1325 8.35225 13.3153 8.21355 13.4946C8.17046 13.5511 8.12687 13.607 8.08426 13.664L7.95894 13.8359L7.70829 14.1802L7.46556 14.5304L7.3442 14.7053L7.2268 14.8831L6.99249 15.2388C6.9162 15.3581 6.8419 15.4795 6.76611 15.5999C6.61304 15.8391 6.47236 16.0863 6.32722 16.33L6.89738 16.6599C7.03955 16.4217 7.17676 16.1809 7.32587 15.9476C7.39968 15.8302 7.472 15.7123 7.5468 15.5954L7.77516 15.2482L7.88959 15.0748L8.00798 14.9039L8.24476 14.5621L8.48947 14.2262L8.61182 14.0583C8.65294 14.0028 8.69603 13.9483 8.73764 13.8929L10.3119 15.0872C9.3187 16.3959 8.45578 17.8027 7.74197 19.2819L5.3692 18.1371L5.0804 18.7548C4.61575 19.7916 4.21005 20.8552 3.87569 21.9415L4.50529 22.1357C4.83173 21.0761 5.22752 20.0383 5.68078 19.0263L7.48141 19.8402C6.80574 21.3366 6.28066 22.9005 5.91706 24.5015L3.34813 23.9175L3.2758 24.2503C3.25252 24.3613 3.22577 24.4723 3.20546 24.5837C2.98404 25.6983 2.82701 26.8252 2.74329 27.9581L3.40014 28.0067C3.48187 26.901 3.63494 25.8008 3.85092 24.7135L5.78827 25.1029C5.4643 26.7128 5.30282 28.3549 5.30232 30H2.66602L2.67444 30.6811C2.70366 31.816 2.80273 32.9499 2.96819 34.0733L3.61958 33.9758C3.4581 32.879 3.36101 31.7729 3.33277 30.6648L5.30827 30.6162C5.34889 32.2598 5.55149 33.8975 5.91558 35.4985L3.34664 36.0825C3.36943 36.194 3.39915 36.3035 3.4254 36.4144L3.50615 36.7458C3.52249 36.8152 3.54082 36.8835 3.55965 36.9519L3.61513 37.1575L3.67061 37.363C3.68893 37.4319 3.70776 37.5002 3.72856 37.5681C3.8103 37.8401 3.88708 38.1135 3.97773 38.383L4.10999 38.7882L4.25166 39.1899L4.3225 39.391L4.39779 39.5902L4.54937 39.9884L5.16263 39.7477L5.01501 39.3588L4.9412 39.1647L4.87235 38.9685L4.73414 38.5762L4.60535 38.1809C4.51668 37.9183 4.44188 37.6513 4.36213 37.3858C4.34182 37.3194 4.32349 37.2526 4.30566 37.1857L4.25117 36.9851L4.19668 36.7844C4.17835 36.7176 4.16002 36.6507 4.14467 36.5833L6.05973 36.0969C6.46345 37.688 7.02717 39.2385 7.74098 40.7171L5.3682 41.8619L5.67236 42.4722L5.871 42.8491L5.97056 43.0374L6.07459 43.2231L6.28264 43.5952L6.49911 43.9622L6.6076 44.1455C6.64376 44.2064 6.6824 44.2664 6.71955 44.3268L6.94494 44.6879C7.02073 44.8078 7.10048 44.9257 7.17825 45.0446C7.25652 45.163 7.3333 45.2828 7.41503 45.3983L7.95894 45.0267C7.87869 44.9138 7.80439 44.7969 7.72761 44.6815C7.65182 44.5656 7.57404 44.4506 7.50023 44.3337L7.2803 43.981C7.24413 43.9221 7.20649 43.8636 7.17082 43.8042L7.06481 43.6254L6.85329 43.2672L6.6502 42.9041L6.54865 42.7228L6.45156 42.539L6.25738 42.1715L8.01491 41.2684C8.76538 42.7288 9.66298 44.1143 10.6884 45.3978L8.62966 47.0419C8.77232 47.2187 8.913 47.397 9.06161 47.5689L9.33703 47.8939L9.61988 48.2124L9.76106 48.3714L9.9062 48.5275L10.1965 48.839C10.5913 49.2472 10.9905 49.6509 11.4096 50.0348L11.8579 49.5519C11.4492 49.1774 11.0594 48.7831 10.674 48.3848L10.3907 48.0806L10.249 47.9286L10.1108 47.773L9.83487 47.4619L9.56638 47.1444L11.0792 45.8733C12.1358 47.1315 13.3177 48.2842 14.6017 49.3096L12.9576 51.3683C13.133 51.5125 13.3158 51.6482 13.4951 51.7869C13.5516 51.83 13.6075 51.8736 13.6645 51.9162L13.8364 52.0415L14.1807 52.2922L14.5309 52.5349L14.7057 52.6563L14.8836 52.7737L15.2392 53.008C15.3586 53.0843 15.48 53.1586 15.6004 53.2344C15.8396 53.3874 16.0868 53.5281 16.3305 53.6733L16.6604 53.1031C16.4222 52.9609 16.1814 52.8242 15.9481 52.6746C15.8307 52.6008 15.7128 52.5285 15.5959 52.4537L15.2487 52.2253L15.0753 52.1109L14.9044 51.9925L14.5626 51.7557L14.2267 51.511L14.0588 51.3887C14.0033 51.3475 13.9488 51.3044 13.8934 51.2628L15.0877 49.6886C16.3964 50.6818 17.8032 51.5447 19.2824 52.2585L18.1376 54.6313L18.7553 54.9201C19.7921 55.3847 20.8556 55.7904 21.942 56.1248L22.1361 55.4952C21.0766 55.1687 20.0388 54.7729 19.0268 54.3197L19.8406 52.5191C21.3371 53.1947 22.901 53.7198 24.502 54.0834L23.918 56.6523L24.2508 56.7247C24.3618 56.748 24.4728 56.7747 24.5842 56.795C25.6988 57.0164 26.8257 57.1735 27.9586 57.2572L28.0072 56.6003C26.9015 56.5186 25.8013 56.3655 24.714 56.1496L25.1034 54.2122C26.7133 54.5362 28.3554 54.6977 30.0005 54.6981V57.333L30.6816 57.3245C31.8165 57.2953 32.9503 57.1963 34.0738 57.0308L33.9762 56.3794C32.8795 56.5409 31.7729 56.638 30.6653 56.6662L30.6167 54.6907C32.2603 54.6501 33.898 54.4475 35.499 54.0834L36.083 56.6523C36.1945 56.6296 36.3039 56.5998 36.4149 56.5736L36.7463 56.4928C36.8156 56.4765 36.884 56.4582 36.9524 56.4393L37.1579 56.3839L37.3635 56.3284C37.4324 56.3101 37.5007 56.2912 37.5686 56.2704C37.8405 56.1887 38.114 56.1119 38.3835 56.0213L38.7887 55.889L39.1904 55.7473L39.3915 55.6765L39.5907 55.6012L39.9889 55.4496L39.7482 54.8364L39.3593 54.984L39.1651 55.0578L38.969 55.1266L38.5766 55.2648L38.1814 55.3936C37.9188 55.4823 37.6518 55.5571 37.3863 55.6369C37.3199 55.6572 37.253 55.6755 37.1862 55.6933L36.9856 55.7478L36.7849 55.8023C36.7181 55.8206 36.6512 55.839 36.5838 55.8543L36.0974 53.9393C37.6885 53.5355 39.2389 52.9718 40.7176 52.258L41.8624 54.6308L42.4727 54.3266L42.8496 54.128L43.0379 54.0284L43.2236 53.9244L43.5956 53.7163L43.9627 53.4999L44.146 53.3914C44.2069 53.3552 44.2669 53.3166 44.3273 53.2794L44.6884 53.0541C44.8083 52.9783 44.9262 52.8985 45.0451 52.8207C45.1635 52.7425 45.2833 52.6657 45.3987 52.584L45.0272 52.0401C44.9143 52.1203 44.7974 52.1946 44.682 52.2714C44.566 52.3472 44.4511 52.4249 44.3342 52.4988L43.9815 52.7187C43.9226 52.7549 43.8641 52.7925 43.8047 52.8282L43.6259 52.9342L43.2677 53.1457L42.9046 53.3488L42.7233 53.4503L42.5395 53.5474L42.172 53.7416L41.2689 51.9841C42.7293 51.2336 44.1148 50.336 45.3983 49.3106L47.0424 51.3693C47.2192 51.2267 47.3975 51.086 47.5694 50.9374L47.8944 50.662L48.2129 50.3791L48.3724 50.2379L48.5284 50.0928L48.84 49.8025C49.2482 49.4077 49.6519 49.0084 50.0358 48.5894L49.5528 48.1411C49.1783 48.5497 48.784 48.9396 48.3858 49.325L48.0816 49.6083L47.9295 49.75L47.774 49.8882L47.4629 50.1641L47.1454 50.4326L45.8743 48.9198C47.1325 47.8632 48.2852 46.6812 49.3106 45.3973L51.3693 47.0414C51.5135 46.866 51.6492 46.6832 51.7879 46.5039C51.831 46.4474 51.8746 46.3915 51.9172 46.3345L52.0425 46.1626L52.2932 45.8183L52.5359 45.4681L52.6573 45.2932L52.7747 45.1154L53.009 44.7597C53.0852 44.6404 53.1596 44.519 53.2353 44.3986C53.3884 44.1594 53.5291 43.9122 53.6742 43.6685L53.1041 43.3386C52.9619 43.5763 52.8252 43.8176 52.6756 44.0509C52.6018 44.1683 52.5295 44.2862 52.4547 44.4031L52.2263 44.7503L52.1119 44.9237L51.9935 45.0946L51.7567 45.4364L51.512 45.7723L51.3896 45.9402C51.3485 45.9957 51.3054 46.0502 51.2638 46.1056L49.6896 44.9113C50.6828 43.6026 51.5457 42.1958 52.2595 40.7166L54.6323 41.8614L54.9211 41.2437C55.3857 40.2069 55.7914 39.1429 56.1258 38.057L55.4962 37.8628C55.1697 38.9224 54.7739 39.9602 54.3207 40.9722L52.52 40.1583C53.1957 38.6619 53.7208 37.098 54.0844 35.497L56.6533 36.081L56.7256 35.7482C56.7489 35.6372 56.7757 35.5262 56.796 35.4148C57.0174 34.3002 57.1744 33.1733 57.2582 32.0404L56.6013 31.9918C56.5196 33.0975 56.3665 34.1977 56.1505 35.285L54.2132 34.8956C54.5372 33.2857 54.6986 31.6436 54.6991 29.9985H57.334L57.3255 29.3174C57.2963 28.1825 57.1972 27.0486 57.0318 25.9252L57.0328 25.9266ZM53.4434 35.3534C53.2467 36.2301 52.9941 37.094 52.6979 37.9426C52.4007 38.7907 52.0569 39.6224 51.6675 40.4323C51.2757 41.2412 50.8388 42.0283 50.3603 42.7897L50.2711 42.9329C50.2414 42.9804 50.2097 43.027 50.179 43.074L49.9937 43.3559C49.9333 43.4505 49.8669 43.5417 49.8035 43.6343L49.6113 43.9117L49.4127 44.1841C49.3458 44.2743 49.2819 44.3669 49.212 44.4556L49.007 44.7231C48.9728 44.7677 48.9391 44.8127 48.9039 44.8568L48.7979 44.9881C48.2362 45.6905 47.6358 46.3627 47.0007 47.0003C46.3632 47.6353 45.6915 48.2357 44.9886 48.7974L44.8573 48.9034C44.8132 48.9386 44.7682 48.9718 44.7236 49.0065L44.4561 49.2115C44.3679 49.2814 44.2753 49.3453 44.1846 49.4122L43.9122 49.6108L43.6348 49.803C43.5421 49.8664 43.451 49.9328 43.3564 49.9932L43.0745 50.1785C43.0275 50.2092 42.9809 50.2409 42.9333 50.2706L42.7902 50.3598C42.0288 50.8383 41.2417 51.2752 40.4328 51.667C39.6228 52.0569 38.7911 52.4007 37.9431 52.6974C37.095 52.9936 36.2311 53.2463 35.3538 53.4429C33.6008 53.8397 31.8031 54.0398 30.001 54.0413C28.1989 54.0398 26.4012 53.8392 24.6481 53.4429C23.7713 53.2463 22.9074 52.9936 22.0589 52.6974C21.2108 52.4002 20.3791 52.0564 19.5692 51.667C18.7603 51.2752 17.9731 50.8383 17.2118 50.3598L17.0686 50.2706C17.0211 50.2409 16.9745 50.2092 16.9274 50.1785L16.6456 49.9932C16.551 49.9328 16.4598 49.8664 16.3672 49.803L16.0898 49.6108L15.8173 49.4122C15.7272 49.3453 15.6345 49.2814 15.5459 49.2115L15.2784 49.0065C15.2338 48.9723 15.1887 48.9386 15.1446 48.9034L15.0134 48.7974C14.3109 48.2357 13.6387 47.6353 13.0012 47.0003C12.3662 46.3627 11.7658 45.691 11.204 44.9881L11.098 44.8568C11.0629 44.8127 11.0297 44.7677 10.995 44.7231L10.7899 44.4556C10.7201 44.3674 10.6562 44.2748 10.5893 44.1841L10.3907 43.9117L10.1985 43.6343C10.1351 43.5417 10.0687 43.4505 10.0082 43.3559L9.82298 43.074C9.79227 43.027 9.76056 42.9804 9.73084 42.9329L9.64168 42.7897C9.16316 42.0283 8.72625 41.2412 8.33442 40.4323C7.94457 39.6224 7.60079 38.7907 7.30407 37.9426C7.00785 37.0945 6.75521 36.2306 6.55856 35.3534C6.16177 33.6003 5.96165 31.8026 5.96016 30.0005C5.96165 28.1984 6.16227 26.4007 6.55856 24.6476C6.75521 23.7708 7.00785 22.9069 7.30407 22.0584C7.60129 21.2103 7.94507 20.3786 8.33442 19.5687C8.72625 18.7598 9.16316 17.9727 9.64168 17.2113L9.73084 17.0681C9.76056 17.0206 9.79227 16.974 9.82298 16.9269L10.0082 16.6451C10.0687 16.5505 10.1351 16.4593 10.1985 16.3667L10.3907 16.0893L10.5893 15.8168C10.6562 15.7267 10.7201 15.6341 10.7899 15.5454L10.995 15.2779C11.0292 15.2333 11.0629 15.1882 11.098 15.1441L11.204 15.0129C11.7658 14.3105 12.3662 13.6383 13.0012 13.0007C13.6387 12.3657 14.3104 11.7653 15.0134 11.2036L15.1446 11.0975C15.1887 11.0624 15.2338 11.0292 15.2784 10.9945L15.5459 10.7894C15.634 10.7196 15.7267 10.6557 15.8173 10.5888L16.0898 10.3902L16.3672 10.198C16.4598 10.1346 16.551 10.0682 16.6456 10.0078L16.9274 9.82249C16.9745 9.79178 17.0211 9.76007 17.0686 9.73035L17.2118 9.64119C17.9731 9.16267 18.7603 8.72576 19.5692 8.33393C20.3791 7.94409 21.2108 7.60031 22.0589 7.30358C22.9069 7.00736 23.7708 6.75473 24.6481 6.55807C26.4012 6.16128 28.1989 5.96116 30.001 5.95967C31.8031 5.96116 33.6008 6.16178 35.3538 6.55807C36.2306 6.75473 37.0945 7.00736 37.9431 7.30358C38.7911 7.6008 39.6228 7.94458 40.4328 8.33393C41.2417 8.72576 42.0288 9.16267 42.7902 9.64119L42.9333 9.73035C42.9809 9.76007 43.0275 9.79178 43.0745 9.82249L43.3564 10.0078C43.451 10.0682 43.5421 10.1346 43.6348 10.198L43.9122 10.3902L44.1846 10.5888C44.2748 10.6557 44.3674 10.7196 44.4561 10.7894L44.7236 10.9945C44.7682 11.0287 44.8132 11.0624 44.8573 11.0975L44.9886 11.2036C45.691 11.7653 46.3632 12.3657 47.0007 13.0007C47.6358 13.6383 48.2362 14.31 48.7979 15.0129L48.9039 15.1441C48.9391 15.1882 48.9723 15.2333 49.007 15.2779L49.212 15.5454C49.2819 15.6336 49.3458 15.7262 49.4127 15.8168L49.6113 16.0893L49.8035 16.3667C49.8669 16.4593 49.9333 16.5505 49.9937 16.6451L50.179 16.9269C50.2097 16.974 50.2414 17.0206 50.2711 17.0681L50.3603 17.2113C50.8388 17.9727 51.2757 18.7598 51.6675 19.5687C52.0574 20.3786 52.4007 21.2103 52.6979 22.0584C52.9941 22.9064 53.2467 23.7703 53.4434 24.6476C53.8402 26.4007 54.0403 28.1984 54.0418 30.0005C54.0403 31.8026 53.8397 33.6003 53.4434 35.3534Z" fill="#726F9B"/>
<path d="M57.9386 23.6252C57.7033 22.579 57.4026 21.5476 57.0489 20.5356C56.6942 19.5236 56.2841 18.5314 55.8189 17.5649C53.9534 13.7036 51.2175 10.2693 47.8644 7.60026L47.7079 7.47444C47.6554 7.43283 47.6019 7.3927 47.5489 7.35159L47.2299 7.10738C47.1244 7.02465 47.0144 6.94787 46.9069 6.86861L46.582 6.63233L46.2521 6.40347C46.1416 6.32768 46.0326 6.24941 45.9202 6.17709L45.5843 5.95616C45.5283 5.9195 45.4728 5.88186 45.4159 5.84669L45.2455 5.74018C44.3385 5.16953 43.3998 4.6489 42.4348 4.18178C41.4689 3.71713 40.4762 3.30648 39.4641 2.9518C38.4521 2.59811 37.4208 2.29743 36.3746 2.06213C34.2832 1.58857 32.1392 1.3503 29.9998 1.34882C27.8598 1.3503 25.7164 1.58857 23.625 2.06213C22.5788 2.29743 21.5475 2.59811 20.5354 2.9518C19.5234 3.30648 18.5312 3.71664 17.5648 4.18178C16.5998 4.6489 15.6611 5.16953 14.7541 5.74018L14.5837 5.84669C14.5267 5.88235 14.4717 5.92 14.4153 5.95616L14.0794 6.17709C13.967 6.24991 13.858 6.32768 13.7475 6.40347L13.4176 6.63233L13.0926 6.86861C12.9852 6.94837 12.8752 7.02515 12.7697 7.10738L12.4507 7.35159C12.3977 7.3927 12.3442 7.43283 12.2916 7.47444L12.1351 7.60026C8.78153 10.2693 6.04615 13.7036 4.18062 17.5649C3.71597 18.5309 3.30532 19.5236 2.95064 20.5356C2.59695 21.5481 2.29627 22.579 2.06097 23.6252C1.58741 25.7166 1.34914 27.8605 1.34766 29.9999C1.34914 32.1399 1.58741 34.2833 2.06097 36.3747C2.29627 37.4209 2.59695 38.4523 2.95064 39.4643C3.30532 40.4763 3.71548 41.4685 4.18062 42.435C6.04615 46.2963 8.78202 49.7306 12.1351 52.3996L12.2916 52.5255C12.3442 52.5671 12.3977 52.6072 12.4507 52.6483L12.7697 52.8925C12.8752 52.9752 12.9852 53.052 13.0926 53.1313L13.4176 53.3676L13.7475 53.5964C13.858 53.6722 13.967 53.7505 14.0794 53.8228L14.4153 54.0437C14.4712 54.0804 14.5267 54.118 14.5837 54.1532L14.7541 54.2597C15.6611 54.8304 16.5998 55.351 17.5648 55.8181C18.5307 56.2828 19.5234 56.6934 20.5354 57.0481C21.5479 57.4018 22.5788 57.7025 23.625 57.9378C25.7164 58.4113 27.8603 58.6496 29.9998 58.6511C32.1397 58.6496 34.2832 58.4113 36.3746 57.9378C37.4208 57.7025 38.4521 57.4018 39.4641 57.0481C40.4762 56.6934 41.4684 56.2833 42.4348 55.8181C43.3998 55.351 44.3385 54.8304 45.2455 54.2597L45.4159 54.1532C45.4728 54.1175 45.5278 54.0799 45.5843 54.0437L45.9202 53.8228C46.0326 53.75 46.1416 53.6722 46.2521 53.5964L46.582 53.3676L46.9069 53.1313C47.0144 53.0515 47.1244 52.9747 47.2299 52.8925L47.5489 52.6483C47.6019 52.6072 47.6554 52.5671 47.7079 52.5255L47.8644 52.3996C51.218 49.7306 53.9534 46.2963 55.8189 42.435C56.2836 41.469 56.6942 40.4763 57.0489 39.4643C57.4026 38.4518 57.7033 37.4209 57.9386 36.3747C58.4122 34.2833 58.6504 32.1394 58.6519 29.9999C58.6504 27.86 58.4122 25.7166 57.9386 23.6252ZM57.9842 30.6974L55.3503 30.633L55.3271 31.2651C55.2745 32.3182 55.1557 33.3674 54.9763 34.4057L55.6253 34.5191C55.8095 33.4536 55.9314 32.3772 55.9849 31.2973L57.9584 31.3944C57.8668 33.2525 57.5913 35.1031 57.1331 36.9082L54.5795 36.2598C54.5558 36.3624 54.5256 36.4634 54.4988 36.5654L54.4161 36.8706C54.1317 37.8851 53.78 38.8803 53.3733 39.8522L53.9802 40.1083C54.3973 39.1106 54.7584 38.0897 55.0501 37.0484L56.9523 37.5824C56.51 39.1507 55.9319 40.6804 55.2255 42.1487C55.122 42.3572 55.0189 42.5657 54.9139 42.7738L52.5704 41.5701C52.4713 41.7563 52.3747 41.9436 52.2741 42.1288L52.0815 42.4736C52.0493 42.5311 52.018 42.589 51.9844 42.646L51.8838 42.8159L51.6827 43.1562L51.4731 43.4916L51.3686 43.659L51.2601 43.824L51.0427 44.1544C50.9689 44.2633 50.8926 44.3708 50.8178 44.4793C50.743 44.5878 50.6682 44.6963 50.5894 44.8023L51.1239 45.1872C51.2047 45.0787 51.2809 44.9673 51.3582 44.8563C51.435 44.7448 51.5128 44.6344 51.5886 44.5224L51.8115 44.1836L51.9229 44.0142L52.0304 43.8423L52.2449 43.4985L52.4515 43.1498L52.5545 42.9754C52.5887 42.917 52.6209 42.8575 52.6541 42.7986L52.8517 42.4449L54.5865 43.3915C53.6943 45.0257 52.6387 46.5692 51.4414 47.9939L49.4238 46.2993L49.2198 46.541C49.1524 46.6223 49.0806 46.6995 49.0112 46.7788C48.9235 46.8769 48.8368 46.9764 48.7482 47.074L48.4787 47.3633L48.344 47.508L48.2058 47.6491L47.9298 47.932L47.647 48.2079L47.5058 48.3461L47.3612 48.4808L47.0719 48.7503C46.9743 48.839 46.8752 48.9257 46.7766 49.0134L47.2126 49.5072C47.3136 49.4171 47.4152 49.3284 47.5152 49.2378L47.8119 48.9613L47.9601 48.8231L48.1052 48.6815L48.3955 48.3981L48.6788 48.1078L48.8205 47.9627L48.9587 47.8146L49.2351 47.5179C49.3258 47.4178 49.4149 47.3158 49.5046 47.2152L50.9857 48.5234C50.4468 49.1337 49.882 49.7207 49.2931 50.2825C48.7036 50.8437 48.0884 51.3782 47.4523 51.8864C47.2725 52.0341 47.0857 52.1728 46.9015 52.3149L45.3089 50.2161L45.1836 50.3122L45.0563 50.4058L44.8006 50.5921C44.6951 50.6708 44.5862 50.7451 44.4777 50.8204C44.3692 50.8952 44.2617 50.971 44.1527 51.0453L43.8223 51.2628L43.6574 51.3713L43.4899 51.4758L43.1546 51.6853L42.8143 51.8864L42.6443 51.987C42.5874 52.0202 42.5294 52.0514 42.472 52.0841L42.1272 52.2768L42.4427 52.8549L42.7964 52.6572C42.8554 52.624 42.9148 52.5918 42.9733 52.5577L43.1476 52.4546L43.4964 52.2481L43.8401 52.0336L44.012 51.9261L44.1814 51.8146L44.5203 51.5917C44.6322 51.5159 44.7427 51.4381 44.8541 51.3614C44.9651 51.2846 45.0771 51.2078 45.185 51.1271L46.3397 52.7305C44.8299 53.8183 43.211 54.7566 41.5144 55.5234L40.4296 53.1224L39.85 53.3755C38.8781 53.7817 37.8829 54.1334 36.8684 54.4182L37.0463 55.0523C38.0875 54.7605 39.1085 54.3994 40.1061 53.9823L40.8744 55.8028C39.3725 56.4353 37.8151 56.9352 36.227 57.2982L35.8856 57.3726C35.7717 57.3963 35.6588 57.4236 35.5438 57.4444L35.0247 54.8616L34.7141 54.921C34.6106 54.9403 34.5076 54.9626 34.403 54.9785C33.3648 55.1578 32.3156 55.2767 31.2625 55.3292L31.2947 55.987C32.3745 55.9335 33.451 55.8112 34.5165 55.6274L34.8573 57.5737C33.0235 57.8947 31.1584 58.0324 29.2998 57.9863L29.3642 55.3525L28.7322 55.3292C27.679 55.2767 26.6298 55.1578 25.5916 54.9785L25.4781 55.6274C26.5437 55.8117 27.6201 55.9335 28.7 55.987L28.6029 57.9605C26.9776 57.8768 25.3568 57.6609 23.7682 57.2982C23.6542 57.275 23.5418 57.2448 23.4283 57.218L23.089 57.1353L23.7374 54.5817C23.6349 54.5579 23.5338 54.5277 23.4318 54.501L23.1267 54.4182C22.1122 54.1339 21.117 53.7822 20.1451 53.3755L19.889 53.9823C20.8866 54.3994 21.9076 54.7605 22.9488 55.0523L22.4148 56.9545C20.6221 56.4512 18.8789 55.7681 17.2235 54.9161L18.4272 52.5725C18.2409 52.4734 18.0537 52.3768 17.8684 52.2763L17.5236 52.0836C17.4662 52.0514 17.4082 52.0202 17.3513 51.9865L17.1813 51.8859L16.841 51.6848L16.5057 51.4753L16.3382 51.3708L16.1733 51.2623L15.8429 51.0448C15.7339 50.971 15.6259 50.8947 15.5179 50.8199C15.4094 50.7451 15.301 50.6703 15.195 50.5916L14.8101 51.1261C14.9185 51.2068 15.03 51.2831 15.141 51.3604C15.2524 51.4371 15.3629 51.5149 15.4743 51.5907L15.8132 51.8136L15.9826 51.9251L16.1545 52.0326L16.4982 52.2471L16.847 52.4536L17.0213 52.5567C17.0798 52.5908 17.1392 52.623 17.1982 52.6562L17.5519 52.8539L16.6052 54.5886C15.1751 53.8084 13.8154 52.9009 12.5423 51.8859C12.3615 51.7398 12.1787 51.5957 12.0024 51.4436L13.697 49.426L13.4552 49.2219C13.374 49.1545 13.2967 49.0827 13.2175 49.0134C13.1194 48.9257 13.0198 48.839 12.9222 48.7503L12.633 48.4808L12.4883 48.3461L12.3471 48.2079L12.0643 47.932L11.7884 47.6491L11.6502 47.508L11.5154 47.3633L11.2459 47.074C11.1573 46.9764 11.0706 46.8774 10.9829 46.7788L10.489 47.2147C10.5792 47.3158 10.6679 47.4173 10.7585 47.5174L11.0349 47.8141L11.1731 47.9622L11.3148 48.1073L11.5981 48.3976L11.8884 48.681L12.0336 48.8226L12.1817 48.9608L12.4784 49.2373C12.5785 49.3279 12.6805 49.4171 12.7811 49.5067L11.4728 50.9879C10.0784 49.7559 8.8058 48.3857 7.68084 46.9036L9.77968 45.311L9.68358 45.1857L9.58995 45.0584L9.4037 44.8028C9.32494 44.6973 9.25063 44.5883 9.17534 44.4798C9.10054 44.3713 9.02475 44.2638 8.95044 44.1549L8.73298 43.8245L8.6245 43.6595L8.51998 43.4921L8.31044 43.1567L8.10932 42.8164L8.00876 42.6465C7.97557 42.5895 7.94437 42.5316 7.91167 42.4741L7.71898 42.1293L7.14089 42.4449L7.33854 42.7986C7.37173 42.8575 7.40393 42.917 7.43811 42.9754L7.54114 43.1498L7.74771 43.4985L7.9622 43.8423L8.06969 44.0142L8.18115 44.1836L8.40406 44.5224C8.47985 44.6344 8.55762 44.7448 8.6344 44.8563C8.71118 44.9673 8.78747 45.0787 8.86871 45.1872L7.26523 46.3419C6.31463 45.0198 5.47698 43.6159 4.76812 42.1492L4.47239 41.5166L6.8734 40.4317L6.62027 39.8522C6.21407 38.8803 5.86237 37.8851 5.57754 36.8706L4.94348 37.0484C5.23524 38.0897 5.59636 39.1106 6.01345 40.1083L4.193 40.8766C3.46928 39.1606 2.91844 37.3719 2.55138 35.5465L5.13419 35.0274L5.07475 34.7168C5.05543 34.6132 5.03314 34.5102 5.01728 34.4057C4.83796 33.3674 4.71908 32.3182 4.66657 31.2651L4.00873 31.2973C4.06223 32.3777 4.18458 33.4536 4.36836 34.5191L2.42209 34.8599C2.27893 34.0579 2.17788 33.249 2.10754 32.4381C2.03769 31.6272 2.00252 30.8133 2.00054 29.9999L2.00946 29.303L4.64329 29.3674L4.66657 28.7353C4.71908 27.6822 4.83796 26.633 5.01728 25.5947L4.36836 25.4813C4.18409 26.5468 4.06223 27.6232 4.00873 28.7031L2.03522 28.606C2.12686 26.7479 2.40228 24.8972 2.86049 23.0922L5.41407 23.7406C5.43784 23.638 5.46806 23.537 5.49481 23.4349L5.57754 23.1298C5.86187 22.1153 6.21358 21.1201 6.62027 20.1482L6.01345 19.8921C5.59636 20.8898 5.23524 21.9107 4.94348 22.952L3.04129 22.418C3.48365 20.8497 4.06173 19.32 4.76812 17.8517C4.87165 17.6432 4.97468 17.4346 5.0797 17.2266L7.42325 18.4303C7.52232 18.2441 7.61892 18.0568 7.71947 17.8716L7.91217 17.5268C7.94437 17.4693 7.97558 17.4114 8.00926 17.3544L8.10982 17.1845L8.31093 16.8442L8.52047 16.5088L8.62499 16.3414L8.73348 16.1764L8.95094 15.846C9.02475 15.737 9.10103 15.6296 9.17583 15.5211C9.25063 15.4126 9.32543 15.3041 9.40419 15.1981L8.8697 14.8132C8.78896 14.9217 8.71267 15.0331 8.63539 15.1441C8.55861 15.2556 8.48084 15.366 8.40505 15.4775L8.18214 15.8163L8.07068 15.9857L7.96319 16.1576L7.7487 16.5014L7.54213 16.8501L7.4391 17.0245C7.40492 17.0829 7.37272 17.1424 7.33953 17.2013L7.14188 17.555L5.40713 16.6084C6.29928 14.9742 7.35489 13.4306 8.55217 12.006L10.5698 13.7006L10.7739 13.4589C10.8412 13.3776 10.9131 13.3004 10.9824 13.2211C11.0701 13.123 11.1568 13.0235 11.2454 12.9259L11.5149 12.6366L11.6497 12.4919L11.7879 12.3508L12.0638 12.0679L12.3466 11.792L12.4878 11.6538L12.6325 11.5191L12.9217 11.2496C13.0193 11.1609 13.1184 11.0742 13.217 10.9865L12.7811 10.4927C12.68 10.5828 12.5785 10.6715 12.4784 10.7621L12.1817 11.0386L12.0336 11.1768L11.8884 11.3184L11.5981 11.6018L11.3148 11.8921L11.1731 12.0372L11.0349 12.1853L10.7585 12.482C10.6679 12.5821 10.5787 12.6841 10.489 12.7847L9.00791 11.4765C9.54686 10.8662 10.1116 10.2792 10.701 9.71743C11.2905 9.15619 11.9058 8.62169 12.5418 8.11345C12.7216 7.96584 12.9084 7.82714 13.0926 7.68497L14.6852 9.78381L14.8106 9.68771L14.9379 9.59408L15.1935 9.40783C15.299 9.32907 15.408 9.25476 15.5164 9.17947C15.6249 9.10467 15.7324 9.02888 15.8414 8.95458L16.1718 8.73711L16.3368 8.62863L16.5042 8.52411L16.8395 8.31457L17.1799 8.11345L17.3498 8.0129C17.4067 7.97971 17.4647 7.9485 17.5222 7.9158L17.8669 7.72311L17.5514 7.14502L17.1977 7.34267C17.1387 7.37586 17.0793 7.40806 17.0209 7.44224L16.8465 7.54528L16.4978 7.75184L16.154 7.96633L15.9821 8.07382L15.8127 8.18528L15.4738 8.40819C15.3619 8.48398 15.2514 8.56175 15.1405 8.63854C15.0295 8.71532 14.9176 8.7921 14.8096 8.87284L13.6549 7.26936C15.1647 6.18155 16.7836 5.24334 18.4802 4.47652L19.565 6.87753L20.1446 6.6244C21.1165 6.21821 22.1117 5.8665 23.1262 5.58167L22.9483 4.94761C21.9071 5.23937 20.8861 5.60049 19.8885 6.01758L19.1202 4.19714C20.6221 3.56456 22.1795 3.06474 23.7677 2.70164L24.109 2.62734C24.2229 2.60356 24.3358 2.57632 24.4508 2.55551L24.9699 5.13832L25.2805 5.07888C25.384 5.05956 25.4871 5.03727 25.5911 5.02142C26.6294 4.8421 27.6785 4.72321 28.7317 4.6707L28.6995 4.01286C27.6196 4.06636 26.5432 4.18872 25.4776 4.37249L25.1368 2.42622C26.9707 2.10523 28.8357 1.96752 30.6943 2.01359L30.6299 4.64742L31.262 4.6707C32.3151 4.72321 33.3643 4.8421 34.4025 5.02142L34.516 4.37249C33.4505 4.18822 32.374 4.06636 31.2942 4.01286L31.3912 2.03935C33.0165 2.12306 34.6373 2.33904 36.226 2.70164C36.3399 2.72493 36.4523 2.75514 36.5658 2.78189L36.9051 2.86462L36.2567 5.4182C36.3592 5.44198 36.4603 5.47219 36.5623 5.49894L36.8675 5.58167C37.882 5.866 38.8771 6.21771 39.849 6.6244L40.1051 6.01758C39.1075 5.60049 38.0865 5.23937 37.0453 4.94761L37.5793 3.04542C39.372 3.54871 41.1152 4.23181 42.7707 5.08383L41.5669 7.42738C41.7532 7.52645 41.9404 7.62305 42.1257 7.7236L42.4705 7.9163C42.5279 7.9485 42.5859 7.97971 42.6429 8.01339L42.8128 8.11395L43.1531 8.31507L43.4884 8.5246L43.6559 8.62912L43.8208 8.73761L44.1512 8.95507C44.2602 9.02888 44.3682 9.10516 44.4762 9.17996C44.5847 9.25476 44.6932 9.32956 44.7992 9.40832L45.1841 8.87383C45.0756 8.79309 44.9641 8.7168 44.8532 8.63953C44.7417 8.56275 44.6312 8.48497 44.5193 8.40918L44.1805 8.18627L44.011 8.07482L43.8392 7.96732L43.4954 7.75283L43.1466 7.54627L42.9723 7.44323C42.9138 7.40905 42.8544 7.37685 42.7954 7.34366L42.4417 7.14601L43.3884 5.41126C44.8185 6.19146 46.1782 7.09896 47.4513 8.11395C47.6321 8.26008 47.8149 8.40423 47.9913 8.55631L46.2966 10.5739L46.5384 10.778C46.6196 10.8454 46.6969 10.9172 46.7761 10.9865C46.8742 11.0742 46.9738 11.1609 47.0714 11.2496L47.3607 11.5191L47.5053 11.6538L47.6465 11.792L47.9293 12.0679L48.2053 12.3508L48.3435 12.4919L48.4782 12.6366L48.7477 12.9259C48.8363 13.0235 48.923 13.1225 49.0107 13.2211L49.5046 12.7852C49.4144 12.6841 49.3258 12.5826 49.2351 12.4825L48.9587 12.1858L48.8205 12.0377L48.6788 11.8926L48.3955 11.6023L48.1052 11.3189L47.9601 11.1773L47.8119 11.0391L47.5152 10.7626C47.4152 10.672 47.3131 10.5828 47.2126 10.4932L48.5208 9.01204C49.9152 10.244 51.1878 11.6142 52.3128 13.0963L50.2139 14.6889L50.31 14.8142L50.4037 14.9415L50.5899 15.1971C50.6687 15.3026 50.743 15.4116 50.8183 15.5201C50.8931 15.6286 50.9689 15.7361 51.0432 15.845L51.2606 16.1754L51.3691 16.3404L51.4736 16.5078L51.6832 16.8432L51.8843 17.1835L51.9848 17.3534C52.018 17.4104 52.0493 17.4683 52.0819 17.5258L52.2746 17.8706L52.8527 17.555L52.6551 17.2013C52.6219 17.1424 52.5897 17.0829 52.5555 17.0245L52.4525 16.8501L52.2459 16.5014L52.0314 16.1576L51.9239 15.9857L51.8125 15.8163L51.5896 15.4775C51.5138 15.3655 51.436 15.2551 51.3592 15.1441C51.2824 15.0331 51.2056 14.9217 51.1249 14.8132L52.7284 13.6585C53.679 14.9806 54.5166 16.3845 55.2255 17.8512L55.5212 18.4838L53.1202 19.5687L53.3733 20.1482C53.7795 21.1201 54.1313 22.1153 54.4161 23.1298L55.0501 22.952C54.7584 21.9107 54.3973 20.8898 53.9802 19.8921L55.8006 19.1238C56.5243 20.8397 57.0752 22.6285 57.4422 24.4539L54.8594 24.973L54.9189 25.2836C54.9382 25.3872 54.9605 25.4902 54.9763 25.5947C55.1557 26.633 55.2745 27.6822 55.3271 28.7353L55.9849 28.7031C55.9314 27.6227 55.809 26.5468 55.6253 25.4813L57.5715 25.1405C57.7147 25.9425 57.8157 26.7514 57.8861 27.5623C57.9559 28.3732 57.9911 29.1871 57.9931 30.0004L57.9842 30.6979V30.6974Z" fill="#726F9B"/>
</svg>
