<svg width="329" height="221" viewBox="0 0 329 221" fill="none" xmlns="http://www.w3.org/2000/svg">
<path opacity="0.2" d="M-298.83 369.57C-127.537 291.833 -69.0842 206.104 -47.9002 141.068C-24.2601 68.4844 -36.4517 -10.8459 -10.9323 -15.7724C5.40819 -18.9281 25.5147 10.6947 63.0009 75.6315C176.677 272.544 179.251 324.837 227.683 338.409C295.529 357.435 337.353 267.925 441.642 269.855C518.238 271.275 580.22 321.113 621.995 365.413M-302.943 361.756C-136.473 285.692 -74.6628 202.361 -51.7988 141.409C-26.2489 73.2926 -38.3154 -1.93984 -13.0616 -5.49799C3.17426 -7.78723 22.9029 21.329 59.1125 84.0404C169.156 274.592 172.569 327.536 220.628 340.438C288.868 358.501 328.869 262.516 434.263 261.209C436.561 261.181 438.823 261.181 441.088 261.238C515.866 263.167 578.731 313.028 621.4 357.057M-307.043 353.941C-145.409 279.558 -80.2897 198.768 -55.687 141.754C-28.2656 78.2048 -40.1609 6.97559 -15.1804 4.78105C0.955909 3.36063 20.3092 31.9726 55.232 92.4563C161.619 276.637 165.852 330.402 213.592 342.466C282.164 359.796 320.423 257.059 426.902 252.561C429.239 252.462 431.567 252.362 433.896 252.374C509.91 252.762 576.043 303.654 620.819 348.697M-311.152 346.126C-154.331 273.403 -86.0049 195.347 -59.5817 142.1C-30.3654 83.2213 -42.0029 15.8982 -17.3083 15.0625C-1.26393 14.518 17.6911 42.6139 51.3449 100.87C154.089 278.702 159.159 333.175 206.549 344.495C275.486 360.963 311.984 251.562 419.535 243.913C421.923 243.743 424.307 243.579 426.684 243.508C503.929 241.221 573.335 294.276 620.217 340.333M-315.26 338.312C-163.262 267.27 -91.8336 192.108 -63.4777 142.446C-32.5839 88.3395 -43.8333 24.8303 -19.4323 25.344C-3.47731 25.6778 15.0845 53.2576 47.4618 109.286C146.559 280.756 152.47 335.94 199.508 346.522C268.83 362.118 303.556 246.025 412.17 235.256C414.608 235.019 417.049 234.782 419.497 234.635C497.968 230.275 570.647 284.895 619.643 331.974M-319.368 330.497C-172.191 261.133 -97.8105 189.066 -67.366 142.794C-34.9709 93.5524 -45.6638 33.7694 -21.5513 35.6231C-5.68053 36.8446 12.4804 63.8989 43.5811 117.702C139.038 282.811 145.791 338.695 192.471 348.551C262.174 363.264 295.136 240.45 404.809 226.615C407.301 226.3 409.793 225.98 412.305 225.777C491.998 219.361 567.967 275.525 619.061 323.622M-323.473 322.682C-181.121 254.99 -103.981 186.218 -71.2645 143.139C-37.6055 98.8174 -47.4788 42.7203 -23.6803 45.9044C-7.88874 48.0161 9.86882 74.5495 39.6903 126.115C131.504 284.864 139.107 341.444 185.425 350.577C255.523 364.4 286.708 234.841 397.438 217.967C399.991 217.578 402.529 217.181 405.098 216.913C486.009 208.457 565.263 266.154 618.464 315.263M-327.581 314.868C-190.052 248.849 -117.962 176.614 -75.1579 143.485C-49.2326 98.7252 -49.2965 51.6833 -25.8044 56.1837C-10.0919 59.1949 7.26223 85.1838 35.8071 134.543C123.974 286.931 132.428 344.195 178.383 352.618C248.875 365.536 278.283 229.212 390.07 209.331C392.669 208.869 395.271 208.396 397.903 208.059C480.037 197.584 562.585 256.785 617.885 306.916M-331.689 307.053C-198.981 242.708 -124.943 172.397 -79.0519 143.83C-52.7998 103.045 -51.1147 60.6578 -27.929 66.465C-12.2932 70.3806 4.65246 95.8203 31.9207 142.947C116.432 288.973 125.754 346.915 171.344 354.635C242.231 366.637 269.854 223.528 382.703 200.671C385.354 200.133 388.009 199.584 390.705 199.182C474.062 186.703 559.881 247.398 617.297 298.545M-335.797 299.238C-207.912 236.567 -131.926 168.186 -82.9478 144.176C-56.3689 107.364 -52.9323 69.642 -30.053 76.7441C-14.4963 81.5712 2.04594 106.464 28.035 151.361C108.916 291.035 119.082 349.635 164.302 356.659C235.593 367.736 261.419 217.827 375.338 192.018C378.039 191.407 380.751 190.785 383.508 190.314C468.088 175.844 557.187 238.018 616.71 290.183M-339.903 291.424C-216.838 230.426 -138.907 163.972 -86.8419 144.524C-59.9362 111.686 -54.7531 78.6404 -32.1802 87.0256C-16.7027 92.7736 -0.561315 117.11 24.1512 159.77C101.386 293.076 112.413 352.343 157.26 358.683C228.954 368.818 252.977 212.098 367.971 183.365C370.726 182.677 373.491 181.985 376.307 181.443C462.118 164.997 554.493 228.639 616.123 281.819M-344.012 283.607C-225.775 224.288 -145.883 159.758 -90.7334 144.879C-63.5009 116.016 -56.5766 87.6529 -34.3075 97.3165C-18.9142 103.992 -3.17118 127.761 20.2622 168.202C93.8533 295.148 105.741 355.063 150.22 360.726C222.323 369.909 244.528 206.374 360.605 174.734C363.413 173.969 366.222 173.205 369.11 172.603C456.151 154.19 551.799 219.285 615.535 273.484M-348.119 275.792C-234.703 218.147 -152.873 155.544 -94.6294 145.215C-67.07 120.327 -58.4121 96.6584 -36.429 107.586C-21.1251 115.195 -5.77768 138.395 16.3791 176.609C86.3369 297.193 99.0774 357.75 143.176 362.745C215.688 370.958 236.065 200.593 353.239 166.077C356.096 165.234 358.971 164.4 361.92 163.721C450.197 143.362 549.113 209.885 614.956 265.11M-352.22 267.977C-243.634 212.006 -159.856 151.333 -98.5226 145.566C-70.639 124.653 -60.2525 105.678 -38.5528 117.868C-23.3408 126.414 -8.38413 149.036 12.496 185.023C78.8003 299.248 92.4114 360.444 136.135 364.774C209.06 372.004 227.594 194.797 345.871 157.429C348.782 156.508 351.713 155.603 354.715 154.855C444.231 132.545 546.413 200.517 614.376 256.751M-356.333 260.163C-252.565 205.865 -166.836 147.119 -102.416 145.909C-74.2057 128.971 -62.0984 114.7 -40.677 128.154C-25.5646 137.64 -10.9909 159.682 8.59989 193.443C71.2607 301.308 85.7349 363.122 129.083 366.805C202.419 373.039 219.102 189.016 338.495 148.783C341.457 147.786 344.444 146.813 347.505 145.994C438.269 121.748 543.709 191.147 613.766 248.397M-360.441 252.348C-261.496 199.724 -173.819 142.905 -106.312 146.255C-77.7723 133.291 -63.9544 123.727 -42.801 138.428C-27.7933 148.859 -13.6 170.321 4.72695 201.855C63.7418 303.355 79.0789 365.787 122.055 368.829C195.801 374.049 210.62 183.19 331.139 140.142C334.152 139.067 337.195 138.026 340.331 137.138C432.331 110.95 541.026 181.765 613.19 240.024M-364.549 244.533C-270.425 193.585 -180.802 138.7 -110.206 146.6C-81.3549 137.604 -65.8186 132.758 -44.9257 148.71C-30.0303 160.085 -16.2072 180.963 0.840582 210.261C56.212 305.401 72.4121 368.441 115.012 370.846C189.17 375.037 202.115 177.352 323.773 131.473C326.837 130.318 329.936 129.21 333.12 128.251C426.386 100.164 538.339 172.39 612.602 231.674M-368.657 236.709C-279.356 187.435 -187.785 134.47 -114.102 146.939C-84.9112 141.922 -67.6898 141.778 -47.0548 158.979C-32.2717 171.29 -18.8163 191.594 -3.04772 218.675C48.6803 307.451 65.7434 371.095 107.968 372.875C182.54 376.029 193.6 171.522 316.407 122.839C319.519 121.603 322.678 120.429 325.92 119.399C420.45 89.3883 535.638 163.018 612.015 223.327M-372.763 228.897C-288.287 181.313 -195.736 159.99 -117.994 147.294C-88.9023 142.543 -69.5643 150.819 -49.1769 169.27C-34.5139 182.527 -21.421 202.247 -6.92902 227.1C41.153 309.52 59.0765 373.751 100.929 374.913C175.906 376.994 185.075 165.669 309.041 114.184C312.201 112.872 315.424 111.629 318.722 110.529C414.516 78.6095 532.937 153.638 611.43 214.955M-376.871 221.085C-297.211 175.158 -203.508 132.716 -121.887 147.635C-92.4433 153.018 -71.4483 159.843 -51.3009 179.547C-36.763 193.751 -24.0301 212.884 -10.8147 235.511C33.6264 311.57 52.4052 376.384 93.8872 376.935C169.268 377.939 176.537 159.805 301.672 105.531C304.887 104.139 308.165 102.837 311.525 101.661C408.659 68.0181 530.251 144.261 610.85 206.596M-380.979 213.272C-306.147 169.019 -209.861 125.15 -125.781 147.983C-95.9569 156.084 -73.338 168.875 -53.4255 189.828C-39.0178 204.979 -26.6373 223.53 -14.7011 243.927C26.0967 313.627 45.7334 379.182 86.8452 378.966C162.627 378.569 167.899 153.773 294.306 96.8857C297.566 95.4085 300.905 94.0457 304.325 92.7973C402.705 57.1661 527.557 134.884 610.255 198.235M-385.087 205.46C-315.078 162.883 -215.715 117.631 -129.677 148.333C0.0260687 194.625 11.2474 382.084 79.8061 380.995C157.96 379.755 159.558 135.881 297.128 83.9338C396.749 46.3164 524.874 125.509 609.668 189.88" stroke="url(#paint0_linear_705_1402)" stroke-width="0.988792" stroke-miterlimit="10"/>
<defs>
<linearGradient id="paint0_linear_705_1402" x1="112.522" y1="89.8007" x2="118.208" y2="248.996" gradientUnits="userSpaceOnUse">
<stop stop-color="#4B5DFF"/>
<stop offset="1" stop-color="#979BC0" stop-opacity="0"/>
<stop offset="1" stop-color="#4B5DFF" stop-opacity="0"/>
</linearGradient>
</defs>
</svg>
