<svg width="24" height="18" viewBox="0 0 24 18" fill="none" xmlns="http://www.w3.org/2000/svg">
<path d="M5.29569 13.9361C10.5101 15.9711 14.9477 16.3675 19.9763 13.2C19.9394 13.2553 18.9447 14.729 16.3289 15.4842C16.8815 16.2395 17.6368 17.1052 17.6368 17.1052C19.3131 17.1052 20.9526 16.6263 22.371 15.7052C23.4763 14.9684 24.1026 13.6973 23.9736 12.371C23.7526 10.1052 23.2183 7.89471 22.3894 5.77634C21.3394 3.0132 18.8158 1.09738 15.8868 0.821048C15.6289 0.802618 15.4447 0.802618 15.3342 0.802618L15.0395 1.09733C18.4105 2.05524 20.0869 3.54733 20.1237 3.60262C14.9473 0.986805 8.83157 0.95 3.61837 3.49209C3.61837 3.49209 5.27628 1.85262 8.94204 0.986805L8.72099 0.765759C8.33413 0.765759 7.9657 0.802618 7.5789 0.857852C4.87099 1.31838 2.60523 3.1789 1.6289 5.73942C0.781514 7.94995 0.228896 10.271 0.0262792 12.6289C-0.0842442 13.8815 0.505232 15.1158 1.5368 15.8342C2.89994 16.7368 4.52099 17.2158 6.16047 17.2158C6.16047 17.2158 6.82361 16.3499 7.4868 15.5763C4.99994 14.8394 3.9868 13.3658 3.96837 13.3105L4.43639 13.5495C4.71617 13.6924 5.00301 13.8219 5.29569 13.9361ZM8.1868 12.3342C6.98942 12.2973 6.04994 11.2842 6.0868 10.0684C6.12366 8.92628 7.04471 8.00524 8.1868 7.96838C9.38419 8.00524 10.3237 9.01838 10.2868 10.2342C10.2315 11.3763 9.3289 12.2974 8.1868 12.3342ZM15.7026 12.3342C14.5052 12.2973 13.5657 11.2842 13.6026 10.0684C13.6394 8.92628 14.5605 8.00524 15.7026 7.96838C16.8999 8.00524 17.8394 9.01838 17.8026 10.2342C17.7658 11.3763 16.8447 12.2974 15.7026 12.3342Z" fill="#5865F2"/>
</svg>
