<svg width="16" height="16" viewBox="0 0 16 16" fill="none" xmlns="http://www.w3.org/2000/svg">
<path d="M16 16V10.14C16 7.26 15.38 5.06 12.02 5.06C10.4 5.06 9.32 5.94 8.88 6.78H8.84V5.32H5.66V16H8.98V10.7C8.98 9.3 9.24 7.96 10.96 7.96C12.66 7.96 12.68 9.54 12.68 10.78V15.98H16V16Z" fill="#E7EAFC"/>
<path d="M0.26001 5.32001H3.58001V16H0.26001V5.32001Z" fill="#E7EAFC"/>
<path d="M1.92 0C0.86 0 0 0.86 0 1.92C0 2.98 0.86 3.86 1.92 3.86C2.98 3.86 3.84 2.98 3.84 1.92C3.84 0.86 2.98 0 1.92 0Z" fill="#E7EAFC"/>
</svg>
