<svg width="20" height="12" viewBox="0 0 20 12" fill="none" xmlns="http://www.w3.org/2000/svg">
<path d="M11.2811 6C11.2811 9.13656 8.75574 11.6793 5.64055 11.6793C2.52535 11.6793 0 9.13656 0 6C0 2.86344 2.52535 0.32074 5.64055 0.32074C8.7557 0.32074 11.2811 2.86344 11.2811 6Z" fill="#E7EAFC"/>
<path d="M17.4689 5.99999C17.4689 8.95253 16.2062 11.346 14.6486 11.346C13.0911 11.346 11.8284 8.95253 11.8284 5.99999C11.8284 3.04745 13.0911 0.653976 14.6486 0.653976C16.2063 0.653976 17.4689 3.04745 17.4689 5.99999Z" fill="#E7EAFC"/>
<path d="M20 5.99999C20 8.64535 19.5559 10.7898 19.0081 10.7898C18.4602 10.7898 18.0162 8.64535 18.0162 5.99999C18.0162 3.35464 18.4602 1.21019 19.0081 1.21019C19.5559 1.21019 20 3.35464 20 5.99999Z" fill="#E7EAFC"/>
</svg>
