<svg width="21" height="18" viewBox="0 0 21 18" fill="none" xmlns="http://www.w3.org/2000/svg">
<path fill-rule="evenodd" clip-rule="evenodd" d="M2.1478 7.81003C7.39515 5.52382 10.8942 4.0166 12.645 3.28844C17.6438 1.2093 18.6825 0.848107 19.3595 0.836154C19.5084 0.833553 19.8413 0.870467 20.057 1.04547C20.3769 1.30507 20.3787 1.86855 20.3432 2.24149C20.0723 5.08774 18.9002 11.9948 18.3039 15.1826C18.0515 16.5315 17.5547 16.9838 17.0737 17.028C16.0285 17.1242 15.2347 16.3372 14.2223 15.6736C12.6381 14.6351 11.7431 13.9886 10.2053 12.9753C8.42811 11.8041 9.58018 11.1605 10.593 10.1085C10.858 9.83327 15.4636 5.64412 15.5527 5.26408C15.5639 5.21655 15.5742 5.03937 15.469 4.94585C15.3637 4.85233 15.2084 4.88426 15.0963 4.90971C14.9374 4.94578 12.4066 6.61858 7.50385 9.92805C6.78547 10.4214 6.1348 10.6617 5.55184 10.6491C4.90911 10.6353 3.67287 10.2857 2.75382 9.98698C1.62657 9.62058 0.730648 9.4268 0.808695 8.80453C0.849335 8.48032 1.29568 8.14887 2.1478 7.81003Z" fill="#E7EAFC"/>
</svg>
