<svg width="18" height="16" viewBox="0 0 18 16" fill="none" xmlns="http://www.w3.org/2000/svg">
<path d="M11.2759 0.72743C9.65025 1.31918 8.62313 2.84468 8.73956 4.51418L8.77894 5.15824L8.12869 5.07949C5.76225 4.77743 3.69394 3.75199 1.93781 2.02906L1.07944 1.17462L0.858375 1.80574C0.390375 3.21255 0.689625 4.69868 1.66444 5.69824C2.18475 6.25062 2.06719 6.32937 1.17056 6.0003C0.858375 5.89568 0.585 5.81637 0.559125 5.85574C0.468563 5.94799 0.780187 7.14443 1.02713 7.61805C1.36519 8.27618 2.05425 8.91968 2.80912 9.30162L3.44644 9.60368L2.69212 9.61662C1.96425 9.61662 1.93781 9.62955 2.016 9.90631C2.27588 10.7607 3.30356 11.6686 4.44769 12.0629L5.25375 12.3386L4.55175 12.7593C3.51169 13.3651 2.28881 13.7066 1.06594 13.7319C0.480938 13.7448 0 13.7977 0 13.8376C0 13.9687 1.58681 14.7044 2.50987 14.9947C5.28019 15.8491 8.57081 15.4807 11.0419 14.0216C12.798 12.9826 14.553 10.9182 15.3731 8.91912C15.8158 7.85487 16.2574 5.90806 16.2574 4.97543C16.2574 4.37018 16.2968 4.29143 17.0246 3.56862C17.4544 3.14787 17.8571 2.68774 17.9353 2.55612C18.0658 2.3058 18.0518 2.30581 17.3891 2.52968C16.2838 2.92456 16.1274 2.87168 16.6742 2.27993C17.0769 1.85918 17.5584 1.09643 17.5584 0.873117C17.5584 0.833742 17.3638 0.898992 17.1422 1.01768C16.9082 1.14818 16.3879 1.34562 15.9975 1.46374L15.2955 1.68762L14.6582 1.25337C14.3066 1.01712 13.8133 0.753867 13.5529 0.675117C12.8891 0.49118 11.8744 0.517055 11.2759 0.72743Z" fill="#E7EAFC"/>
</svg>
