<svg width="24" height="17" viewBox="0 0 24 17" fill="none" xmlns="http://www.w3.org/2000/svg">
<path d="M22.7747 3.37624C22.5154 2.41232 21.7554 1.65248 20.7916 1.39293C19.0309 0.911179 11.988 0.911179 11.988 0.911179C11.988 0.911179 4.94536 0.911179 3.18466 1.37466C2.23943 1.63394 1.46091 2.41246 1.20163 3.37624C0.738281 5.1368 0.738281 8.78796 0.738281 8.78796C0.738281 8.78796 0.738281 12.4575 1.20163 14.1997C1.46118 15.1635 2.22089 15.9233 3.1848 16.1829C4.9639 16.6647 11.9883 16.6647 11.9883 16.6647C11.9883 16.6647 19.0309 16.6647 20.7916 16.2013C21.7555 15.9418 22.5154 15.182 22.7749 14.2182C23.2381 12.4575 23.2381 8.8065 23.2381 8.8065C23.2381 8.8065 23.2567 5.1368 22.7747 3.37624ZM9.7457 12.161V5.41489L15.6022 8.78796L9.7457 12.161Z" fill="#E7EAFC"/>
</svg>
