<svg width="24" height="24" viewBox="0 0 24 24" fill="none" xmlns="http://www.w3.org/2000/svg">
<mask id="mask0_913_1737" style="mask-type:alpha" maskUnits="userSpaceOnUse" x="0" y="0" width="24" height="24">
<rect width="24" height="24" rx="12" fill="url(#paint0_linear_913_1737)"/>
</mask>
<g mask="url(#mask0_913_1737)">
<rect width="24" height="24" rx="12" fill="url(#paint1_linear_913_1737)"/>
</g>
<g clip-path="url(#clip0_913_1737)">
<path d="M11.0439 12.0656L5.93483 9.28899C5.70757 9.16555 5.43921 9.17064 5.21683 9.30284C4.99445 9.43501 4.86176 9.66836 4.86176 9.92706V16.3681C4.86176 16.6287 5.00249 16.8706 5.22905 16.9995L10.3382 19.904C10.4508 19.968 10.574 20 10.6972 20C10.8227 20 10.9482 19.9668 11.0623 19.9003C11.2884 19.7688 11.4233 19.5342 11.4233 19.2726V12.7037C11.4233 12.4373 11.278 12.1928 11.0439 12.0656Z" fill="#E7EAFC"/>
</g>
<path opacity="0.8" d="M18.2112 7.61359C18.2109 7.34164 18.0606 7.09497 17.8192 6.96984L12.248 4.0815C12.037 3.97209 11.7856 3.97291 11.5755 4.08353L6.08614 6.97187C5.84713 7.09769 5.69846 7.34361 5.69812 7.61372C5.69781 7.88377 5.84588 8.13003 6.08455 8.25638L11.5739 11.1628C11.6802 11.219 11.7969 11.2471 11.9136 11.2471C12.0289 11.2471 12.1443 11.2197 12.2495 11.1648L17.8209 8.25844C18.062 8.13266 18.2116 7.88555 18.2112 7.61359Z" fill="#E7EAFC"/>
<path opacity="0.5" d="M18.7832 9.30286C18.5609 9.17067 18.2924 9.16545 18.0652 9.28898L12.9561 12.0656C12.722 12.1928 12.5767 12.4373 12.5767 12.7037V19.2726C12.5767 19.5342 12.7116 19.7688 12.9376 19.9003C13.0518 19.9668 13.1772 20 13.3028 20C13.426 20 13.5492 19.968 13.6618 19.904L18.771 16.9995C18.9975 16.8706 19.1382 16.6287 19.1382 16.3681V9.92708C19.1382 9.66838 19.0055 9.43503 18.7832 9.30286Z" fill="#E7EAFC"/>
<defs>
<linearGradient id="paint0_linear_913_1737" x1="12" y1="0" x2="12" y2="24" gradientUnits="userSpaceOnUse">
<stop stop-color="#DDF25C"/>
<stop offset="1" stop-color="#5CF27D"/>
</linearGradient>
<linearGradient id="paint1_linear_913_1737" x1="12" y1="0" x2="12" y2="24" gradientUnits="userSpaceOnUse">
<stop stop-color="#375BE3"/>
<stop offset="1" stop-color="#0A84FF"/>
</linearGradient>
<clipPath id="clip0_913_1737">
<rect width="16" height="16" fill="white" transform="translate(4 4)"/>
</clipPath>
</defs>
</svg>
