<svg width="24" height="24" viewBox="0 0 24 24" fill="none" xmlns="http://www.w3.org/2000/svg">
<mask id="mask0_1020_3798" style="mask-type:alpha" maskUnits="userSpaceOnUse" x="0" y="0" width="24" height="24">
<rect width="24" height="24" rx="12" fill="url(#paint0_linear_1020_3798)"/>
</mask>
<g mask="url(#mask0_1020_3798)">
<rect width="24" height="24" rx="12" fill="url(#paint1_linear_1020_3798)"/>
<path d="M11.8319 7.96324C11.4479 7.36031 10.7597 7 9.99945 7C9.23919 7 8.55111 7.36031 8.16707 7.96324L4.05401 14.4484C3.982 14.5587 3.982 14.6984 4.05401 14.8161C4.12602 14.9263 4.25403 14.9999 4.39805 14.9999H9.59132L12.9441 9.7132L11.8319 7.96324ZM7.59892 13.5293C7.37481 13.5293 7.19879 13.3675 7.19879 13.1617C7.19879 12.9557 7.37481 12.794 7.59892 12.794C7.82302 12.794 7.99904 12.9557 7.99904 13.1617C7.99896 13.3675 7.82302 13.5293 7.59892 13.5293ZM9.19927 10.5882C8.97516 10.5882 8.79914 10.4264 8.79914 10.2206C8.79914 10.0146 8.97516 9.85289 9.19927 9.85289C9.42338 9.85289 9.5994 10.0146 9.5994 10.2206C9.5994 10.4264 9.42338 10.5882 9.19927 10.5882ZM9.99953 12.7941C9.77542 12.7941 9.5994 12.6323 9.5994 12.4264C9.5994 12.2205 9.77542 12.0587 9.99953 12.0587C10.2236 12.0587 10.3997 12.2205 10.3997 12.4264C10.3996 12.6323 10.2236 12.7941 9.99953 12.7941ZM19.9459 14.4485L17.2333 10.1692C16.8492 9.56624 16.1611 9.20593 15.4008 9.20593C14.6807 9.20593 14.0245 9.52948 13.6324 10.0809L10.5116 15H19.6019C19.7459 15 19.874 14.9265 19.9459 14.8162C20.018 14.6984 20.018 14.5587 19.9459 14.4485ZM14.8007 12.0588C14.5766 12.0588 14.4005 11.897 14.4005 11.6911C14.4005 11.4852 14.5766 11.3235 14.8007 11.3235C15.0248 11.3235 15.2008 11.4852 15.2008 11.6911C15.2008 11.897 15.0248 12.0588 14.8007 12.0588ZM16.4011 13.5293C16.177 13.5293 16.001 13.3675 16.001 13.1617C16.001 12.9557 16.177 12.794 16.4011 12.794C16.6252 12.794 16.8012 12.9557 16.8012 13.1617C16.8012 13.3675 16.6252 13.5293 16.4011 13.5293Z" fill="#E7EAFC"/>
</g>
<defs>
<linearGradient id="paint0_linear_1020_3798" x1="12" y1="0" x2="12" y2="24" gradientUnits="userSpaceOnUse">
<stop stop-color="#DDF25C"/>
<stop offset="1" stop-color="#5CF27D"/>
</linearGradient>
<linearGradient id="paint1_linear_1020_3798" x1="12" y1="0" x2="12" y2="24" gradientUnits="userSpaceOnUse">
<stop stop-color="#B265FF"/>
<stop offset="1" stop-color="#7753D7"/>
</linearGradient>
</defs>
</svg>
