<svg width="24" height="24" viewBox="0 0 24 24" fill="none" xmlns="http://www.w3.org/2000/svg">
<mask id="mask0_1020_3775" style="mask-type:alpha" maskUnits="userSpaceOnUse" x="0" y="0" width="24" height="24">
<rect width="24" height="24" rx="12" fill="url(#paint0_linear_1020_3775)"/>
</mask>
<g mask="url(#mask0_1020_3775)">
<rect width="24" height="24" rx="12" fill="url(#paint1_linear_1020_3775)"/>
<g clip-path="url(#clip0_1020_3775)">
<path d="M19.5546 7.17099L12.8883 13.1707C12.747 13.2987 12.667 13.4773 12.667 13.6666V17.6664C12.667 17.9291 12.8217 18.1677 13.0616 18.2757C13.303 18.3824 13.5843 18.3384 13.7789 18.1624L19.9999 12.564L26.2196 18.1624C26.4156 18.3384 26.6969 18.3837 26.9369 18.2757C27.1782 18.1677 27.3329 17.9291 27.3329 17.6664V13.6666C27.3329 13.4773 27.2515 13.2987 27.1129 13.1707L20.4466 7.17099C20.1933 6.943 19.8066 6.943 19.5546 7.17099Z" fill="#0B0E17" fill-opacity="0.2"/>
<path d="M19.5546 15.8372L12.8883 21.8369C12.747 21.9649 12.667 22.1435 12.667 22.3328V26.3326C12.667 26.5953 12.8217 26.8339 13.0616 26.9419C13.303 27.0486 13.5843 27.0046 13.7789 26.8286L19.9999 21.2302L26.2196 26.8286C26.4156 27.0046 26.6969 27.0499 26.9369 26.9419C27.1782 26.8339 27.3329 26.5953 27.3329 26.3326V22.3328C27.3329 22.1435 27.2515 21.9649 27.1129 21.8369L20.4466 15.8372C20.1933 15.6092 19.8066 15.6092 19.5546 15.8372Z" fill="#0B0E17" fill-opacity="0.2"/>
</g>
<g clip-path="url(#clip1_1020_3775)">
<path d="M6.66621 -3.87174L1.66648 0.628013C1.56048 0.724008 1.50049 0.858001 1.50049 0.999993L1.50049 3.99983C1.50049 4.19682 1.61648 4.37581 1.79647 4.45681C1.97746 4.5368 2.18845 4.5038 2.33444 4.37181L7.00019 0.173038L11.6649 4.37181C11.8119 4.5038 12.0229 4.5378 12.2029 4.45681C12.3839 4.37581 12.4999 4.19682 12.4999 3.99983V0.999993C12.4999 0.858001 12.4389 0.724008 12.3349 0.628013L7.33517 -3.87174C7.14518 -4.04273 6.8552 -4.04273 6.66621 -3.87174Z" fill="#0B0E17" fill-opacity="0.2"/>
<path d="M6.66621 2.62789L1.66648 7.12765C1.56048 7.22364 1.50049 7.35763 1.50049 7.49963L1.50049 10.4995C1.50049 10.6965 1.61648 10.8754 1.79647 10.9564C1.97746 11.0364 2.18845 11.0034 2.33444 10.8714L7.00019 6.67267L11.6649 10.8714C11.8119 11.0034 12.0229 11.0374 12.2029 10.9564C12.3839 10.8754 12.4999 10.6965 12.4999 10.4995V7.49963C12.4999 7.35763 12.4389 7.22364 12.3349 7.12765L7.33517 2.62789C7.14518 2.4569 6.8552 2.4569 6.66621 2.62789Z" fill="#0B0E17" fill-opacity="0.2"/>
</g>
<path d="M4.154 17L6.688 12.31L4.308 7.872H6.604L7.402 9.594C7.50467 9.79933 7.60733 10.0233 7.71 10.266C7.822 10.5087 7.93867 10.7747 8.06 11.064H8.116C8.21867 10.7747 8.31667 10.5087 8.41 10.266C8.51267 10.0233 8.61067 9.79933 8.704 9.594L9.432 7.872H11.63L9.264 12.408L11.784 17H9.488L8.578 15.138C8.466 14.8953 8.354 14.6573 8.242 14.424C8.13933 14.1813 8.02267 13.92 7.892 13.64H7.836C7.73333 13.92 7.63067 14.1813 7.528 14.424C7.42533 14.6573 7.32267 14.8953 7.22 15.138L6.366 17H4.154ZM12.3214 17V7.872H15.4574C16.1294 7.872 16.736 7.96533 17.2774 8.152C17.828 8.32933 18.2667 8.63267 18.5934 9.062C18.92 9.49133 19.0834 10.0747 19.0834 10.812C19.0834 11.5213 18.92 12.1047 18.5934 12.562C18.2667 13.0193 17.8327 13.36 17.2914 13.584C16.75 13.7987 16.1574 13.906 15.5134 13.906H14.3794V17H12.3214ZM14.3794 12.268H15.3874C16.5074 12.268 17.0674 11.7827 17.0674 10.812C17.0674 10.336 16.918 10 16.6194 9.804C16.3207 9.608 15.8914 9.51 15.3314 9.51H14.3794V12.268Z" fill="#27233E"/>
</g>
<defs>
<linearGradient id="paint0_linear_1020_3775" x1="12" y1="0" x2="12" y2="24" gradientUnits="userSpaceOnUse">
<stop stop-color="#DDF25C"/>
<stop offset="1" stop-color="#5CF27D"/>
</linearGradient>
<linearGradient id="paint1_linear_1020_3775" x1="12" y1="0" x2="12" y2="24" gradientUnits="userSpaceOnUse">
<stop stop-color="#DDF25C"/>
<stop offset="1" stop-color="#5CF27D"/>
</linearGradient>
<clipPath id="clip0_1020_3775">
<rect width="20" height="20" fill="white" transform="matrix(0 -1 1 0 10 27)"/>
</clipPath>
<clipPath id="clip1_1020_3775">
<rect width="15" height="15" fill="white" transform="matrix(0 -1 1 0 -0.5 11)"/>
</clipPath>
</defs>
</svg>
