<svg width="24" height="24" viewBox="0 0 24 24" fill="none" xmlns="http://www.w3.org/2000/svg">
<mask id="mask0_1563_3813" style="mask-type:alpha" maskUnits="userSpaceOnUse" x="0" y="0" width="24" height="24">
<rect width="24" height="24" rx="12" fill="url(#paint0_linear_1563_3813)"/>
</mask>
<g mask="url(#mask0_1563_3813)">
<rect width="24" height="24" rx="12" fill="url(#paint1_linear_1563_3813)"/>
</g>
<path d="M14.6893 11.4482C14.7474 11.6276 14.7763 11.8139 14.7765 12.0001H17.7904C17.7902 11.8253 17.7391 11.6505 17.6371 11.4991L12.7459 4.2405C12.6005 4.02456 12.384 3.90169 12.1553 3.86215C12.1842 3.86719 12.2132 3.872 12.2417 3.87988L14.6893 11.4482Z" fill="#0D81F3"/>
<path d="M9.31194 11.4482L11.7596 3.87991C11.5637 3.93406 11.3823 4.05216 11.2553 4.24053L6.36426 11.4991C6.26223 11.6506 6.21116 11.8253 6.21094 12.0002H9.22483C9.22494 11.8139 9.2539 11.6276 9.31194 11.4482Z" fill="#78CCFF"/>
<path d="M9.31205 12.5546C9.25368 12.3743 9.22472 12.1872 9.22483 12.0001H6.21094C6.21066 12.1758 6.26179 12.3515 6.36431 12.5036L11.2554 19.7598C11.4009 19.9757 11.6174 20.0986 11.8462 20.1381C11.8172 20.1331 11.7881 20.1282 11.7596 20.1203L9.31205 12.5546Z" fill="#55B4FB"/>
<path d="M14.7767 12.0001C14.7768 12.1872 14.7478 12.3743 14.6895 12.5546L12.2419 20.1203C12.2133 20.1282 12.1843 20.1331 12.1553 20.1381C12.3841 20.0986 12.6005 19.9757 12.7461 19.7598L17.6372 12.5036C17.7397 12.3515 17.7908 12.1758 17.7906 12.0001H14.7767Z" fill="#0850AC"/>
<path d="M12.5491 4.24053L17.3391 11.4991C17.4411 11.6506 17.4921 11.8253 17.4924 12.0002H17.7899C17.7896 11.8253 17.7386 11.6506 17.6365 11.4991L12.7454 4.24053C12.619 4.05296 12.4382 3.93956 12.2432 3.88605L12.2734 3.97949C12.3788 4.04278 12.4738 4.12859 12.5491 4.24053Z" fill="#006E87"/>
<path d="M17.4924 12.0002C17.4926 12.1759 17.4416 12.3516 17.339 12.5038L12.5491 19.76C12.4737 19.8719 12.3788 19.9577 12.2734 20.0209L12.2432 20.1144C12.4382 20.0608 12.619 19.9475 12.7454 19.76L17.6365 12.5038C17.739 12.3516 17.7901 12.1759 17.7899 12.0002H17.4924Z" fill="#003670"/>
<path d="M9.22461 12.0001H14.7763C14.7761 11.8139 14.7472 11.6276 14.6891 11.4482L12.2415 3.87988C12.0919 3.83851 11.9016 3.84055 11.7595 3.87985L9.31172 11.4482C9.25368 11.6276 9.22472 11.8139 9.22461 12.0001Z" fill="#55B4FB"/>
<path d="M11.9026 3.85547C11.8174 3.86428 11.7945 3.87185 11.7593 3.87988L9.31172 11.4482C9.25368 11.6276 9.22472 11.8139 9.22461 12.0001H9.78259C9.7827 11.8139 9.81167 11.6276 9.8697 11.4482L11.9026 3.85547Z" fill="#83E2FC"/>
<path d="M14.6891 12.5546C14.7474 12.3743 14.7764 12.1872 14.7763 12.0001H9.22461C9.2245 12.1872 9.25346 12.3743 9.31183 12.5546L11.7594 20.1203C11.9047 20.1606 12.0938 20.1612 12.2415 20.1203L14.6891 12.5546Z" fill="#0D81F3"/>
<path d="M11.9026 20.1414C11.7961 20.1304 11.7935 20.1232 11.7593 20.117L9.31172 12.5487C9.25368 12.3693 9.22472 12.1831 9.22461 11.9968L9.78259 11.9968C9.78269 12.1831 9.81166 12.3693 9.86969 12.5487L11.9026 20.1414Z" fill="#33A3FF"/>
<path d="M12.2445 3.8862L12.2441 3.88611L14.6898 11.4483C14.7478 11.6277 14.7768 11.814 14.777 12.0002H15.1578C15.1576 11.814 15.1287 11.6277 15.0706 11.4483L12.2445 3.8862Z" fill="#00809E"/>
<path d="M11.4827 4.01007C11.397 4.06992 11.3198 4.14655 11.2563 4.24078L6.36523 11.4994C6.2632 11.6508 6.21213 11.8256 6.21191 12.0004H6.72898C6.72919 11.8256 6.78026 11.6508 6.88229 11.4994L11.4827 4.01007Z" fill="#CFF8FF"/>
<path d="M12.2445 20.1141L12.2441 20.1142L14.6897 12.5519C14.7478 12.3725 14.7767 12.1863 14.7769 12H15.1578C15.1576 12.1863 15.1286 12.3725 15.0706 12.5519L12.2445 20.1141Z" fill="#003670"/>
<path d="M11.4827 19.9903C11.397 19.9304 11.3199 19.8538 11.2564 19.7596L6.36524 12.501C6.26321 12.3495 6.21213 12.1747 6.21191 11.9999H6.72898C6.7292 12.1747 6.78027 12.3495 6.8823 12.501L11.4827 19.9903Z" fill="#85D1FF"/>
<g opacity="0.15">
<path d="M15.3617 8.1219L12.7459 4.24004C12.3807 3.71142 11.6004 3.72659 11.255 4.24004L6.79004 10.8661C11.268 11.1401 13.8626 9.80455 15.3617 8.1219Z" fill="white"/>
</g>
<path opacity="0.5" d="M11.2721 9.84245C12.1369 9.84245 12.8381 9.14133 12.8381 8.27645C12.8381 7.41157 12.1369 6.71045 11.2721 6.71045C10.4072 6.71045 9.70605 7.41157 9.70605 8.27645C9.70605 9.14133 10.4072 9.84245 11.2721 9.84245Z" fill="url(#paint2_radial_1563_3813)"/>
<path d="M11.5105 8.40041L11.9631 8.96647L11.3971 8.51347L11.2726 9.63649L11.1482 8.51347L10.5821 8.96647L11.0351 8.40041L9.91211 8.27596L11.0351 8.15114L10.5821 7.58546L11.1482 8.03808L11.2726 6.91544L11.3971 8.03846L11.9631 7.58546L11.5105 8.15114L12.6332 8.27596L11.5105 8.40041Z" fill="url(#paint3_radial_1563_3813)"/>
<path d="M9.19316 15.7364C9.5793 16.3905 9.99475 17.0273 10.435 17.6308C9.80183 16.2778 9.01054 14.9373 8.13184 13.7292C8.44752 14.4062 8.80432 15.0776 9.19316 15.7364Z" fill="url(#paint4_linear_1563_3813)"/>
<path opacity="0.3" d="M13.1394 16.9592C14.2918 16.9592 15.226 16.025 15.226 14.8725C15.226 13.7201 14.2918 12.7859 13.1394 12.7859C11.987 12.7859 11.0527 13.7201 11.0527 14.8725C11.0527 16.025 11.987 16.9592 13.1394 16.9592Z" fill="url(#paint5_radial_1563_3813)"/>
<defs>
<linearGradient id="paint0_linear_1563_3813" x1="12" y1="0" x2="12" y2="24" gradientUnits="userSpaceOnUse">
<stop stop-color="#DDF25C"/>
<stop offset="1" stop-color="#5CF27D"/>
</linearGradient>
<linearGradient id="paint1_linear_1563_3813" x1="12" y1="0" x2="12" y2="24" gradientUnits="userSpaceOnUse">
<stop stop-color="#587BFF"/>
<stop offset="1" stop-color="#0A40FF"/>
</linearGradient>
<radialGradient id="paint2_radial_1563_3813" cx="0" cy="0" r="1" gradientUnits="userSpaceOnUse" gradientTransform="translate(11.2717 8.27645) scale(1.566)">
<stop offset="0.306306" stop-color="white" stop-opacity="0.999"/>
<stop offset="1" stop-color="white" stop-opacity="0"/>
</radialGradient>
<radialGradient id="paint3_radial_1563_3813" cx="0" cy="0" r="1" gradientUnits="userSpaceOnUse" gradientTransform="translate(11.2725 8.2761) scale(1.36053)">
<stop offset="0.306306" stop-color="white"/>
<stop offset="1" stop-color="white" stop-opacity="0"/>
</radialGradient>
<linearGradient id="paint4_linear_1563_3813" x1="8.81914" y1="14.1612" x2="7.72486" y2="15.8157" gradientUnits="userSpaceOnUse">
<stop stop-color="white" stop-opacity="0"/>
<stop offset="0.442342" stop-color="white"/>
<stop offset="0.640541" stop-color="white" stop-opacity="0.999"/>
<stop offset="1" stop-color="white" stop-opacity="0"/>
</linearGradient>
<radialGradient id="paint5_radial_1563_3813" cx="0" cy="0" r="1" gradientUnits="userSpaceOnUse" gradientTransform="translate(13.1394 14.8725) scale(2.08698)">
<stop offset="0.306306" stop-color="white" stop-opacity="0.999"/>
<stop offset="1" stop-color="white" stop-opacity="0"/>
</radialGradient>
</defs>
</svg>
