<svg width="24" height="24" viewBox="0 0 24 24" fill="none" xmlns="http://www.w3.org/2000/svg">
<mask id="mask0_1563_4320" style="mask-type:alpha" maskUnits="userSpaceOnUse" x="0" y="0" width="24" height="24">
<rect width="24" height="24" rx="12" fill="url(#paint0_linear_1563_4320)"/>
</mask>
<g mask="url(#mask0_1563_4320)">
<rect width="24" height="24" rx="12" fill="#50AF95"/>
</g>
<g clip-path="url(#clip0_1563_4320)">
<path fill-rule="evenodd" clip-rule="evenodd" d="M5.02835 4.08839L1.01698 12.0133C1.00172 12.0428 0.996878 12.0761 1.00318 12.1084C1.00947 12.1406 1.02657 12.1701 1.05198 12.1926L11.8857 21.9567C11.9165 21.9845 11.9575 22 12.0001 22C12.0428 22 12.0838 21.9845 12.1145 21.9567L22.9483 12.1932C22.9737 12.1707 22.9908 12.1412 22.9971 12.109C23.0034 12.0767 22.9985 12.0434 22.9833 12.014L18.9719 4.089C18.959 4.06238 18.9381 4.03984 18.9119 4.02405C18.8857 4.00827 18.8552 3.99992 18.8241 4H5.17742C5.14616 3.99963 5.11545 4.00778 5.08899 4.02347C5.06254 4.03915 5.04148 4.0617 5.02835 4.08839Z" fill="#50AF95"/>
<path fill-rule="evenodd" clip-rule="evenodd" d="M13.3919 12.8272C13.3141 12.8327 12.9123 12.8552 12.0159 12.8552C11.3029 12.8552 10.7967 12.8351 10.6191 12.8272C7.86387 12.7132 5.80731 12.2621 5.80731 11.722C5.80731 11.1818 7.86387 10.7313 10.6191 10.6155V12.3779C10.7993 12.3901 11.3152 12.4187 12.0282 12.4187C12.8838 12.4187 13.3122 12.3852 13.3893 12.3785V10.6167C16.1387 10.7319 18.1908 11.1831 18.1908 11.722C18.1908 12.2608 16.1394 12.712 13.3893 12.8266L13.3919 12.8272ZM13.3919 10.4345V8.85739H17.2289V6.45247H6.78212V8.85739H10.6185V10.4338C7.50026 10.5686 5.15527 11.1495 5.15527 11.8457C5.15527 12.5419 7.50026 13.1222 10.6185 13.2576V18.3112H13.3913V13.2557C16.5024 13.121 18.8435 12.5407 18.8435 11.8451C18.8435 11.1495 16.5043 10.5692 13.3913 10.4338L13.3919 10.4345Z" fill="white"/>
</g>
<defs>
<linearGradient id="paint0_linear_1563_4320" x1="12" y1="0" x2="12" y2="24" gradientUnits="userSpaceOnUse">
<stop stop-color="#DDF25C"/>
<stop offset="1" stop-color="#5CF27D"/>
</linearGradient>
<clipPath id="clip0_1563_4320">
<rect width="22" height="18" fill="white" transform="translate(1 4)"/>
</clipPath>
</defs>
</svg>
