<svg width="329" height="203" viewBox="0 0 329 203" fill="none" xmlns="http://www.w3.org/2000/svg">
<path d="M194.839 350.227L194.372 353.96L193.969 356.863L193.571 359.451L193.162 361.824L192.73 364.055L192.253 366.238L191.698 368.501L190.886 371.392M194.839 350.227L201.279 350.882L206.537 351.269L211.468 351.495L216.254 351.569L221.052 351.489L226.079 351.245L231.659 350.805L239.439 349.917M194.839 350.227L199.279 346.74L202.917 343.714L206.339 340.713L209.671 337.625L213.018 334.345L216.534 330.713L220.45 326.473L225.933 320.216M194.839 350.227L191.102 347.269L187.996 344.678L185.038 342.085L182.115 339.396L179.136 336.519L175.959 333.308L172.371 329.538L167.268 323.938M194.839 350.227L188.085 351.739L182.519 352.831L177.253 353.721L172.092 354.442L166.868 355.015L161.34 355.458L155.146 355.784L146.415 355.968M190.886 371.392L198.75 371.924L204.522 372.022L209.774 371.904L214.793 371.585L219.78 371.059L224.948 370.293L230.593 369.215L238.277 367.342M190.886 371.392L189.993 373.997L189.311 375.682L188.672 377.026L188.041 378.117L187.393 379.002L186.7 379.711L185.92 380.263L184.823 380.653M190.886 371.392L183.194 370.22L177.654 369.026L172.664 367.689L167.93 366.173L163.248 364.432L158.444 362.376L153.275 359.858L146.415 355.968M190.886 371.392L199.408 369.151L205.524 367.19L211.012 365.168L216.194 363.004L221.291 360.627L226.496 357.924L232.071 354.714L239.439 349.917M190.886 371.392L182.138 373.022L175.682 373.929L169.77 374.549L164.078 374.938L158.374 375.118L152.411 375.086L145.841 374.813L136.795 374.037M239.439 349.917L238.362 345.767L237.27 342.556L236.064 339.493L234.722 336.418L233.212 333.208L231.45 329.732L229.29 325.791L225.933 320.216M239.439 349.917L239.917 353.749L240.052 356.356L240.051 358.567L239.944 360.516L239.745 362.279L239.445 363.923L239.02 365.515L238.277 367.342M239.439 349.917L247.438 348.615L253.256 347.445L258.493 346.21L263.432 344.856L268.272 343.329L273.221 341.556L278.556 339.417L285.682 336.179M239.439 349.917L246.419 344.56L251.37 340.385L255.788 336.391L259.939 332.372L264.005 328.163L268.164 323.568L272.648 318.289L278.66 310.66M225.933 320.216L221.995 314.417L218.908 310.03L213.058 301.8L210.055 297.544L206.834 292.938L203.197 287.685L198.044 280.149M225.933 320.216L216.561 321.12L209.603 321.739L203.196 322.255L196.998 322.687L190.764 323.044L184.242 323.348L177.073 323.626L167.268 323.938M225.933 320.216L235.085 319.259L241.663 318.472L247.572 317.657L253.156 316.759L258.656 315.727L264.305 314.505L270.422 313.001L278.66 310.66M225.933 320.216L231.597 313.297L235.736 307.977L239.472 302.957L243.007 297.984L246.479 292.859L250.038 287.351L253.885 281.12L259.042 272.306M16.1795 301.028L19.5696 305.207L22.5062 308.551L25.4159 311.623L28.4071 314.535L31.5803 317.379L35.0928 320.28L39.1901 323.419L45.2371 327.668M16.1795 301.028L15.3091 298.936L14.7324 297.108L14.3172 295.282L14.0496 293.392L13.9265 291.372L13.9502 289.122L14.1386 286.481L14.6671 282.558M16.1795 301.028L12.3945 295.473L9.42695 290.81L6.75794 286.319L4.28792 281.833L1.94273 277.204L-0.380461 272.213L-2.81702 266.524L-5.9869 258.343M16.1795 301.028L14.8474 299.59L13.8996 298.315M16.1795 301.028L19.2686 305.588L21.9393 309.225L24.5823 312.552M45.2371 327.668L46.0022 325.26L46.6475 323.215L47.3327 321.157L48.1068 319.002L49.0155 316.67L50.1126 314.05L51.4855 310.964L53.6619 306.377M45.2371 327.668L51.9244 331.848L57.0675 334.782L61.9235 337.331L66.7362 339.64L71.6991 341.799L77.0371 343.895L83.0816 346.033L91.645 348.689M45.2371 327.668L44.5193 329.39L44.0339 330.297L43.635 330.875L43.3104 331.2L43.0534 331.31L42.847 331.189M45.2371 327.668L50.8248 333.606L50.97 333.76L55.2639 337.99L59.2732 341.679L63.2278 345.054L67.3007 348.26L71.6795 351.43L76.6374 354.726L83.691 358.933M45.2371 327.668L39.6633 321.121L35.6834 316.097L32.1448 311.35L28.8493 306.643L25.6663 301.796L22.4687 296.605L19.0859 290.766L14.6671 282.558M14.6671 282.558L9.96451 278.424L6.83705 275.45L4.21777 272.764L1.9264 270.198L-0.14631 267.637L-2.0698 264.989L-3.91414 262.133L-5.9869 258.343M14.6671 282.558L19.9514 286.796L24.0814 289.878L28.0401 292.642L32.0298 295.226L36.2136 297.726L40.7873 300.241L46.0463 302.902L46.2421 302.991L53.6619 306.377M14.6671 282.558L15.5938 278.186L16.4928 274.802L17.4871 271.593L18.6185 268.395L19.9326 265.084L21.4972 261.508L23.4272 257.439L26.4135 251.646M14.6671 282.558L10.5331 274.066L7.68538 267.728L5.23986 261.855L3.05538 256.123L1.04546 250.293L-0.864994 244.102L-2.7615 237.175L-5.01863 227.458M167.268 323.938L172.004 317.572L175.605 312.752L178.953 308.221L182.209 303.725L185.492 299.072L188.942 294.045L192.761 288.328L198.044 280.149M167.268 323.938L162.976 330.018L160.063 334.297L157.562 338.061L155.296 341.526L153.15 344.839L151.061 348.129L148.953 351.563L146.415 355.968M167.268 323.938L161.881 317.695L157.877 312.868L154.208 308.291L150.681 303.736L147.156 299.021L143.481 293.932L139.437 288.153L133.902 279.939M167.268 323.938L157.486 324.18L150.359 324.26L143.883 324.228L137.69 324.072L131.519 323.775L125.102 323.311L118.069 322.629L108.447 321.4M146.415 355.968L139.883 351.462L135.214 347.888L131.016 344.425L127.031 340.903L123.082 337.18L118.995 333.077L114.53 328.327L108.447 321.4M146.415 355.968L144.378 359.984L141.942 364.994L140.94 367.012L139.99 368.834L139.05 370.528L138.066 372.165L136.795 374.037M146.415 355.968L137.306 355.775L130.601 355.414L124.506 354.908L118.693 354.244L112.93 353.396L106.967 352.316L100.462 350.926L91.645 348.689M-5.9869 258.343L-7.00899 253.563L-7.47803 250.052L-7.70073 246.809L-7.71293 243.639L-7.51881 240.394L-7.09706 236.924L-6.39391 233.009L-5.01863 227.458M-5.9869 258.343L-7.43562 254.74M-5.9869 258.343L-4.35137 263.215M-5.9869 258.343L-8.91859 249.581L-10.8641 243.001L-12.4604 236.912L-13.8039 230.995L-14.9509 225.014L-15.9403 218.705L-16.8099 211.69L-17.6411 201.959M184.823 380.653L184.961 380.639L193.761 379.733L200.275 378.759L206.189 377.648L211.841 376.358L217.466 374.846L223.297 373.037L229.658 370.805L238.277 367.342M184.823 380.653L192.605 379.875L197.447 379.317L202.953 378.462L206.312 377.902L210.854 377.019L213.501 376.453L217.191 375.597L221.318 374.495L225.878 373.138L230.716 371.564L235.658 369.833M184.823 380.653L176.96 380.849L171.193 380.692L165.931 380.32L160.874 379.74L155.809 378.933L150.523 377.856L144.72 376.42L136.795 374.037M184.823 380.653L175.878 380.987L172.116 381L166.597 380.933L163.107 380.772L158.554 380.544L153.81 380.126L152.039 379.962L147.841 379.44L143.162 378.714L138.166 377.803L133.025 376.746M235.658 369.833L240.531 368.017L245.165 366.171L249.378 364.36L251.301 363.481L255.445 361.524L258.167 360.132L262.414 357.912L265.451 356.238M235.658 369.833L236.477 369.389L237.298 368.677L238.277 367.342M265.451 356.238L269.999 353.611L272.636 352.031L277.435 349.013L282.552 345.552M265.451 356.238L260.954 358.59L256.337 360.764L251.414 362.837L245.914 364.898L238.277 367.342M282.552 345.552L287.796 341.785L292.681 338.048L297.113 334.416L301.203 330.806L302.42 329.699L306.465 325.859M282.552 345.552L283.433 344.898L284.113 344.112L284.644 343.173L285.052 342.045L285.358 340.666L285.578 338.93L285.682 336.179M306.465 325.859L307.487 324.822L311.41 320.833L315.427 316.491L319.368 311.991M306.465 325.859L310.535 321.705L314.856 316.988L320.54 310.264M319.368 311.991L322.736 307.926L324.66 305.442M319.368 311.991L320.54 310.264M324.66 305.442L327.379 301.925L329.682 298.681L331.647 295.901L333.711 292.791L335.269 290.338L336.853 287.785L337.961 285.872L339.269 283.561L340.99 280.337L342.77 276.785L344.496 273.129L345.459 271.078M324.66 305.442L320.54 310.264M345.459 271.078L347.082 267.421L348.448 264.092L349.462 261.497L350.538 258.52L351.636 255.359L352.795 251.776M345.459 271.078L346.316 268.816L347.11 266.183L347.957 262.31M352.795 251.776L354.004 247.841L355.193 243.731L355.785 241.662L356.695 238.236L357.298 235.724L357.837 233.281L358.49 229.867L358.948 227.435L359.659 223.135L360.252 218.888L360.669 215.484M352.795 251.776L351.749 254.632L350.337 257.824L347.957 262.31M360.669 215.484L361.145 211.261L361.419 207.611L361.715 203.488L361.896 198.768M360.669 215.484L360.893 211.671L360.804 206.309M361.896 198.768L361.971 193.438L362 191.137L361.958 186.286L361.797 181.561L361.522 177.062L361.131 172.687L360.605 168.261L360.271 165.799L359.499 160.509L358.663 155.688L357.823 151.444M361.896 198.768L361.61 201.937L360.804 206.309M357.823 151.444L356.945 147.202L355.668 141.972M357.823 151.444L356.257 145.655M355.668 141.972L354.967 139.405L353.56 134.359L351.962 129.217L350.249 124.236L348.431 119.456L346.506 114.86L344.479 110.423L343.544 108.394L340.966 103.184L338.486 98.5191L335.389 93.0934M355.668 141.972L356.257 145.655M335.389 93.0934L334.101 90.936L330.862 85.8428L327.468 80.9232L326.936 80.1579M335.389 93.0934L331.658 87.6302L328.648 83.6724L325.705 80.1213L322.683 76.7878L319.464 73.5439L315.896 70.2577L311.738 66.7498L305.631 62.1155M335.389 93.0934L336.384 95.6053L336.918 97.6079L337.24 99.5525L337.376 101.535L337.332 103.635L337.094 105.951L336.627 108.633L335.648 112.533M335.389 93.0934L339.778 101.068L342.785 107.061L345.363 112.64L347.665 118.103L349.789 123.678L351.815 129.614L353.835 136.276L356.257 145.655M335.389 93.0934L330.62 85.5005L326.936 80.1579M326.936 80.1579L323.434 75.4478L322.413 74.1479L319.049 69.9569L318.125 68.8803L314.896 65.1433L311.403 61.3665L307.66 57.5545L303.779 53.8029M303.779 53.8029L299.884 50.2192L296.054 46.8849L294.418 45.5173L290.461 42.306L288.23 40.623L284.277 37.666M303.779 53.8029L304.434 54.5748L304.951 55.4892L305.339 56.5749L305.6 57.8879L305.729 59.5285L305.631 62.1155M284.277 37.666L281.975 36.0523L277.962 33.3007L276.097 32.1181L272.007 29.5499L267.524 26.9304L262.737 24.3019M284.277 37.666L280.174 34.855L275.734 32.0741L270.674 29.1758L263.457 25.4706M262.737 24.3019L257.764 21.7239L252.78 19.2992L247.937 17.1214L246.417 16.4596L241.282 14.3674L239.184 13.5711M262.737 24.3019L263.099 24.6287L263.457 25.4706M239.184 13.5711L233.826 11.6215L231.877 10.9687L226.334 9.18702L220.34 7.48686L214.007 5.90651M239.184 13.5711L244.462 15.7277L249.87 18.1883L255.691 21.1094L263.457 25.4706M214.007 5.90651L207.891 4.58043L202.279 3.56492L199.626 3.14842L194.432 2.4149M214.007 5.90651L214.549 6.09316L214.983 6.47214L215.339 7.0386L215.632 7.80553L215.855 8.80314L215.991 10.0991L215.927 12.1831M194.432 2.4149L191.322 2.0522L186.617 1.59496L183.861 1.37001L179.401 1.12633L177.529 1.07171L173.11 1L168.313 1.05703L163.313 1.23555M194.432 2.4149L189.45 1.92505L184.466 1.64468L179.279 1.56481L173.61 1.7001L165.936 2.2527M163.313 1.23555L158.275 1.52325L153.374 1.91527L148.788 2.40592L144.676 2.96994L141.047 3.60076L138.379 4.07104L133.938 5.00996L130.629 5.75655L125.258 7.10135L121.728 8.09488M163.313 1.23555L164.035 1.28688L164.837 1.55666L165.936 2.2527M121.728 8.09488L122.952 7.78354L122.961 7.78108L128.077 6.4811L133.866 5.2333L139.431 4.25034L145.01 3.47769L150.835 2.88599L157.226 2.46054L165.936 2.2527M121.728 8.09488L113.039 10.7193M113.039 10.7193L105.705 13.4978L100.447 15.81L95.74 18.1272L91.313 20.5551L86.9799 23.1861L82.5742 26.1349L77.8716 29.5858L71.6656 34.661M113.039 10.7193L114.401 10.5644L115.487 10.7266L116.547 11.0779L117.635 11.6142L118.801 12.3437L120.111 13.2956L121.671 14.5304L124.07 16.5085M113.039 10.7193L104.344 13.9362L100.911 15.2933L95.5499 17.5534L92.4322 18.9772L88.0436 21.0026L83.5653 23.2619L82.1027 24.0158L78.2566 26.1202L74.0916 28.5572L69.7666 31.2354L65.4515 34.0367M65.4515 34.0367L61.3052 36.8494L60.2553 37.5959L56.1482 40.526L52.4366 43.3574L50.5531 44.9109L46.9713 47.8711L44.7811 49.8052L41.2784 52.961M65.4515 34.0367L66.2851 33.7009L67.2395 33.5533L68.3473 33.6047L69.672 33.8892L71.6656 34.661M41.2784 52.961L39.2456 54.8657L35.7601 58.2652L34.3684 59.7022L31.0672 63.1253L27.7611 66.718M41.2784 52.961L37.7577 56.4159L34.0185 60.3876L29.0768 66.1426M27.7611 66.718L24.5488 70.3514L21.5339 73.9188L18.7988 77.3469L18.0459 78.3543L15.363 81.9657L12.9093 85.5469L11.7265 87.3042M27.7611 66.718L28.2701 66.2811L29.0768 66.1426M11.7265 87.3042L9.26544 91.1952L8.21154 92.9239L5.78479 97.0642L3.33678 101.533M11.7265 87.3042L14.2854 83.5738L17.0303 79.8849L20.0982 76.0721L23.707 71.891L29.0768 66.1426M3.33678 101.533L0.91576 106.237L-1.33076 110.901L-3.36518 115.462L-5.21195 119.994L-6.90622 124.596L-8.49768 129.417L-8.88434 130.647L-10.6169 136.508L-12.7794 144.907M3.33678 101.533L2.92733 102.402L2.68013 103.301L2.58713 104.263L2.65076 105.325L2.88327 106.541L3.31722 108L4.21289 110.216M-12.7794 144.907L-13.3161 148.188L-13.4311 150.556L-13.3308 152.724L-13.0274 154.833L-12.5118 156.987L-11.7467 159.29L-10.6561 161.886L-8.73179 165.57M-12.7794 144.907L-11.2695 139.453L-9.85012 135.364L-8.32313 131.578L-6.63538 127.913L-4.73314 124.232L-2.52332 120.376L0.148134 116.112L4.21289 110.216M-12.7794 144.907L-14.6409 153.863L-15.7869 160.569L-16.6467 166.76M-16.6467 166.76L-17.3303 173.247L-17.7422 179.063L-17.9657 185.116L-18 191.511L-17.8197 197.856L-17.6411 201.959M-16.6467 166.76L-17.2773 172.756L-17.7055 178.8L-17.9388 185.157L-17.9698 192.208L-17.6411 201.959M-17.6411 201.959L-17.2373 207.643L-16.6851 213.587L-15.9004 219.788L-14.9623 225.711L-14.7755 226.835L-13.7999 231.914L-12.6415 237.007L-11.3005 242.137L-9.30932 248.93L-7.43562 254.74M-17.6411 201.959L-17.46 196.201L-17.0285 191.912L-16.4093 187.945L-15.5904 184.101L-14.5438 180.233L-13.2142 176.181L-11.5003 171.711L-8.73179 165.57M-17.6411 201.959L-16.8727 206.064L-16.0039 209.11L-14.9802 211.917L-13.7688 214.626L-12.3275 217.334L-10.5859 220.153L-8.41529 223.242L-5.01863 227.458M-7.43562 254.74L-5.72501 259.469L-4.35137 263.215M-4.35137 263.215L-2.3757 268.092L-1.27445 270.684L0.501377 274.754L2.38893 278.759L4.39477 282.69L4.67786 283.227L6.47081 286.464L6.54828 286.599L8.86495 290.517L11.3382 294.452L13.8996 298.315M13.8996 298.315L16.4716 302.005L17.6405 303.603L20.3234 307.232L22.9606 310.554L24.5823 312.552M24.5823 312.552L27.2953 315.699L28.9145 317.566L31.7516 320.596L33.0372 321.964L35.9909 324.898L39.2774 327.979L42.847 331.189M42.847 331.189L46.6263 334.477L50.4822 337.7L54.285 340.714L57.995 343.459L59.712 344.715L63.8518 347.544L65.9148 348.927L70.637 351.891M70.637 351.891L72.3206 352.904L77.4785 355.887L83.1298 358.902M70.637 351.891L76.0077 354.98L83.691 358.933M83.1298 358.902L88.8553 361.713L94.2815 364.15L96.6935 365.224M83.1298 358.902L83.691 358.933M96.6935 365.224L101.864 367.321L104.785 368.47L109.562 370.19L112.171 371.117L116.736 372.564L118.48 373.088L123 374.352L127.911 375.584L133.025 376.746M96.6935 365.224L91.1173 362.71L83.691 358.933M133.025 376.746L133.589 376.748L134.192 376.539L134.862 376.102L135.643 375.39L136.795 374.037M347.957 262.31L348.455 258.038L348.599 254.758L348.547 251.667L348.309 248.606L347.873 245.455L347.209 242.071L346.255 238.242L344.578 232.82M347.957 262.31L344.956 266.973L342.473 270.403L340.001 273.511L337.421 276.452L334.629 279.338L331.49 282.285L327.789 285.456L322.279 289.687M347.957 262.31L351.127 253.529L353.217 247.011L354.942 240.998L356.411 235.157L357.683 229.243L358.803 222.991L359.808 216.028L360.804 206.309M347.957 262.31L344.357 270.859L341.496 276.979L338.72 282.45L335.894 287.588L332.911 292.607L329.645 297.701L325.903 303.128L320.54 310.264M83.1966 179.712L89.6327 178.979L95.0197 178.387L100.191 177.838L105.338 177.311L110.627 176.79L116.309 176.252L122.765 175.664L132.013 174.855M83.1966 179.712L84.7906 172.687L86.1871 166.925L87.5844 161.501L89.0339 156.214L90.5838 150.894L92.3123 145.296L94.3394 139.059L97.342 130.321M83.1966 179.712L77.8447 176.118L73.5442 173.184L69.5774 170.433L65.7957 167.763L62.0792 165.088L58.2609 162.286L54.1056 159.177L48.4445 154.846M83.1966 179.712L78.3782 184.518L74.5125 188.471L70.9527 192.203L67.5666 195.852L64.2458 199.538L60.8426 203.431L57.1466 207.78L52.1267 213.893M83.1966 179.712L85.6593 186.299L87.7712 191.729L89.8456 196.865L91.9583 201.897L94.1795 206.988L96.6169 212.373L99.4393 218.404L103.564 226.902M132.013 174.855L126.524 166.75L122.413 161.003L118.615 155.896L114.944 151.119L111.268 146.463L107.426 141.757L103.187 136.78L97.342 130.321M132.013 174.855L136.112 165.681L139.047 158.947L141.713 152.81L144.281 146.937L146.875 141.088L149.613 135.012L152.664 128.363L156.924 119.288M132.013 174.855L141.862 174.043L149.227 173.462L156.016 172.95L162.582 172.475L169.187 172.022L176.118 171.57L183.785 171.095L194.351 170.481M132.013 174.855L127.646 183.865L124.333 190.362L121.245 196.216L118.242 201.765L115.216 207.244L112.033 212.86L108.496 218.896L103.564 226.902M132.013 174.855L137.273 183.298L141.07 189.575L147.86 200.919L151.22 206.515L154.762 212.376L158.699 218.845L164.18 227.763M97.342 130.321L91.4109 124.369L87.108 120.217L83.244 116.557L79.6132 113.156L76.0746 109.856L63.5704 98.2346M97.342 130.321L100.68 121.285L103.252 114.682L105.684 108.716L108.1 103.067L110.594 97.5092L113.28 91.8048L116.322 85.6325L120.628 77.3477M97.342 130.321L88.436 133.354L82.1093 135.853L76.4865 138.321L71.2357 140.85L66.1334 143.519L60.9862 146.457L55.5388 149.863L48.4445 154.846M97.342 130.321L106.582 127.859L113.478 126.265L119.861 124.933L126.077 123.756L132.385 122.669L139.063 121.627L146.513 120.575L156.924 119.288M4.21289 110.216L8.83881 104.224L12.4851 99.8549L16.0041 95.9118L19.5762 92.1862L23.3489 88.5332L27.4993 84.8028L32.3006 80.788L39.3003 75.425M4.21289 110.216L5.55069 112.756L6.76934 114.758L8.068 116.686L9.50447 118.636L11.1359 120.685L13.0455 122.928L15.3687 125.51L18.9203 129.236M4.21289 110.216L7.60956 102.067L10.2614 96.3054L12.8081 91.2066L15.3793 86.4647L18.0777 81.8752L21.0118 77.2662L24.3473 72.4135L29.0768 66.1426M4.21289 110.216L1.13273 118.725L-0.931062 125.096L-2.65386 131.005L-4.13519 136.773L-5.4338 142.637L-6.59132 148.859L-7.64771 155.817L-8.73179 165.57M29.0768 66.1426L34.9444 60.4805L35.0773 60.3526L39.7253 56.2065L44.1391 52.5315L48.5408 49.1279L53.1055 45.8588L58.0423 42.5888L63.661 39.1404L71.6656 34.661M29.0768 66.1426L30.0141 66.6691L30.8184 67.3227L31.67 68.0954L32.6244 69.0025L33.733 70.0686L36.7079 72.9359L39.3003 75.425M297.326 167.813L301.27 163.749L304.38 160.443L307.193 157.355L309.816 154.369L312.33 151.39L314.845 148.281L317.511 144.847L321.022 140.083M297.326 167.813L295.099 161.078L293.147 155.563L291.193 150.38L289.167 145.337L286.998 140.273L284.58 134.955L281.743 129.04L277.538 120.769M297.326 167.813L291.873 167.746L287.254 167.712L282.773 167.701L278.265 167.712L273.579 167.748L268.492 167.809L262.656 167.905L262.358 167.91L254.203 168.079M297.326 167.813L296.074 174.533L294.921 180.085L293.722 185.349L292.431 190.52L291.002 195.763L289.363 201.324L287.396 207.568L284.406 216.394M297.326 167.813L301.873 172.046L305.479 175.537L308.76 178.841L311.841 182.083L314.815 185.368L317.817 188.848L321.026 192.749L325.301 198.249M321.022 140.083L314.847 135.882L310.076 133.067L305.543 130.683L301.023 128.558L296.339 126.586L291.298 124.712L285.598 122.876L277.538 120.769M321.022 140.083L324.345 135.22L326.595 131.704L328.486 128.556L330.13 125.605L331.595 122.729L332.937 119.808L334.217 116.679L335.648 112.533M321.022 140.083L326.716 144.791L330.637 148.398L334.028 151.774L337.099 155.084L339.983 158.453L342.794 162.024L345.672 166.011L349.266 171.582M321.022 140.083L318.202 130.852L315.857 124.189L313.527 118.181L311.109 112.486L308.512 106.86L305.617 101.066L302.23 94.7732L297.241 86.2634M321.022 140.083L323.159 149.466L324.365 156.401L325.208 162.769L325.776 168.914L326.114 175.083L326.215 181.526L326.039 188.596L325.301 198.249M277.538 120.769L281.315 114.364L286.375 105.945L288.544 102.28L290.593 98.7277L292.599 95.1375L294.659 91.3125L297.241 86.2634M277.538 120.769L277.162 120.702L269.134 119.259L262.821 118.373L256.941 117.696L251.171 117.158L245.271 116.72L238.975 116.365L231.894 116.081L221.902 115.87M277.538 120.769L273.771 127.677L271.011 132.983L268.479 137.99L266.024 142.938L263.535 148.011L260.924 153.427L258.065 159.514L254.203 168.079M277.538 120.769L272.861 112.239L269.253 106.016L265.84 100.404L262.45 95.1024L258.945 89.896L255.17 84.5648L250.892 78.8082L244.83 71.1021M206.087 33.2233L208.718 28.8253L210.373 25.8154L211.697 23.2342L212.807 20.9252L213.772 18.7873L214.61 16.7391L215.324 14.6828L215.927 12.1831M206.087 33.2233L199.932 28.7381L195.573 25.7779L191.683 23.3043L188.009 21.1379L184.379 19.1671L180.674 17.3227L176.758 15.5362L172.011 13.5727M206.087 33.2233L212.514 38.3409L217.252 42.3606L221.565 46.2214L225.679 50.1133L229.757 54.1925L233.978 58.6451L238.583 63.7553L244.83 71.1021M206.087 33.2233L202.919 37.9871L200.42 41.6752L198.04 45.2059L195.68 48.7725L193.254 52.5282L190.66 56.6531L187.739 61.4178L183.615 68.3562M206.087 33.2233L215.222 33.5639L221.805 33.9633L227.737 34.467L233.365 35.1035L238.931 35.9104L244.673 36.9341L250.92 38.2618L251.484 38.4053L259.387 40.4249M206.087 33.2233L196.754 33.0937L189.837 33.1214L183.479 33.2502L177.341 33.4857L171.181 33.8419L164.748 34.3285L157.687 34.974L148.047 36.0196M215.927 12.1831L208.146 11.5107L202.594 11.2442L197.615 11.1708L192.886 11.2694L188.188 11.536L183.371 11.9753L178.253 12.6037L172.011 13.5727M215.927 12.1831L216.016 12.2239L223.422 15.6397L228.793 18.436L233.624 21.1884L238.201 24.0337L242.727 27.0893L247.398 30.5027L252.484 34.5053L259.387 40.4249M215.927 12.1831L223.984 13.2997L229.88 14.3576L235.212 15.5101L240.27 16.8044L245.258 18.2918L250.391 20.0466L255.959 22.1893L263.457 25.4706M215.927 12.1831L208.28 9.34514L208.132 9.29055L202.291 7.47465L196.878 6.04426L191.614 4.88936L186.297 3.94796L180.702 3.1965L174.506 2.62109L165.936 2.2527M172.011 13.5727L171.139 11.1782L170.427 9.38591L169.757 7.85525L169.106 6.52674L168.452 5.36124L167.766 4.3123L167.002 3.32937L165.936 2.2527M172.011 13.5727L165.225 13.2166L159.654 13.0902L154.405 13.1237L149.281 13.3184L144.116 13.6852L138.673 14.25L132.597 15.0642L124.07 16.5085M172.011 13.5727L168.682 15.9176L165.933 18.0196L163.33 20.1647L160.777 22.4314L158.193 24.8993L155.456 27.6941L152.385 31.017L148.047 36.0196M244.83 71.1021L247.931 65.1238L250.02 60.9557L251.791 57.3125L253.367 53.979L254.832 50.8183L256.241 47.7065L257.661 44.4903L259.387 40.4249M244.83 71.1021L241.469 77.514L238.922 82.4506L236.534 87.133L221.902 115.87M244.83 71.1021L254.132 72.6922L260.795 74.0875L266.757 75.5318L272.36 77.0755L277.836 78.7642L283.405 80.6747L289.363 82.9266L297.241 86.2634M244.83 71.1021L235.256 69.8999L228.112 69.181L221.499 68.6488L215.067 68.2706L208.559 68.0367L201.701 67.9446L194.104 68.0057L183.615 68.3562M259.387 40.4249L260.768 36.8379L261.613 34.4841L262.258 32.5419L262.759 30.8784L263.139 29.4138L263.402 28.0869L263.534 26.8375L263.457 25.4706M259.387 40.4249L266.186 46.9713L271.068 52.0441L275.431 56.8609L279.518 61.6574L283.491 66.6153L287.5 71.9318L291.742 77.9068L297.241 86.2634M259.387 40.4249L267.728 43.073L273.707 45.2467L279.043 47.3992L284.033 49.6291L288.88 52.0204L293.767 54.6685L298.932 57.7232L305.631 62.1155M297.241 86.2634L299.497 81.484L300.956 78.157L302.132 75.262L303.102 72.6229L303.909 70.1306L304.582 67.692L305.145 65.1996L305.631 62.1155M297.241 86.2634L304.688 89.9628L309.876 92.8236L314.405 95.5409L318.554 98.2534L322.504 101.07L326.411 104.118L330.473 107.587L335.648 112.533M263.457 25.4706L270.968 30.3649L276.349 34.2233L281.164 37.9472L285.683 41.7192L290.09 45.6852L294.561 50.0179L299.335 54.9839L305.631 62.1155M305.631 62.1155L311.553 69.6774L315.662 75.3989L319.235 80.7488L322.488 86.0107L325.564 91.3965L328.587 97.1343L331.708 103.554L335.648 112.533M335.648 112.533L340.275 117.695L343.367 121.536L345.966 125.084L348.245 128.54L350.308 132.055L352.233 135.777L354.104 139.916L356.257 145.655M335.648 112.533L339.078 121.777L341.307 128.666L343.126 135.037L344.664 141.233L345.995 147.507L347.166 154.12L348.218 161.451L349.266 171.582M356.257 145.655L356.303 149.563L356.054 152.527L355.615 155.301L354.982 158.028L354.138 160.816L353.04 163.772L351.605 167.056L349.266 171.582M356.257 145.655L358.188 155.398L359.333 162.649L360.169 169.322L360.76 175.765L361.137 182.228L361.308 188.964L361.259 196.332L360.804 206.309M165.936 2.2527L158.512 3.36442L153.208 4.4753L148.462 5.71091L143.991 7.11113L139.599 8.72083L135.123 10.6191L130.346 12.9403L124.07 16.5085M124.07 16.5085L118.189 20.6171L114.028 23.8829L110.314 27.06L106.818 30.3111L103.382 33.771L99.8561 37.6057L96.0369 42.0721L95.9227 42.218L90.8881 48.6307M124.07 16.5085L127.015 18.8534L129.444 20.7703L131.846 22.6734L134.31 24.6572L136.917 26.7991L143.136 31.9706L148.047 36.0196M124.07 16.5085L115.224 18.4312L108.743 20.0808L102.873 21.772L97.298 23.5814L91.7943 25.5807L86.1259 27.8652L79.9688 30.5891L71.6656 34.661M148.047 36.0196L143.511 41.685L140.163 46.1139L137.115 50.3513L134.204 54.6074L131.317 59.0501L128.327 63.8849L125.062 69.4174L120.628 77.3477M148.047 36.0196L153.442 40.3825L157.548 43.7592L161.379 46.9949L165.12 50.2689L168.914 53.7247L172.924 57.5285L177.39 61.9313L183.615 68.3562M148.047 36.0196L138.446 37.2659L131.467 38.3237L125.141 39.4224L119.109 40.6287L113.117 42.0004L106.909 43.6125L100.126 45.5849L90.8881 48.6307M71.6656 34.661L65.7435 40.2562L61.5303 44.624L57.782 48.81L54.2908 53.0205L50.9186 57.4192L47.5317 62.197L43.954 67.6455L39.3003 75.425M71.6656 34.661L73.9937 35.9341L75.909 37.0971L77.8145 38.3327L79.7878 39.6987L81.8939 41.2522L84.2277 43.0681L86.9367 45.272L90.8881 48.6307M39.3003 75.425L42.3625 78.3746L44.839 80.7488L47.2682 83.0635L49.766 85.4231L52.4268 87.9122L55.3586 90.6369L63.5704 98.2346M39.3003 75.425L46.9011 70.2544L52.7278 66.6112L58.2144 63.4138L63.6332 60.4854L69.1915 57.7069L75.1104 54.9766L81.7177 52.1622L90.8881 48.6307M39.3003 75.425L35.0104 83.6129L32.0877 89.7778L29.5899 95.5214L27.3614 101.148L25.3025 106.886L23.3285 112.976L21.3406 119.77L18.9203 129.236M90.8881 48.6307L95.1804 52.4377L98.4694 55.4493L101.572 58.3647L104.65 61.3257L107.826 64.4489L111.245 67.8615L115.122 71.7606L120.628 77.3477M90.8881 48.6307L85.8722 55.8185L82.2953 61.3591L79.118 66.6006L76.1594 71.8014L73.2995 77.157L70.4339 82.8818L67.4255 89.2961L63.5704 98.2346M120.628 77.3477L120.713 77.4365L126.336 83.3415L130.572 87.9627L134.477 92.3492L138.271 96.7154L142.117 101.227L146.178 106.078L150.687 111.554L156.924 119.288M120.628 77.3477L110.706 79.9199L103.557 82.026L97.1267 84.1117L91.0496 86.2634L85.072 88.5536L78.9508 91.081L72.359 94.0013L63.5704 98.2346M120.628 77.3477L130.734 75.1463L138.209 73.689L145.076 72.477L151.712 71.4419L158.386 70.547L165.374 69.7613L173.069 69.0571L183.615 68.3562M63.5704 98.2346L55.1677 102.8L49.2586 106.276L44.0567 109.538L39.2489 112.758L34.6279 116.066L30.0117 119.609L25.1688 123.603L18.9203 129.236M63.5704 98.2346L60.1468 107.288L57.8636 113.96L55.9442 120.085L54.259 126.012L52.7295 131.997L51.3052 138.289L49.9381 145.248L48.4445 154.846M18.9203 129.236L22.9239 133.163L26.0587 136.109L29.0712 138.845L32.1179 141.524L35.3261 144.261L38.8255 147.167L42.8128 150.399L48.4445 154.846M18.9203 129.236L13.1972 135.038L9.28013 139.322L5.91449 143.255L2.88979 147.061L0.0747472 150.905L-2.63997 154.949L-5.38163 159.419L-8.73179 165.57M18.9203 129.236L16.9887 138.924L15.8532 146.115L15.0277 152.74L14.4371 159.163L14.0423 165.641L13.8359 172.449L13.8294 179.97L14.1899 190.321M48.4445 154.846L41.8518 160.296L37.2667 164.425L33.2566 168.263L29.5745 172L26.0571 175.78L22.5601 179.764L18.9015 184.185L14.1899 190.321M48.4445 154.846L47.6484 164.527L47.424 171.644L47.4754 178.151L47.7552 184.403L48.2536 190.654L49.013 197.155L50.1233 204.257L52.1267 213.893M156.924 119.288L161.286 110.252L164.508 103.731L167.46 97.8866L170.3 92.3973L173.143 87.045L176.096 81.6266L179.306 75.8709L183.615 68.3562M156.924 119.288L167.628 118.233L175.534 117.579L182.763 117.07L189.695 116.666L196.601 116.343L203.745 116.097L211.499 115.927L221.902 115.87M156.924 119.288L163.177 127.321L167.748 133.307L171.907 138.836L175.886 144.208L179.849 149.639L183.945 155.361L188.383 161.706L194.351 170.481M183.615 68.3562L189.999 75.3321L194.703 80.6836L198.991 85.7279L203.086 90.7184L207.145 95.8433L211.326 101.306L215.85 107.407L221.902 115.87M221.902 115.87L205.489 148.248L202.396 154.355L198.998 161.124L194.351 170.481M221.902 115.87L227.698 124.382L231.795 130.623L235.429 136.33L238.826 141.83L242.145 147.355L245.538 153.129L254.203 168.079M254.203 168.079L245.072 168.321L238.17 168.532L231.75 168.752L225.482 168.99L219.116 169.255L212.371 169.561L204.842 169.928L194.351 170.481M254.203 168.079L250.445 176.97L247.683 183.577L245.12 189.656L242.596 195.531L239.99 201.439L237.18 207.638L233.987 214.49L229.421 223.958M254.203 168.079L259.27 176.505L262.994 182.563L266.382 188.008L272.782 198.245L276.051 203.447L279.6 209.022L284.406 216.394M194.351 170.481L189.623 179.922L186.082 186.836L182.796 193.142L179.603 199.19L176.385 205.234L173.012 211.524L169.292 218.406L164.18 227.763M194.351 170.481L208.478 191.688L212.219 197.334L215.922 202.973L219.735 208.837L223.867 215.249L229.421 223.958M325.301 198.249L329.414 203.99L332.243 208.216L334.656 212.06L336.796 215.728L338.75 219.366L340.593 223.133L342.416 227.245L344.578 232.82M325.301 198.249L330.352 194.076L333.78 190.914L336.71 187.987L339.329 185.154L341.755 182.311L344.082 179.341L346.421 176.071L349.266 171.582M325.301 198.249L319.695 202.015L315.304 204.566L311.092 206.753L306.857 208.731L302.438 210.6L297.645 212.415L292.19 214.233L284.406 216.394M325.301 198.249L323.859 207.858L322.511 214.861L321.081 221.227L319.518 227.318L317.767 233.395L315.744 239.718L313.306 246.658L309.599 256.164M349.266 171.582L352.372 177.327L354.371 181.568L355.981 185.439L357.312 189.145L358.426 192.829L359.36 196.635L360.141 200.764L360.804 206.309M349.266 171.582L349.735 181.779L349.785 189.23L349.61 196.007L349.227 202.489L348.63 208.945L347.779 215.639L346.598 222.934L344.578 232.82M284.406 216.394L284.19 216.437L276.197 218.061L269.998 219.12L264.204 220.002L258.505 220.786L252.663 221.523L246.415 222.247L239.375 222.998L229.421 223.958M284.406 216.394L284.576 216.642L292.55 228.344L295.538 232.782L298.287 236.97L300.905 241.097L303.492 245.341L306.179 249.945L309.599 256.164M284.406 216.394L280.987 225.629L278.297 232.443L275.713 238.652L273.106 244.583L270.372 250.474L267.386 256.577L263.961 263.248L259.042 272.306M344.578 232.82L348.519 228.496L351.102 225.332L353.232 222.448L355.053 219.671L356.651 216.878L358.084 213.95L359.408 210.726L360.804 206.309M344.578 232.82L340.057 237.043L336.453 240.036L332.945 242.691L329.364 245.173L325.568 247.596L321.392 250.059L316.573 252.691L309.599 256.164M344.578 232.82L342.009 242.571L339.87 249.63L337.726 256.004L335.475 262.05L333.029 268.021L330.277 274.157L327.043 280.793L322.279 289.687M-8.73179 165.57L-6.18754 169.417L-4.0169 172.305L-1.81449 174.987L0.514422 177.601L3.05374 180.253L5.91205 183.044L9.26629 186.122L14.1899 190.321M-8.73179 165.57L-9.29951 175.642L-9.44066 183.108L-9.35826 189.955L-9.07029 196.543L-8.56943 203.127L-7.83123 209.963L-6.79609 217.413L-5.01863 227.458M-5.01863 227.458L-3.04868 221.652L-1.31034 217.298L0.491569 213.261L2.4297 209.332L4.57097 205.358L7.01081 201.183L9.90088 196.587L14.1899 190.321M-5.01863 227.458L-1.03791 231.646L2.16463 234.668L5.29697 237.383L8.51091 239.946L11.9312 242.464L15.708 245.051L20.0754 247.86L26.4135 251.646M14.1899 190.321L19.5272 194.428L23.6393 197.388L27.5466 200.055L31.4563 202.585L35.5284 205.082L39.9406 207.634L44.9597 210.361L52.1267 213.893M14.1899 190.321L15.0905 200.676L16.0139 208.211L17.0515 215.038L18.2392 221.544L19.6178 227.999L21.2582 234.664L23.2812 241.897L26.4135 251.646M52.1267 213.893L47.1532 220.246L43.644 224.904L40.5744 229.127L37.7732 233.142L35.1246 237.109L32.5208 241.2L29.8265 245.646L26.4135 251.646M52.1267 213.893L59.7422 216.95L65.5453 218.946L70.9984 220.601L76.3772 222.046L81.8907 223.361L87.7679 224.575L94.3516 225.711L103.564 226.902M52.1267 213.893L54.8177 223.402L57.0569 230.296L59.2724 236.537L61.5588 242.486L63.9962 248.397L66.6979 254.524L69.8384 261.219L74.4341 270.346M26.4135 251.646L33.2631 255.26L38.5351 257.771L43.5331 259.958L48.513 261.963L53.6716 263.883L59.2308 265.793L65.5241 267.79L74.4341 270.346M26.4135 251.646L30.0149 261.192L32.8561 268.067L35.6002 274.247L38.3891 280.084L41.3379 285.817L44.5755 291.679L48.2993 297.984L53.6619 306.377M53.6619 306.377L56.2501 301.269L58.3514 297.297L60.4201 293.516L62.5548 289.749L64.8364 285.852L67.3561 281.667L70.2609 276.957L74.4341 270.346M53.6619 306.377L61.8639 309.614L68.118 311.83L73.9814 313.722L79.7502 315.397L85.6413 316.924L91.8906 318.358L98.8413 319.763L108.447 321.4M53.6619 306.377L59.3498 314.385L63.6602 320.008L67.6955 324.95L71.6713 329.508L75.7451 333.881L80.0806 338.241L84.9145 342.808L91.645 348.689M103.564 226.902L108.073 235.76L111.508 242.274L114.725 248.193L117.889 253.829L121.127 259.41L124.581 265.174L128.46 271.449L133.902 279.939M103.564 226.902L113.042 227.552L120.09 227.846L126.598 228.016L132.925 228.102L139.332 228.128L146.106 228.095L153.652 227.997L164.18 227.763M103.564 226.902L98.4824 234.535L94.7758 239.967L91.4379 244.827L88.2982 249.411L85.2376 253.923L82.133 258.558L78.8171 263.579L74.4341 270.346M164.18 227.763L159.046 236.953L155.319 243.554L151.95 249.47L148.75 255.045L145.584 260.512L142.31 266.086L138.741 272.048L133.902 279.939M164.18 227.763L169.776 236.773L173.897 243.339L177.66 249.275L181.272 254.898L184.872 260.429L188.599 266.08L192.64 272.14L198.044 280.149M164.18 227.763L174.977 227.374L182.939 227.021L190.21 226.655L197.175 226.266L204.104 225.844L211.265 225.368L219.027 224.803L229.421 223.958M133.902 279.939L144.275 280.49L151.929 280.786L158.949 280.977L165.717 281.068L172.508 281.055L179.602 280.932L187.395 280.68L198.044 280.149M133.902 279.939L123.674 279.096L116.276 278.287L109.601 277.406L103.274 276.434L97.032 275.346L90.6221 274.096L83.6983 272.599L74.4341 270.346M133.902 279.939L129.211 287.501L125.907 292.878L122.991 297.66L120.278 302.12L117.645 306.438L114.981 310.786L112.151 315.391L108.447 321.4M198.044 280.149L203.411 271.484L207.335 264.948L210.888 258.864L214.257 252.924L217.57 246.899L220.958 240.554L224.597 233.548L229.421 223.958M198.044 280.149L208.596 279.383L216.216 278.691L223.076 277.961L229.569 277.163L235.967 276.269L242.527 275.251L249.598 274.058L259.042 272.306M229.421 223.958L234.822 232.497L238.655 238.625L242.053 244.114L245.216 249.283L248.281 254.35L259.042 272.306M259.042 272.306L263.09 279.283L265.847 284.25L268.208 288.672L270.332 292.798L272.321 296.795L274.256 300.822L276.226 305.088L278.66 310.66M259.042 272.306L268.164 270.294L274.664 268.648L280.452 267.02L285.868 265.347L291.136 263.576L296.468 261.631L302.145 259.393L309.599 256.164M278.66 310.66L280.687 315.846L281.964 319.407L282.977 322.475L283.802 325.242L284.478 327.834L285.02 330.359L285.429 332.945L285.682 336.179M278.66 310.66L284.474 302.458L288.592 296.216L292.228 290.37L295.591 284.628L298.816 278.77L302.023 272.565L305.362 265.673L309.599 256.164M278.66 310.66L286.707 307.93L292.436 305.747L297.518 303.62L302.241 301.449L306.796 299.152L311.355 296.637L316.138 293.766L322.279 289.687M74.4341 270.346L79.4607 279.407L83.3166 285.94L86.9457 291.794L90.5251 297.296L94.1893 302.662L98.0835 308.097L102.426 313.87L108.447 321.4M108.447 321.4L105.029 326.979L102.676 330.806L100.643 334.097L98.8014 337.061L97.0696 339.834L95.3925 342.527L93.7031 345.274L91.645 348.689M91.645 348.689L89.8586 351.578L88.6506 353.396L87.6227 354.836L86.7205 356.007L85.9154 356.974L85.1772 357.771L84.4757 358.42L83.691 358.933M91.645 348.689L98.6015 354.046L103.825 357.688L108.682 360.8L113.427 363.579L118.242 366.149L123.328 368.608L128.975 371.07L136.601 373.963L136.795 374.037M309.599 256.164L312.666 262.257L314.697 266.61L316.378 270.485L317.814 274.105L319.068 277.616L320.185 281.15L321.209 284.876L322.279 289.687M322.279 289.687L322.887 294.038L323.094 296.983L323.111 299.496L322.964 301.748L322.663 303.843L322.205 305.858L321.572 307.873L320.54 310.264M322.279 289.687L317.074 298.26L313.059 304.326L309.248 309.696L305.445 314.686L301.499 319.513L297.249 324.366L292.453 329.495L285.682 336.179M320.54 310.264L315.841 315.099L312.149 318.55L308.601 321.598L305.023 324.409L301.271 327.095L297.172 329.767L292.463 332.568L285.682 336.179M285.682 336.179L278.574 342.387L273.191 346.681L268.151 350.407L263.193 353.794L258.124 356.989L252.729 360.115L246.698 363.325L238.277 367.342M136.795 374.037L127.671 372.686L121.025 371.414L115.018 370.046L109.324 368.534L103.719 366.827L97.9881 364.852L91.8351 362.484L83.691 358.933" stroke="url(#paint0_linear_734_1576)" stroke-linecap="round" stroke-linejoin="round"/>
<defs>
<linearGradient id="paint0_linear_734_1576" x1="172" y1="1" x2="172" y2="223" gradientUnits="userSpaceOnUse">
<stop stop-color="#6C9EFF"/>
<stop offset="0.541667" stop-color="#002F8F" stop-opacity="0.6"/>
<stop offset="1" stop-color="#002F8F"/>
</linearGradient>
</defs>
</svg>
