<svg width="1392" height="475" viewBox="0 0 1392 475" fill="none" xmlns="http://www.w3.org/2000/svg">
<path fill-rule="evenodd" clip-rule="evenodd" d="M102.692 104.487C17.7749 89.5576 -63.1349 19.597 -79.3988 -65.0744C-94.8114 -145.315 -9.67724 -202.525 30.0009 -273.951C63.3953 -334.065 67.4599 -419.229 131.4 -444.54C195.531 -469.926 258.812 -415.635 322.785 -389.85C390.956 -362.372 479.458 -358.116 510.779 -291.622C542.87 -223.495 513.07 -139.712 469.563 -78.2449C432.514 -25.9001 360.264 -26.4614 302.86 2.1303C233.126 36.8635 179.42 117.976 102.692 104.487Z" fill="url(#paint0_linear_1017_6535)"/>
<path fill-rule="evenodd" clip-rule="evenodd" d="M760.145 -265.293C787.461 -347.07 868.613 -416.751 954.758 -420.321C1036.4 -423.704 1080.39 -331.049 1145.17 -281.249C1199.69 -239.336 1283.32 -222.728 1298.9 -155.749C1314.53 -88.5694 1251.48 -34.0085 1216.52 25.45C1179.27 88.8109 1161.98 175.712 1091.58 196.86C1019.46 218.529 941.004 176.673 886.642 124.558C840.349 80.1784 851.583 8.80526 831.79 -52.1941C807.746 -126.296 735.462 -191.401 760.145 -265.293Z" fill="url(#paint1_linear_1017_6535)"/>
<path fill-rule="evenodd" clip-rule="evenodd" d="M675.314 -133.746C758.982 -112.93 834.815 -37.4959 845.133 48.1038C854.911 129.224 765.993 180.356 721.429 248.84C683.923 306.478 673.927 391.151 608.378 411.94C542.631 432.791 483.292 374.218 421.274 344.033C355.185 311.867 267.196 301.447 240.59 232.931C213.329 162.732 248.9 81.2315 296.589 22.9485C337.2 -26.6843 409.235 -21.0845 468.493 -45.6023C540.48 -75.3864 599.713 -152.555 675.314 -133.746Z" fill="url(#paint2_linear_1017_6535)"/>
<path fill-rule="evenodd" clip-rule="evenodd" d="M1133.82 -171.022C1204.85 -219.893 1311.59 -226.704 1382.54 -177.712C1449.78 -131.283 1429.15 -30.8068 1450.92 47.9486C1469.23 114.232 1526.02 177.824 1498.16 240.693C1470.21 303.75 1387.02 309.381 1323.32 335.829C1255.44 364.012 1189.33 423.008 1120.39 397.535C1049.75 371.436 1012.28 290.791 1000.23 216.455C989.962 153.151 1041.89 102.911 1062.79 42.2833C1088.18 -31.3674 1069.64 -126.864 1133.82 -171.022Z" fill="url(#paint3_linear_1017_6535)"/>
<defs>
<linearGradient id="paint0_linear_1017_6535" x1="106.234" y1="113.086" x2="264.5" y2="-125.5" gradientUnits="userSpaceOnUse">
<stop stop-color="#272446"/>
<stop offset="1" stop-color="#27233E" stop-opacity="0"/>
</linearGradient>
<linearGradient id="paint1_linear_1017_6535" x1="751.117" y1="-263.061" x2="963.689" y2="-71.2678" gradientUnits="userSpaceOnUse">
<stop stop-color="#1F2A54"/>
<stop offset="1" stop-color="#27233E" stop-opacity="0"/>
</linearGradient>
<linearGradient id="paint2_linear_1017_6535" x1="672.38" y1="-142.572" x2="497.857" y2="84.3931" gradientUnits="userSpaceOnUse">
<stop stop-color="#272446"/>
<stop offset="1" stop-color="#27233E" stop-opacity="0"/>
</linearGradient>
<linearGradient id="paint3_linear_1017_6535" x1="1125.26" y1="-174.673" x2="1179.61" y2="106.429" gradientUnits="userSpaceOnUse">
<stop stop-color="#272446"/>
<stop offset="1" stop-color="#27233E" stop-opacity="0"/>
</linearGradient>
</defs>
</svg>
