<svg width="1392" height="558" viewBox="0 0 1392 558" fill="none" xmlns="http://www.w3.org/2000/svg">
<path fill-rule="evenodd" clip-rule="evenodd" d="M102.692 187.487C17.7749 172.558 -63.1349 102.597 -79.3988 17.9256C-94.8114 -62.3145 -9.67724 -119.525 30.0009 -190.951C63.3953 -251.065 67.4599 -336.229 131.4 -361.54C195.531 -386.926 258.812 -332.635 322.785 -306.85C390.956 -279.372 479.458 -275.116 510.779 -208.622C542.87 -140.495 513.07 -56.7124 469.563 4.75511C432.514 57.1 360.264 56.5386 302.86 85.1303C233.126 119.863 179.42 200.976 102.692 187.487Z" fill="url(#paint0_linear_1019_6536)"/>
<path fill-rule="evenodd" clip-rule="evenodd" d="M760.145 -182.293C787.461 -264.07 868.613 -333.751 954.758 -337.321C1036.4 -340.704 1080.39 -248.049 1145.17 -198.249C1199.69 -156.336 1283.32 -139.728 1298.9 -72.7492C1314.53 -5.56941 1251.48 48.9915 1216.52 108.45C1179.27 171.811 1161.98 258.712 1091.58 279.86C1019.46 301.529 941.004 259.673 886.642 207.558C840.349 163.178 851.583 91.8053 831.79 30.8059C807.746 -43.296 735.462 -108.401 760.145 -182.293Z" fill="url(#paint1_linear_1019_6536)"/>
<path fill-rule="evenodd" clip-rule="evenodd" d="M675.314 -50.7464C758.982 -29.93 834.815 45.5041 845.133 131.104C854.911 212.224 765.993 263.356 721.429 331.84C683.923 389.478 673.927 474.151 608.378 494.94C542.631 515.791 483.292 457.218 421.274 427.033C355.185 394.867 267.196 384.447 240.59 315.931C213.329 245.732 248.9 164.231 296.589 105.949C337.2 56.3157 409.235 61.9155 468.493 37.3977C540.48 7.61356 599.713 -69.5554 675.314 -50.7464Z" fill="url(#paint2_linear_1019_6536)"/>
<path fill-rule="evenodd" clip-rule="evenodd" d="M1133.82 -88.0224C1204.85 -136.893 1311.59 -143.704 1382.54 -94.7118C1449.78 -48.2834 1429.15 52.1933 1450.92 130.949C1469.23 197.232 1526.02 260.824 1498.16 323.693C1470.21 386.75 1387.02 392.381 1323.32 418.829C1255.44 447.012 1189.33 506.008 1120.39 480.535C1049.75 454.436 1012.28 373.791 1000.23 299.455C989.962 236.151 1041.89 185.911 1062.79 125.283C1088.18 51.6327 1069.64 -43.8641 1133.82 -88.0224Z" fill="url(#paint3_linear_1019_6536)"/>
<defs>
<linearGradient id="paint0_linear_1019_6536" x1="106.234" y1="196.086" x2="264.5" y2="-42.5" gradientUnits="userSpaceOnUse">
<stop stop-color="#1F2A54"/>
<stop offset="1" stop-color="#27233E" stop-opacity="0"/>
</linearGradient>
<linearGradient id="paint1_linear_1019_6536" x1="751.117" y1="-180.061" x2="963.689" y2="11.7322" gradientUnits="userSpaceOnUse">
<stop stop-color="#1F2A54"/>
<stop offset="1" stop-color="#27233E" stop-opacity="0"/>
</linearGradient>
<linearGradient id="paint2_linear_1019_6536" x1="672.38" y1="-59.5716" x2="497.857" y2="167.393" gradientUnits="userSpaceOnUse">
<stop stop-color="#1F2A54"/>
<stop offset="1" stop-color="#27233E" stop-opacity="0"/>
</linearGradient>
<linearGradient id="paint3_linear_1019_6536" x1="1125.26" y1="-91.6732" x2="1179.61" y2="189.429" gradientUnits="userSpaceOnUse">
<stop stop-color="#1F2A54"/>
<stop offset="1" stop-color="#27233E" stop-opacity="0"/>
</linearGradient>
</defs>
</svg>
